<svg width="1205" height="826" viewBox="0 0 1205 826" fill="none" xmlns="http://www.w3.org/2000/svg">
<path d="M586.097 -223.611C567.608 -265.132 557.129 -297.174 552.119 -327.506C534.459 -444.208 603.937 -596.477 729.128 -715.421C792.055 -774.245 859.058 -811.464 922.888 -823.05C978.733 -832.655 1040.8 -823.397 1118.21 -793.916C1171.33 -773.23 1223.74 -741.728 1283.15 -694.776C1343.15 -646.94 1381.74 -601.354 1408.28 -546.969C1409.47 -544.483 1410.62 -541.974 1411.82 -539.296C1440.07 -475.85 1468.12 -361.852 1486.85 -234.348C1505.88 -104.757 1511.34 14.2953 1501.44 84.1176C1502.86 250.837 1443.12 276.651 1352.68 315.736C1312.56 333.071 1267.09 352.724 1217.23 387.865C1181.24 413.235 1149.4 436.533 1121.3 457.092C986.382 555.819 924.805 600.884 820.426 569C795.775 560.644 775.623 539.225 760.54 505.353C748.651 478.653 739.8 443.99 734.234 402.321C729.279 364.447 726.067 323.84 722.669 280.848C718.2 224.304 713.58 165.836 704.436 105.276C693.341 33.3693 671.801 -37.844 638.585 -112.438C633.655 -123.51 628.318 -134.989 622.727 -146.554C620.212 -151.751 617.709 -156.899 615.232 -162C604.824 -183.408 594.994 -203.63 586.097 -223.611ZM1412.56 -539.881C1411.36 -542.572 1410.19 -545.097 1409 -547.604C1382.37 -602.193 1343.67 -647.918 1283.52 -695.875C1224.03 -742.886 1171.54 -774.429 1118.35 -795.15C1040.81 -824.675 978.64 -833.944 922.675 -824.32C858.715 -812.71 791.597 -775.428 728.572 -716.509C603.112 -597.312 533.507 -444.567 551.243 -327.37C556.28 -296.866 566.802 -264.687 585.354 -223.023C594.263 -203.017 604.097 -182.784 614.511 -161.361C616.992 -156.262 619.493 -151.118 622.006 -145.921C627.59 -134.369 632.919 -122.907 637.842 -111.85C670.993 -37.4011 692.49 33.6617 703.563 105.407C712.691 165.893 717.31 224.324 721.777 280.841C725.175 323.856 728.387 364.483 733.352 402.407C738.942 444.256 747.839 479.087 759.797 505.941C775.033 540.158 795.397 561.79 820.33 570.243C871.085 585.748 912.595 583.794 959.137 563.699C1004.33 544.195 1053.6 508.142 1121.79 458.246C1149.88 437.69 1181.72 414.387 1217.7 389.027C1267.5 353.924 1312.95 334.289 1353.03 316.964C1399.71 296.791 1436.58 280.86 1462.61 248.604C1490.76 213.737 1503.01 163.088 1502.33 84.3763C1512.24 14.5345 1506.79 -104.709 1487.73 -234.465C1468.97 -362.123 1440.87 -476.297 1412.56 -539.881Z" fill="#EDE9F6"/>
<path d="M1403.35 -533.599C1404.04 -532.111 1404.71 -530.626 1405.4 -529.089C1432.4 -468.459 1459.21 -358.467 1477.12 -234.868C1495.35 -109.085 1500.51 6.83668 1490.93 75.2278C1492.09 237.353 1434.44 263.987 1347.16 304.298C1309.42 321.732 1266.65 341.493 1219.83 375.428C1185.65 400.038 1155.32 422.698 1128.56 442.688C998.737 539.664 939.487 583.924 838.506 554.371C812.218 546.336 790.648 523.757 774.389 487.245C763.486 462.76 754.916 431.852 748.919 395.383C740.345 351.339 734.318 302.995 727.941 251.815C721.949 203.724 715.749 153.99 706.859 102.758C687.949 -3.21402 652.381 -91.7938 627.273 -149.203L622.696 -159.21C617.141 -171.358 611.892 -182.834 606.772 -194.333C584.991 -243.247 569.246 -284.581 563.201 -327.328C547.577 -440.574 614.632 -588.861 734.031 -705.098C794.893 -765.104 859.517 -803.598 920.911 -816.421C975.481 -827.486 1036.2 -819.533 1111.99 -791.387C1167.38 -771.001 1221.26 -738.2 1281.55 -688.153C1340 -639.175 1377.48 -591.702 1403.07 -534.229L1403.35 -533.599ZM1406.14 -529.679C1405.46 -531.222 1404.78 -532.716 1404.09 -534.196L1403.81 -534.817C1378.13 -592.503 1340.54 -640.129 1281.93 -689.236C1221.55 -739.351 1167.59 -772.204 1112.12 -792.624C1036.21 -820.812 975.373 -828.778 920.681 -817.687C859.163 -804.839 794.425 -766.281 733.465 -706.18C613.808 -589.693 546.63 -440.944 562.319 -327.221C568.397 -284.264 584.186 -242.794 606.027 -193.743C611.151 -182.236 616.402 -170.759 621.96 -158.605L626.529 -148.612C651.596 -91.296 687.113 -2.84931 705.991 102.923C714.869 154.11 721.066 203.819 727.059 251.893C733.439 303.103 739.468 351.476 748.049 395.549C754.068 432.151 762.682 463.206 773.648 487.832C790.06 524.69 811.853 547.503 838.422 555.613C939.716 585.266 999.048 540.945 1129.04 443.836C1155.8 423.847 1186.13 401.191 1220.31 376.579C1267.07 342.683 1309.82 322.939 1347.53 305.521C1392.58 284.714 1428.16 268.279 1453.31 236.243C1480.5 201.612 1492.37 152.029 1491.82 75.4922C1501.41 7.07432 1496.25 -109.044 1478 -234.977C1460.07 -358.738 1433.2 -468.908 1406.14 -529.679Z" fill="#EDE9F6"/>
<path d="M788.079 468.771C778.254 446.708 770.135 419.691 763.943 388.477C750.506 337.233 740.766 279.366 730.455 218.101C724.018 179.865 717.364 140.327 709.411 99.9223C689.248 0.741061 658.842 -83.349 631.758 -152.529L630.063 -156.492C603.595 -218.314 580.737 -271.71 574.094 -328.098C560.417 -438.04 624.935 -582.407 738.467 -695.901C798.049 -757.963 858.575 -796.614 918.375 -810.785C970.905 -823.098 1032.02 -816.154 1105.22 -789.573C1162.11 -769.691 1219.1 -734.477 1279.45 -681.91C1336.43 -631.811 1373.76 -580.93 1398.05 -520.29L1398.64 -518.969C1424.43 -461.064 1450.08 -354.934 1467.25 -235.087C1484.75 -112.955 1489.71 -0.0181895 1480.5 67.0275C1481.52 224.764 1425.97 252.199 1341.88 293.725C1306.54 311.179 1266.49 330.964 1222.75 363.621C1190.42 387.425 1161.66 409.395 1136.28 428.776C1011.58 524.001 954.673 567.464 857.031 540.056C828.922 532.376 805.721 508.393 788.079 468.771ZM1392.97 -534.665C1368.57 -589.452 1332.63 -636.58 1279.86 -682.977C1219.41 -735.625 1162.32 -770.896 1105.34 -790.811C1032.02 -817.44 970.78 -824.385 918.127 -812.047C858.203 -797.848 797.561 -759.128 737.89 -696.972C681.889 -640.99 636.831 -576.766 607.583 -511.252C578.335 -445.729 566.448 -382.371 573.21 -328.031C579.883 -271.381 602.789 -217.878 629.31 -155.925L630.995 -151.99C658.04 -82.9078 688.416 1.09389 708.55 100.133C716.492 140.5 723.148 180.031 729.58 218.258C739.9 279.563 749.647 337.473 763.093 388.737C769.299 420.037 777.457 447.175 787.336 469.36C805.143 509.35 828.569 533.557 856.964 541.311C954.909 568.802 1011.9 525.278 1136.77 429.915C1162.15 410.538 1190.91 388.569 1223.23 364.772C1266.92 332.149 1306.95 312.376 1342.26 294.945C1385.66 273.507 1419.94 256.579 1444.19 224.738C1470.4 190.319 1481.87 141.76 1481.39 67.2905C1490.61 0.220245 1485.66 -112.906 1468.13 -235.2C1450.93 -355.206 1425.23 -461.511 1399.39 -519.557L1398.81 -520.853C1396.95 -525.472 1394.98 -530.13 1392.97 -534.665Z" fill="#EDE9F6"/>
<path d="M801.111 448.828C792.534 429.565 785.113 406.711 779.06 380.913C759.232 321.386 744.786 251.831 729.489 178.19C724.007 151.788 718.336 124.486 712.263 96.8972C689.463 -3.15643 658.989 -91.2577 636.741 -155.589C613.222 -214.649 591.018 -270.395 585.622 -328.281C579.873 -380.726 591.612 -441.904 619.566 -505.222C647.578 -568.664 690.484 -631.086 743.645 -685.743C801.067 -749.006 859.236 -788.863 916.538 -804.203C967.731 -817.965 1027.42 -812.35 1099.02 -787.041C1158.12 -767.486 1216.59 -730.933 1277.76 -675.288C1325.63 -631.334 1358.71 -586.624 1381.88 -534.587C1385.85 -525.666 1389.59 -516.375 1392.99 -506.969C1417.37 -451.097 1441.54 -349.076 1457.67 -233.986C1474.39 -114.68 1478.85 -8.29798 1469.9 57.8875C1470.69 211.052 1417.25 239.349 1336.37 282.181C1303.44 299.616 1266.13 319.378 1225.48 350.723C1195.08 373.666 1167.92 394.908 1143.96 413.646C1024.35 507.195 969.758 549.893 875.503 524.767C845.365 517.559 820.338 492.006 801.111 448.828ZM1382.62 -535.176C1359.37 -587.405 1326.18 -632.257 1278.18 -676.341C1216.91 -732.078 1158.34 -768.693 1099.13 -788.281C1027.41 -813.633 967.59 -819.253 916.273 -805.459C858.845 -790.083 800.565 -750.158 743.056 -686.798C689.826 -632.072 646.852 -569.547 618.79 -505.987C590.732 -442.433 578.955 -380.975 584.733 -328.25C590.152 -270.114 612.402 -214.248 635.958 -155.102C658.18 -90.8482 688.631 -2.79814 711.411 97.1506C717.479 124.718 723.147 152.015 728.631 178.417C743.937 252.108 758.398 321.718 778.231 381.259C784.291 407.093 791.746 430.05 800.369 449.416C819.762 492.967 845.023 518.745 875.45 526.027C970.002 551.224 1024.68 508.469 1144.46 414.784C1168.42 396.043 1195.57 374.806 1225.97 351.862C1266.58 320.556 1303.87 300.809 1336.77 283.384C1378.51 261.276 1411.48 243.818 1434.83 212.176C1460.08 177.967 1471.17 130.459 1470.79 58.1535C1479.75 -8.0656 1475.29 -114.631 1458.55 -234.097C1442.4 -349.325 1418.18 -451.537 1393.76 -507.494C1390.36 -516.882 1386.61 -526.216 1382.62 -535.176Z" fill="#EDE9F6"/>
<path d="M812.613 429.227C805.457 413.156 799.008 394.725 793.44 374.425C765.163 305.075 744.792 220.697 723.231 131.381C720.303 119.251 717.351 107.017 714.344 94.682C695.469 19.9568 674.752 -47.5039 656.473 -107.021C650.973 -124.925 645.781 -141.838 640.9 -158.083C617.908 -220.698 600.031 -272.94 596.281 -328.08C591.512 -378.986 603.168 -438.352 629.984 -499.777C656.867 -561.349 697.753 -622.16 748.23 -675.636C803.575 -740.212 859.465 -781.327 914.363 -797.848C964.263 -813.093 1022.61 -808.814 1092.73 -784.759C1153.27 -765.822 1214.99 -726.827 1276.18 -668.862C1319.71 -627.244 1350.21 -584.895 1372.16 -535.599C1378.09 -522.266 1383.47 -508.167 1388.16 -493.701C1411.05 -439.339 1433.62 -341.328 1448.55 -231.447C1464.08 -117.162 1468.09 -14.8313 1459.56 49.3012C1460.07 198.11 1408.67 227.366 1330.87 271.641C1300.32 289.024 1265.69 308.728 1228.08 338.749C1199.61 360.82 1174.07 381.313 1151.53 399.403C1036.76 491.501 984.383 533.531 893.352 510.701C860.881 504.041 833.722 476.633 812.613 429.227ZM1372.9 -536.189C1350.87 -585.67 1320.27 -628.153 1276.62 -669.898C1215.32 -727.969 1153.48 -767.028 1092.83 -786.001C1022.58 -810.101 964.112 -814.386 914.077 -799.096C859.058 -782.537 803.054 -741.352 747.627 -676.677C697.09 -623.138 656.136 -562.222 629.207 -500.538C602.29 -438.884 590.595 -379.25 595.391 -328.085C599.155 -272.722 617.07 -220.352 640.098 -157.652C644.962 -141.455 650.154 -124.54 655.655 -106.63C673.928 -47.1348 694.638 20.3033 713.5 94.9774C716.502 107.299 719.457 119.534 722.384 131.659C743.962 221.048 764.347 305.486 792.643 374.865C798.196 395.143 804.679 413.668 811.869 429.816C833.15 477.605 860.55 505.24 893.313 511.962C984.638 534.871 1037.1 492.769 1152.04 400.527C1174.57 382.447 1200.11 361.948 1228.58 339.884C1266.16 309.898 1300.76 290.204 1331.28 272.84C1371.44 249.984 1403.15 231.932 1425.65 200.415C1449.96 166.34 1460.7 119.819 1460.45 49.5632C1468.99 -14.6071 1464.98 -117.101 1449.43 -231.542C1434.47 -341.574 1411.86 -439.756 1388.94 -494.189C1384.27 -508.645 1378.86 -522.802 1372.9 -536.189Z" fill="#EDE9F6"/>
<path d="M799.611 347.296C767.813 275.886 743.587 189.362 717.445 91.851C706.42 52.1872 695.591 14.8468 685.117 -21.2621C670.441 -71.8581 656.581 -119.653 645.923 -161.362C626.448 -219.473 610.144 -272.136 607.702 -328.767C603.867 -378.153 615.367 -435.694 640.959 -495.196C666.617 -554.86 705.381 -613.998 753.058 -666.222C806.181 -732.057 859.689 -774.343 912.111 -791.923C960.627 -808.588 1017.55 -805.542 1086.14 -782.61C1148.91 -763.92 1212.18 -723.42 1274.21 -662.235C1313.24 -623.384 1342.13 -582.21 1362.54 -536.369C1370.4 -518.718 1377.27 -499.756 1382.97 -480.006C1426.33 -372.89 1467.04 -95.5843 1449.28 41.3429C1449.66 185.885 1400.37 216.074 1325.76 261.775C1297.66 278.984 1265.8 298.496 1231.3 327.072C1204.89 348.153 1181.06 367.82 1160.03 385.165C1050.26 475.753 1000.16 517.103 912.394 496.381C877.311 490.347 847.688 460.685 824.331 408.231C818.827 395.869 813.673 382.167 809.009 367.508C805.828 360.953 802.681 354.19 799.611 347.296ZM1363.29 -536.958C1342.8 -582.972 1313.81 -624.284 1274.66 -663.254C1212.51 -724.555 1149.12 -765.131 1086.24 -783.855C1017.52 -806.834 960.458 -809.883 911.808 -793.167C859.258 -775.546 805.64 -733.179 752.442 -667.247C704.71 -614.965 665.884 -555.729 640.176 -495.953C614.492 -436.235 602.954 -378.435 606.806 -328.809C609.258 -271.966 625.6 -219.175 645.101 -160.991C655.748 -119.317 669.615 -71.5106 684.291 -20.9002C694.765 15.2087 705.591 52.5406 716.611 92.1847C742.773 189.76 767.021 276.357 798.87 347.883C801.947 354.792 805.102 361.572 808.247 368.031C812.881 382.638 818.061 396.4 823.591 408.818C847.126 461.673 876.994 491.56 912.372 497.648C954.882 507.683 989.745 503.377 1028.93 483.238C1066.43 463.969 1105.91 431.391 1160.55 386.294C1181.57 368.946 1205.4 349.284 1231.81 328.198C1266.28 299.659 1298.11 280.159 1326.2 262.954C1364.71 239.366 1395.12 220.743 1416.7 189.353C1440.03 155.407 1450.35 109.845 1450.17 41.6081C1458.23 -20.506 1454.57 -118.966 1440.11 -228.426C1426.27 -333.279 1405.2 -427.497 1383.76 -480.457C1378.08 -500.195 1371.18 -519.233 1363.29 -536.958Z" fill="#EDE9F6"/>
<path d="M792.494 298.872C762.654 231.858 738.886 155.295 719.573 89.2409C692.931 1.30797 665.627 -90.6797 650.174 -164.095C631.262 -226.877 619.372 -276.273 618.489 -328.711C612.649 -426.614 665.993 -552.04 757.698 -656.072C808.692 -723.251 859.895 -766.774 909.906 -785.455C957.071 -803.636 1012.62 -801.924 1079.73 -780.237C1143.82 -762.191 1210.44 -719.161 1272.41 -655.802C1307.92 -619.171 1334.48 -580.463 1353.62 -537.475C1363.44 -515.424 1371.37 -492.319 1377.84 -466.843C1397.75 -415.457 1417.15 -325.479 1429.78 -226.04C1443.02 -121.817 1446.23 -27.6374 1438.59 32.3504C1438.7 172.595 1391.44 203.857 1319.91 251.186C1294.22 268.178 1265.1 287.441 1233.68 314.526C1209.34 334.583 1187.25 353.378 1167.76 369.968C1065.91 456.597 1014.79 500.082 930.187 481.649C892.634 476.507 859.253 443.368 833.63 385.826C830.075 377.843 826.632 369.313 823.392 360.453C812.819 341.891 802.443 321.216 792.494 298.872ZM1354.37 -538.063C1335.15 -581.218 1308.5 -620.057 1272.88 -656.81C1210.79 -720.291 1144.02 -763.403 1079.81 -781.483C1012.57 -803.216 956.878 -804.923 909.585 -786.696C859.446 -767.962 808.134 -724.359 757.067 -657.081C665.184 -552.845 611.733 -427.042 617.591 -328.791C618.575 -270.485 633.813 -215.309 649.337 -163.793C664.787 -90.3783 692.101 1.65074 718.752 89.6194C738.08 155.72 761.867 232.348 791.752 299.46C801.72 321.846 812.123 342.575 822.665 361.056C825.858 369.827 829.314 378.394 832.885 386.415C858.691 444.367 892.335 477.736 930.182 482.917C1015.07 501.407 1066.27 457.852 1168.28 371.078C1187.77 354.497 1209.86 335.707 1234.21 315.648C1265.59 288.589 1294.69 269.337 1320.37 252.351C1357.29 227.926 1386.45 208.637 1407.17 177.315C1429.57 143.45 1439.53 98.8226 1439.48 32.606C1447.13 -27.4086 1443.92 -121.755 1430.66 -226.122C1418.02 -325.696 1398.58 -415.838 1378.65 -467.25C1372.18 -492.723 1364.23 -515.92 1354.37 -538.063Z" fill="#EDE9F6"/>
<path d="M782.004 248.813C761.942 203.759 742.298 150.673 721.953 86.5236C687.563 -18.2227 665.532 -101.189 654.6 -167.131C639.089 -225.442 628.877 -275.251 629.405 -329.078C625.563 -423.627 676.53 -545.232 762.417 -646.48C811.264 -715.053 860.166 -759.816 907.788 -779.553C953.581 -799.235 1007.77 -798.838 1073.44 -778.346C1157.23 -756.002 1227.03 -696.056 1270.83 -649.702C1303.2 -615.129 1327.66 -578.75 1345.59 -538.49C1357.15 -512.523 1366.12 -484.837 1373 -453.848C1410.47 -352.226 1444.01 -102.554 1428.33 23.5197C1428.18 159.659 1382.94 192.085 1314.45 241.161C1291.19 257.829 1264.82 276.72 1236.5 302.228C1214.31 321.163 1194.02 339.005 1176.11 354.75C1078.78 440.348 1029.92 483.313 948.396 467.118C907.409 462.933 870.569 426.61 841.829 362.067C840.581 359.266 839.334 356.372 838.119 353.468C818.335 323.423 800.001 289.229 782.004 248.813ZM1346.33 -539.078C1328.33 -579.498 1303.79 -616.007 1271.31 -650.693C1227.42 -697.141 1157.48 -757.202 1073.51 -779.592C1007.7 -800.133 953.379 -800.526 907.443 -780.78C859.699 -760.996 810.683 -716.14 761.771 -647.472C675.724 -546.034 624.651 -424.065 628.507 -329.202C627.978 -275.213 638.214 -225.266 653.745 -166.893C664.675 -100.944 686.728 -17.8883 721.143 86.9314C741.506 151.138 761.171 204.285 781.261 249.401C799.295 289.901 817.669 324.164 837.43 354.154C838.579 356.935 839.832 359.841 841.086 362.655C870.01 427.612 907.122 464.176 948.405 468.383C1030.21 484.637 1079.15 441.602 1176.65 355.861C1194.55 340.121 1214.84 322.276 1237.03 303.331C1265.33 277.851 1291.68 258.972 1314.92 242.315C1383.67 193.057 1429.08 160.509 1429.21 23.7797C1444.93 -102.414 1411.33 -352.525 1373.82 -454.221C1366.94 -485.202 1357.94 -513.003 1346.33 -539.078Z" fill="#EDE9F6"/>
<path d="M770.585 200.461C754.854 165.133 739.984 126.875 725.132 83.5204C690.251 -14.9945 668.229 -100.495 659.676 -170.617C648.641 -218.68 638.739 -271.179 640.863 -329.977C638.939 -421.223 687.391 -538.976 767.314 -637.331C814.558 -708.276 859.786 -752.946 905.616 -773.929C949.969 -795.078 1002.74 -795.914 1066.95 -776.499C1134.5 -759.332 1206.25 -712.035 1268.98 -643.317C1298.58 -610.619 1321.13 -576.383 1337.93 -538.658C1351.13 -509.015 1360.95 -476.865 1367.97 -440.364C1402.44 -341.599 1432.98 -107.297 1418.2 15.4013C1417.91 147.592 1374.71 181.236 1309.32 232.165C1288.55 248.341 1265.01 266.679 1239.85 290.448C1219.92 308.134 1201.54 324.895 1185.32 339.695C1092.55 424.346 1045.99 466.833 967.507 452.753C913.593 449.082 875.898 392.931 853.76 346.476L853.682 346.344C823.775 306.589 796.593 258.868 770.585 200.461ZM1338.67 -539.245C1321.8 -577.121 1299.17 -611.482 1269.47 -644.297C1206.61 -713.153 1134.71 -760.551 1067.02 -777.753C1002.66 -797.215 949.745 -796.365 905.249 -775.152C859.299 -754.109 813.959 -709.344 766.656 -638.304C686.59 -539.774 638.036 -421.681 639.965 -330.143C637.836 -271.186 647.762 -218.545 658.809 -170.45C667.362 -100.288 689.413 -14.657 724.335 83.9698C739.201 127.368 754.088 165.664 769.844 201.048C795.89 259.54 823.113 307.338 853.071 347.172C875.344 393.898 913.276 450.329 967.537 454.03C1046.29 468.155 1092.94 425.592 1185.87 340.798C1202.09 326.005 1220.46 309.233 1240.39 291.553C1265.54 267.79 1289.06 249.47 1309.82 233.306C1375.45 182.184 1418.81 148.419 1419.09 15.6564C1433.88 -107.158 1403.3 -341.873 1368.8 -440.69C1361.79 -477.196 1351.92 -509.479 1338.67 -539.245Z" fill="#EDE9F6"/>
<path d="M758.317 157.767C747.571 133.634 737.104 107.754 727.2 80.8433C691.327 -13.6269 669.418 -101.591 663.833 -173.547C652.117 -234.949 648.448 -281.774 651.552 -330.214C651.594 -373.49 662.667 -423.732 683.582 -475.562C704.623 -527.703 735.164 -580.284 771.906 -627.619C816.967 -700.071 859.979 -745.961 903.434 -767.954C946.392 -790.647 997.813 -792.822 1060.63 -774.604C1130.42 -757.843 1203.84 -709.088 1267.38 -637.312C1294.51 -606.41 1315.35 -574.22 1331.08 -538.898C1345.78 -505.872 1356.25 -469.445 1363.09 -427.527C1394.8 -330.691 1421.64 -111.566 1407.79 6.32517C1407.2 134.676 1365.94 169.755 1303.47 222.853C1285.18 238.403 1264.45 256.022 1242.42 277.94C1224.82 294.252 1209.12 309.175 1193.93 323.603C1105.41 407.695 1060.98 449.905 985.382 438.109C931.711 436.386 892.01 383.504 868.151 339.452L868.067 339.326C827.915 292.227 790.99 231.143 758.317 157.767ZM1331.82 -539.486C1316.03 -574.951 1295.11 -607.266 1267.88 -638.274C1204.21 -710.206 1130.63 -759.065 1060.7 -775.86C997.722 -794.121 946.147 -791.932 903.043 -769.163C859.466 -747.109 816.348 -701.12 771.231 -628.571C734.462 -581.201 703.869 -528.53 682.792 -476.291C661.807 -424.293 650.696 -373.851 650.657 -330.421C647.544 -281.875 651.22 -234.915 662.954 -173.454C668.538 -101.426 690.488 -13.2867 726.417 81.3363C736.33 108.269 746.814 134.186 757.576 158.354C790.295 231.834 827.279 293.022 867.5 340.222C891.501 384.516 931.433 437.648 985.428 439.378C1061.3 451.221 1105.81 408.935 1194.49 324.693C1209.67 310.263 1225.38 295.345 1242.98 279.024C1264.99 257.118 1285.71 239.509 1304 223.97C1366.68 170.685 1408.1 135.48 1408.68 6.58308C1415.01 -47.2655 1413.02 -129.448 1403.22 -218.788C1394.01 -302.687 1379.32 -380.826 1363.93 -427.815C1357.1 -469.748 1346.59 -506.32 1331.82 -539.486Z" fill="#EDE9F6"/>
<path d="M748.585 122.656C742.217 108.356 735.983 93.4713 730.05 78.4149C692.41 -14.3761 671.195 -102.448 668.689 -176.296C660.103 -233.325 658.312 -280.786 662.873 -330.286C664.941 -416.218 707.56 -523.622 776.887 -617.648C819.671 -691.605 860.412 -738.673 901.469 -761.59C942.975 -785.803 993.003 -789.264 1054.42 -772.176C1126.4 -755.774 1201.46 -705.489 1265.8 -630.588C1290.75 -601.322 1310.04 -570.988 1324.8 -537.855C1340.91 -501.668 1351.86 -461.116 1358.27 -413.872C1386.53 -321.043 1410.23 -112.797 1397.63 -1.87813C1396.81 122.852 1357.47 159.524 1297.92 215.013C1282.18 229.688 1264.33 246.315 1245.52 266.162C1230.37 280.899 1216.67 294.513 1203.44 307.679C1121.81 388.82 1076.85 433.518 1004.05 423.942C950.688 424.124 908.969 374.483 883.361 332.803C832.264 279.475 786.948 208.81 748.585 122.656ZM1325.54 -538.444C1310.73 -571.711 1291.36 -602.164 1266.32 -631.533C1201.84 -706.601 1126.61 -756.994 1054.47 -773.433C992.897 -790.566 942.707 -787.085 901.054 -762.784C859.879 -739.806 819.035 -692.631 776.195 -618.57C706.759 -524.399 664.048 -416.707 661.979 -330.539C657.406 -280.949 659.202 -233.354 667.8 -176.279C670.302 -102.328 691.565 -14.0364 729.28 78.9377C735.221 94.0167 741.468 108.929 747.842 123.244C786.276 209.558 831.681 280.358 882.802 333.693C908.466 375.484 950.43 425.402 1004.12 425.218C1077.18 434.828 1122.23 390.049 1204.01 308.756C1217.25 295.592 1230.93 281.983 1246.09 267.224C1264.9 247.39 1282.73 230.772 1298.47 216.109C1358.23 160.421 1397.7 123.63 1398.53 -1.62338C1404.5 -54.1684 1402.95 -130.273 1394.17 -215.83C1386.09 -294.456 1372.99 -368.583 1359.12 -414.116C1352.72 -461.388 1341.72 -502.102 1325.54 -538.444Z" fill="#EDE9F6"/>
<path d="M740.744 93.697C738.018 87.5748 735.309 81.3117 732.692 75.0854C693.173 -16.4536 672.664 -104.576 673.387 -179.758C667.705 -232.23 667.917 -280.241 674.045 -330.965C678.099 -413.56 718.333 -517.137 781.678 -608.089C822.712 -684.612 860.064 -731.458 899.257 -755.56C939.268 -781.293 987.874 -786.043 1047.86 -770.092C1120.93 -754.309 1199.61 -701.183 1263.75 -624.334C1286.73 -596.599 1304.64 -567.991 1318.49 -536.883C1336.15 -497.223 1347.08 -454.003 1352.9 -400.86C1377.88 -311.561 1398.58 -117.855 1386.88 -11.0199C1385.78 110.322 1348.32 148.796 1291.61 207.039C1278.48 220.524 1263.6 235.804 1248.08 253.275C1235.5 266.205 1223.97 278.272 1212.81 289.949C1135.18 371.172 1092.42 415.919 1022.3 408.607C969.323 410.694 925.598 364.325 898.239 325.062C837.237 268.129 782.802 188.15 740.744 93.697ZM1319.23 -537.472C1305.32 -568.712 1287.35 -597.433 1264.28 -625.268C1199.99 -702.289 1121.13 -755.53 1047.9 -771.347C987.752 -787.347 938.981 -782.57 898.817 -756.738C859.505 -732.564 822.054 -685.613 780.973 -608.988C717.536 -517.908 677.216 -414.065 673.156 -331.262C667.014 -280.467 666.803 -232.326 672.495 -179.822C671.767 -104.492 692.323 -16.1126 731.937 75.6453C734.556 81.8759 737.271 88.1484 740.003 94.2834C782.144 188.922 836.681 269.048 897.726 326C925.142 365.376 969.11 411.985 1022.39 409.886C1092.77 417.222 1135.62 372.395 1213.39 291.01C1224.55 279.337 1236.08 267.264 1248.67 254.331C1264.2 236.859 1279.07 221.583 1292.19 208.108C1321.5 178 1344.66 154.225 1361.2 122.149C1379.06 87.5178 1387.26 46.5267 1387.77 -10.7644C1393.29 -61.1706 1392.15 -133.252 1384.53 -213.655C1377.59 -286.943 1366.09 -356.996 1353.76 -401.053C1347.95 -454.244 1336.97 -497.639 1319.23 -537.472Z" fill="#EDE9F6"/>
<path d="M731.501 65.3567C692.321 -22.6303 673.698 -108.275 677.648 -182.321C674.535 -231.366 676.757 -277.145 684.853 -330.855C690.94 -410.266 728.893 -510.127 786.386 -598.052C825.142 -676.247 860.345 -724.273 897.199 -749.251C935.23 -776.18 983.832 -782.436 1041.68 -767.855C1116.96 -752.51 1197.38 -697.892 1262.3 -618C1283.56 -591.675 1300.22 -564.64 1313.26 -535.359C1332.17 -492.895 1343.26 -445.966 1348.16 -387.675C1370.6 -298.865 1387.52 -122.721 1376.63 -19.7013C1375.2 98.7643 1341.34 137.287 1285.25 201.112C1274.31 213.564 1263 226.432 1250.82 241.156C1240.94 251.962 1231.71 262.204 1222.78 272.098C1148.83 354.105 1108.09 399.273 1040.35 394.323C987.71 398.349 941.918 355.26 912.763 318.407C841.527 258.748 780.038 173.844 734.859 72.7971C733.721 70.3047 732.604 67.8336 731.501 65.3567ZM1314.01 -535.949C1300.91 -565.357 1284.18 -592.498 1262.85 -618.92C1197.77 -698.995 1117.17 -753.737 1041.71 -769.114C983.7 -783.739 934.916 -777.45 896.732 -750.411C859.762 -725.354 824.467 -677.219 785.663 -598.922C728.094 -510.89 690.065 -410.785 683.967 -331.201C675.858 -277.426 673.631 -231.533 676.751 -182.462C672.786 -108.235 691.461 -22.301 730.756 65.9463C731.861 68.4275 732.98 70.9028 734.122 73.3927C779.386 174.637 840.999 259.708 912.296 319.402C941.513 356.354 987.539 399.648 1040.45 395.597C1108.46 400.571 1149.28 355.305 1223.38 273.145C1232.31 263.241 1241.54 253.008 1251.43 242.187C1263.61 227.452 1274.92 214.593 1285.86 202.148C1313.88 170.258 1336.02 145.07 1351.85 112.392C1368.93 77.1558 1376.85 36.4968 1377.52 -19.4541C1382.63 -67.7594 1381.92 -135.88 1375.49 -211.183C1369.7 -279.157 1359.81 -345.196 1349.03 -387.826C1344.14 -446.179 1333 -493.298 1314.01 -535.949Z" fill="#EDE9F6"/>
<path d="M728.367 50.7571C691.316 -32.4509 675.35 -114.077 682.195 -185.295C681.443 -229.74 685.654 -274.725 695.856 -331.25C703.936 -407.631 739.528 -503.8 791.074 -588.56C827.957 -669.583 859.988 -717.334 894.977 -743.458C931.534 -771.924 978.732 -779.495 1035.27 -765.976C1112.78 -750.983 1194.93 -694.744 1260.68 -611.666C1280.39 -586.605 1295.96 -560.977 1308.27 -533.33C1328.39 -488.143 1339.54 -437.586 1343.37 -374.227C1362.32 -289.433 1376.49 -126.43 1366.55 -27.8603C1364.82 88.4655 1332.41 129.602 1278.72 197.765C1270.81 207.817 1262.61 218.207 1253.95 229.574C1246.96 237.804 1240.26 245.763 1233.81 253.416C1163.39 336.99 1124.61 383.022 1058.97 380.423C1006.74 386.315 958.843 346.438 927.854 311.955C850.545 253.53 784.742 170.009 737.469 70.3369C734.323 63.8453 731.262 57.2574 728.367 50.7571ZM1309.01 -533.918C1296.65 -561.685 1281.02 -587.414 1261.23 -612.575C1195.33 -695.842 1112.98 -752.215 1035.3 -767.238C978.586 -780.806 931.198 -773.189 894.485 -744.602C859.381 -718.391 827.26 -670.524 790.332 -589.399C738.729 -504.548 703.069 -408.168 694.977 -331.643C684.761 -275.066 680.543 -229.981 681.302 -185.515C674.43 -114.085 690.448 -32.1478 727.626 51.3443C730.528 57.8617 733.596 64.4644 736.75 70.9731C784.11 170.836 850.051 254.531 927.431 312.991C958.486 347.569 1006.61 387.618 1059.1 381.697C1125.01 384.316 1163.87 338.183 1234.43 254.44C1240.88 246.785 1247.58 238.829 1254.59 230.579C1263.26 219.197 1271.45 208.808 1279.36 198.763C1306.23 164.643 1327.46 137.707 1342.63 104.132C1358.97 67.9603 1366.63 27.3318 1367.44 -27.6112C1377.39 -126.268 1363.2 -289.546 1344.24 -374.334C1340.42 -437.774 1329.22 -488.531 1309.01 -533.918Z" fill="#EDE9F6"/>
<path d="M726.439 38.8507C690.99 -40.7571 677.32 -119.318 686.909 -188.345C688.42 -235.211 696.052 -279.487 707.051 -331.574C717.323 -406.146 749.723 -496.231 795.951 -578.787C819.144 -634.53 851.097 -702.858 892.911 -737.273C927.958 -767.272 973.722 -776.177 1028.93 -763.742C1107.43 -749.372 1193.41 -690.112 1258.93 -605.214C1277.25 -581.352 1291.81 -557.05 1303.44 -530.927C1324.99 -482.53 1335.76 -430.102 1338.34 -360.925C1354.09 -278.772 1365 -128.898 1356.15 -36.5354C1354.04 78.6114 1322.78 123.161 1270.98 196.975C1266.4 203.505 1261.67 210.248 1256.79 217.279C1252.89 222.277 1249.08 227.188 1245.35 231.978C1180.46 315.459 1141.29 365.842 1077.38 365.746C1025.64 373.497 975.661 336.903 942.837 304.838C860.768 248.749 788.812 164.488 740.152 67.5317C735.299 58.0386 730.685 48.3878 726.439 38.8507ZM1304.18 -531.515C1292.5 -557.754 1277.88 -582.157 1259.5 -606.111C1228.77 -645.914 1192.52 -681.265 1154.65 -708.346C1112.67 -738.359 1070.39 -757.425 1028.96 -765.007C973.551 -777.486 927.599 -768.533 892.391 -738.398C850.428 -703.859 818.403 -635.387 795.191 -579.592C748.92 -496.964 716.466 -406.703 706.178 -332.018C695.171 -279.898 687.526 -235.542 686.02 -188.643C676.394 -119.375 690.11 -40.4763 725.695 39.439C729.954 49.0016 734.581 58.679 739.445 68.1955C763.706 116.542 793.38 161.472 827.642 201.732C862.355 242.529 900.986 277.58 942.46 305.922C975.351 338.064 1025.56 374.81 1077.53 367.018C1141.71 367.122 1180.96 316.629 1246 232.975C1249.72 228.174 1253.53 223.273 1257.44 218.256C1262.34 211.197 1267.08 204.457 1271.65 197.933C1323.59 123.928 1354.94 79.2569 1357.04 -36.2855C1365.9 -128.739 1354.98 -278.839 1339.23 -360.983C1336.64 -430.262 1325.83 -482.899 1304.18 -531.515Z" fill="#EDE9F6"/>
<path d="M725.161 28.4103C690.939 -48.4429 679.3 -124.643 691.503 -191.945C695.448 -238.997 706.447 -284.388 718.093 -332.442C730.513 -404.438 760.591 -490.836 800.626 -569.532C823.47 -630.017 852.005 -696.519 890.6 -731.573C924.107 -763.101 968.422 -773.326 1022.31 -761.956C1102.93 -747.974 1190.61 -687.115 1256.87 -599.159C1273.92 -576.409 1287.56 -553.33 1298.58 -528.595C1321.24 -477.702 1331.87 -422.007 1333.03 -348.015C1345.43 -268.947 1353.48 -134.287 1345.49 -45.5985C1342.94 70.286 1312.19 119.711 1261.25 201.603L1259.41 204.574L1257.81 206.837C1195.84 294.869 1158.44 348.011 1095.64 350.593C1044.45 360.173 992.374 326.859 957.693 297.228C869.825 242.748 793.508 159.996 742.735 64.1777C736.38 52.3616 730.468 40.3304 725.161 28.4103ZM1299.32 -529.184C1288.26 -554.028 1274.56 -577.203 1257.44 -600.042C1191.03 -688.206 1103.14 -749.208 1022.33 -763.224C968.23 -774.629 923.725 -764.352 890.051 -732.671C851.31 -697.485 822.715 -630.842 799.847 -570.295C759.785 -491.552 729.664 -405.013 717.228 -332.93C705.579 -284.868 694.566 -239.421 690.62 -192.323C678.363 -124.745 690.048 -48.188 724.418 28.9982C729.742 40.9546 735.672 53.023 742.045 64.8707C792.922 160.893 869.393 243.809 957.361 298.345C992.115 328.046 1044.41 361.487 1095.81 351.868C1158.89 349.274 1196.38 296.018 1258.48 207.791L1260.09 205.505L1261.96 202.507C1313.01 120.431 1343.83 70.8941 1346.38 -45.345C1354.38 -134.121 1346.33 -268.971 1333.91 -348.024C1332.76 -422.14 1322.09 -478.056 1299.32 -529.184Z" fill="#EDE9F6"/>
<path d="M724.257 20.707C691.017 -53.9416 681.252 -128.243 696.015 -194.172C701.276 -232.066 711.692 -269.371 722.717 -308.864C724.823 -316.406 726.964 -324.083 729.12 -331.926C743.963 -402.215 771.769 -484.941 805.417 -558.92C826.485 -620.745 852.81 -688.717 888.513 -724.554C920.495 -757.634 963.383 -769.206 1015.99 -758.939C1098.76 -745.407 1188.16 -683.025 1255.14 -592.066C1271.04 -570.371 1283.85 -548.432 1294.28 -524.997C1318.02 -471.697 1328.4 -412.839 1327.96 -334.165C1336.87 -258.97 1342.14 -138.581 1334.98 -53.7606C1332.02 57.1593 1305.44 113.373 1262.03 192.786C1208.83 278.342 1173.2 331.071 1113.77 336.463C1063.15 347.867 1008.95 317.886 972.385 290.73C878.746 238.041 798.07 156.87 745.16 62.1234C737.448 48.4751 730.416 34.5398 724.257 20.707ZM1295.02 -525.585C1284.54 -549.125 1271.69 -571.154 1255.72 -592.94C1188.58 -684.113 1098.96 -746.64 1016 -760.203C963.174 -770.511 920.084 -758.878 887.935 -725.623C852.096 -689.65 825.71 -621.531 804.621 -559.643C770.959 -485.636 743.12 -402.811 728.266 -332.463C726.124 -324.667 723.982 -316.992 721.876 -309.454C710.836 -269.908 700.411 -232.559 695.143 -194.624C688.019 -162.814 686.619 -128.541 690.995 -92.8168C695.603 -55.2124 706.544 -16.8189 723.515 21.2937C729.696 35.1734 736.751 49.151 744.486 62.845C797.505 157.793 878.338 239.129 972.094 291.88C1008.74 319.098 1063.15 349.18 1113.97 337.733C1173.67 332.32 1209.4 279.459 1262.75 193.667C1306.27 114.06 1332.9 57.7089 1335.87 -53.5165C1343.04 -138.401 1337.77 -258.946 1328.86 -334.117C1329.3 -412.953 1318.87 -472.04 1295.02 -525.585Z" fill="#EDE9F6"/>
<path d="M724.097 12.7712C691.605 -60.1972 683.534 -133.052 700.762 -197.907C706.949 -229.416 716.994 -260.389 727.627 -293.182C731.783 -305.998 736.081 -319.254 740.312 -333.028C753.299 -384.349 775.966 -463.633 810.266 -550.089C830.46 -616.518 853.647 -682.966 886.409 -719.395C916.833 -754.04 958.301 -766.924 1009.65 -757.686C1094.6 -744.52 1185.77 -680.469 1253.53 -586.333C1268.2 -565.878 1280.6 -544.367 1290.38 -522.403C1315.19 -466.682 1325.31 -404.673 1323.2 -321.34C1328.18 -256.086 1331.62 -149.266 1324.91 -62.666C1321.63 41.2015 1301.41 102.902 1265.23 180.445C1218.68 268.084 1185.37 314.01 1132.51 321.771C1082.51 334.917 1026.13 308.214 987.638 283.493C888.222 232.544 803.123 152.783 747.977 58.8762C739 43.7124 730.967 28.1997 724.097 12.7712ZM1291.12 -522.991C1281.3 -545.053 1268.85 -566.654 1254.12 -587.191C1222.69 -630.859 1184.57 -669.627 1143.9 -699.31C1099.69 -731.571 1053.26 -752.194 1009.65 -758.955C958.07 -768.234 916.398 -755.275 885.8 -720.432C852.913 -683.861 829.671 -617.274 809.455 -550.763C775.145 -464.291 752.46 -384.945 739.472 -333.616C735.253 -319.887 730.957 -306.638 726.805 -293.824C716.157 -260.994 706.1 -229.982 699.904 -198.432C691.592 -167.139 689.167 -133.479 692.714 -98.4346C696.45 -61.5233 706.758 -23.9119 723.354 13.3591C730.25 28.8453 738.312 44.4097 747.317 59.6243C802.582 153.735 887.839 233.652 987.389 284.67C1025.97 309.444 1082.55 336.233 1132.73 323.029C1158.96 319.189 1181.58 305.394 1203.88 279.632C1226.29 253.747 1246.97 217.059 1265.98 181.265C1302.25 103.526 1322.52 41.6808 1325.8 -62.4222C1332.52 -149.075 1329.08 -256.008 1324.09 -321.234C1326.22 -404.761 1316.05 -467.014 1291.12 -522.991Z" fill="#EDE9F6"/>
<path d="M723.827 6.48853C691.99 -65.0095 685.554 -136.585 705.218 -200.506C712.11 -227.245 722.025 -253.563 732.52 -281.426C738.707 -297.852 745.109 -314.842 751.248 -332.858C755.03 -345.458 758.938 -358.647 762.996 -372.337C778.092 -423.275 795.203 -481.005 814.923 -539.794C836.002 -618.274 855.836 -677.681 884.141 -712.633C912.996 -748.827 953.021 -763.044 1003.1 -754.878C1088.88 -742.355 1184.06 -675.126 1251.51 -579.433C1265.24 -559.893 1276.91 -539.404 1286.2 -518.534C1312.38 -459.738 1321.85 -396.687 1317.86 -307.708C1318.75 -277.179 1321.13 -170.098 1314.16 -71.0677C1310.65 21.8613 1297.18 91.2239 1267.66 168.383C1239.51 233.556 1205.82 295.509 1150.49 307.29C1111.46 319.065 1060.2 308.46 1002.24 276.624C897.154 227.618 807.709 149.417 750.365 56.4287C740.215 40.0406 731.286 23.2402 723.827 6.48853ZM1286.95 -519.123C1277.61 -540.084 1265.89 -560.661 1252.11 -580.278C1220.45 -625.197 1181.73 -665.067 1140.14 -695.585C1095.01 -728.707 1047.62 -749.647 1003.1 -756.147C952.77 -764.352 912.532 -750.047 883.507 -713.634C855.082 -678.542 835.202 -619.006 814.09 -540.41C794.375 -481.64 777.261 -423.896 762.162 -372.947C758.105 -359.26 754.195 -346.073 750.424 -333.498C744.298 -315.527 737.902 -298.548 731.718 -282.13C721.21 -254.228 711.283 -227.878 704.379 -201.097C694.889 -170.253 691.468 -137.131 694.216 -102.671C697.109 -66.3669 706.823 -29.4441 723.085 7.07624C730.573 23.894 739.536 40.7603 749.722 57.206C807.189 150.392 896.794 228.745 1002.02 277.818C1060.14 309.734 1111.58 320.371 1150.75 308.548C1175.05 303.373 1196.48 288.744 1216.21 263.816C1233.23 242.329 1249.83 212.24 1268.45 169.117C1298.04 91.7706 1311.54 22.2673 1315.06 -70.8272C1322.03 -169.901 1319.65 -277.059 1318.75 -307.542C1322.76 -396.755 1313.25 -460.056 1286.95 -519.123Z" fill="#EDE9F6"/>
<path d="M723.77 0.67584C692.897 -68.659 687.876 -141.15 709.635 -203.445C717.078 -226.491 726.964 -249.233 737.431 -273.314C745.687 -292.309 754.227 -311.954 762.189 -333.161C780.653 -385.596 797.694 -448.822 815.739 -515.755L819.627 -530.175C835.474 -597.906 853.341 -667.311 881.978 -706.711C909.271 -744.497 947.894 -760.054 996.772 -752.943C1084.73 -740.852 1181.74 -671.981 1249.95 -573.205C1262.82 -554.51 1273.83 -534.955 1282.68 -515.085C1316.91 -438.218 1317.24 -360.425 1313.05 -294.47C1312.1 -253.37 1309.66 -170.859 1303.95 -79.6228C1300.57 -4.45328 1294.18 76.1528 1270.6 156.412C1244.65 236.988 1212.33 280.399 1168.88 293.015C1129.85 306.319 1078.79 298.546 1017.1 269.918C906.284 222.862 812.413 146.147 752.772 53.9082C741.498 36.4849 731.741 18.5757 723.77 0.67584ZM1283.42 -515.673C1274.54 -535.631 1263.48 -555.271 1250.55 -574.044C1182.18 -673.055 1084.93 -742.094 996.754 -754.214C947.623 -761.363 908.779 -745.704 881.315 -707.681C852.554 -668.109 834.649 -598.567 818.775 -530.731L814.893 -516.332C796.859 -449.422 779.822 -386.226 761.379 -333.851C753.435 -312.683 744.902 -293.056 736.65 -274.075C726.173 -249.964 716.274 -227.194 708.816 -204.102C698.164 -173.605 693.77 -140.894 695.758 -106.883C697.855 -71.0459 707.029 -34.6605 723.026 1.26517C731.029 19.2376 740.827 37.2207 752.144 54.709C811.913 147.14 905.951 224.006 1016.93 271.137C1078.77 299.833 1130 307.619 1169.17 294.27C1212.87 281.575 1245.37 237.97 1271.43 157.034C1295.06 76.6043 1301.46 -4.11779 1304.85 -79.3762C1310.55 -170.628 1313 -253.163 1313.95 -294.238C1318.15 -360.383 1317.81 -438.445 1283.42 -515.673Z" fill="#EDE9F6"/>
<path d="M723.951 -4.59188C693.514 -72.9461 690.03 -144.561 714.14 -206.247C722.007 -226.295 731.891 -246.146 742.352 -267.162C752.743 -288.026 763.485 -309.603 773.218 -333.298C792.099 -379.273 807.412 -435.213 824.417 -520.343C838.876 -592.548 854.001 -660.658 879.899 -700.523C905.618 -739.896 942.829 -756.791 990.506 -750.742C1080.63 -739.103 1179.44 -668.616 1248.39 -566.791C1260.48 -548.907 1270.87 -530.24 1279.3 -511.311C1314.82 -431.554 1313.85 -350.195 1308.21 -281.131C1307.29 -269.891 1306.32 -258.382 1305.32 -246.584C1301.34 -199.563 1296.83 -146.269 1293.7 -88.1525C1292.96 -74.3877 1292.29 -60.1498 1291.64 -46.3772C1288.61 17.9461 1285.48 84.4543 1273.5 144.409C1259.36 215.083 1228.73 262.765 1187.25 278.668C1148.82 293.284 1096.58 288.073 1031.98 263.176C915.468 218.131 817.188 142.94 755.235 51.4433C742.887 33.1512 732.362 14.2966 723.951 -4.59188ZM1280.05 -511.901C1271.58 -530.913 1261.14 -549.661 1249 -567.621C1179.89 -669.69 1080.83 -740.347 990.479 -752.014C942.534 -758.1 905.098 -741.087 879.209 -701.449C853.199 -661.409 838.036 -593.159 823.55 -520.824C806.562 -435.788 791.275 -379.926 772.427 -334.037C762.712 -310.382 751.98 -288.825 741.599 -267.977C731.124 -246.939 721.23 -227.066 713.343 -206.962C701.539 -176.759 696.191 -144.401 697.446 -110.771C698.775 -75.3379 707.44 -39.4155 723.208 -4.00354C731.657 14.9703 742.228 33.9039 754.623 52.2717C785.472 97.8303 825.458 139.508 873.475 176.153C921.108 212.503 974.387 242.191 1031.84 264.407C1096.6 289.362 1148.99 294.576 1187.58 279.908C1229.33 263.9 1260.16 215.948 1274.37 144.885C1286.37 84.8181 1289.51 18.2392 1292.54 -46.1446C1293.19 -59.9125 1293.86 -74.1448 1294.6 -87.9011C1297.72 -145.999 1302.23 -199.275 1306.21 -246.289C1307.21 -258.077 1308.18 -269.598 1309.11 -280.837C1314.76 -350.136 1315.73 -431.773 1280.05 -511.901Z" fill="#EDE9F6"/>
<path d="M732.639 -13.4746C702.335 -81.5284 698.27 -151.528 721.195 -210.58C729.307 -231.504 739.49 -251.823 750.271 -273.332C759.867 -292.479 769.79 -312.278 778.991 -333.991C783.278 -344.191 787.519 -355.27 791.596 -366.918C805.117 -405.546 817.124 -450.971 830.53 -514.203C845.311 -583.502 860.699 -648.881 886.341 -687.274C911.749 -725.15 948.072 -741.458 994.301 -735.748C1047.59 -729.213 1102.62 -701.691 1153.45 -656.162C1186.21 -627.344 1217.12 -591.368 1242.84 -552.119C1254.25 -534.913 1264.15 -516.958 1272.25 -498.759C1294.03 -449.857 1304.42 -396.82 1304.95 -331.857C1305.06 -314.045 1304.43 -295.055 1303.02 -273.812C1301.99 -257.1 1300.85 -239.986 1299.64 -221.866C1296.94 -181.249 1293.87 -135.222 1291.6 -86.1122C1291.25 -78.0803 1290.91 -69.993 1290.57 -61.8588C1288.26 -6.5411 1285.88 50.6646 1277.88 104.075C1275.99 116.762 1273.82 128.939 1271.44 140.261C1257.21 208.414 1227.08 254.625 1186.58 270.386C1148.78 285.032 1097.87 280.509 1035.29 256.957C993.227 241.593 951.488 219.386 911.235 190.957C883.115 171.351 856.183 148.89 831.191 124.201C806.115 99.3841 784.715 73.4251 763.842 42.4949C751.572 24.2958 741.072 5.46369 732.639 -13.4746ZM1273 -499.346C1264.86 -517.627 1254.92 -535.66 1243.46 -552.932C1217.68 -592.277 1186.69 -628.339 1153.85 -657.221C1102.9 -702.87 1047.71 -730.468 994.273 -737.023C947.782 -742.767 911.238 -726.342 885.657 -688.211C859.898 -649.644 844.475 -584.134 829.667 -514.701C816.272 -451.53 804.28 -406.16 790.783 -367.592C786.713 -355.969 782.483 -344.916 778.207 -334.74C769.02 -313.063 759.106 -293.283 749.519 -274.154C738.723 -252.617 728.53 -232.275 720.397 -211.294C697.316 -151.838 701.399 -81.3734 731.895 -12.8861C740.366 6.1375 750.909 25.0457 763.227 43.3171C784.152 74.3213 805.607 100.35 830.74 125.222C855.776 149.955 882.751 172.45 910.918 192.09C951.231 220.56 993.036 242.804 1035.16 258.195C1097.9 281.805 1148.96 286.322 1186.92 271.622C1227.67 255.753 1258 209.281 1272.31 140.756C1274.69 129.402 1276.86 117.197 1278.76 104.484C1286.77 50.9846 1289.16 -6.2636 1291.47 -61.6337C1291.81 -69.7666 1292.15 -77.8561 1292.5 -85.8828C1294.77 -134.973 1297.7 -179.01 1300.53 -221.601C1301.74 -239.72 1302.89 -256.834 1303.91 -273.548C1305.33 -294.835 1305.96 -313.861 1305.85 -331.714C1305.32 -396.943 1294.88 -450.207 1273 -499.346Z" fill="#EDE9F6"/>
<path d="M741.117 -22.8237C711.002 -90.4552 706.374 -158.741 728.087 -215.101C736.451 -236.946 746.94 -257.707 758.045 -279.689C766.83 -297.078 775.915 -315.057 784.53 -334.744C788.747 -344.532 792.953 -355.194 797.036 -366.442C810.577 -403.745 822.7 -447.385 836.34 -507.938C851.415 -574.259 867.044 -636.839 892.405 -673.725C917.481 -710.062 952.874 -725.766 997.607 -720.394C1050.28 -714.275 1103.56 -686.697 1151.68 -640.649C1182.61 -612.106 1211.15 -577.319 1236.53 -537.238C1247.26 -520.749 1256.63 -503.55 1264.39 -486.123C1285.69 -438.302 1296.36 -386.409 1297.99 -322.806C1298.37 -305.477 1298.05 -287.079 1297.03 -266.553C1296.06 -242.567 1294.83 -217.478 1293.53 -190.92C1291.88 -157.134 1290.17 -122.204 1288.73 -84.3189L1288.59 -80.2824C1286.57 -19.8626 1284.48 42.6092 1275.22 100.663C1273.28 112.882 1271.07 124.656 1268.64 135.635C1254.34 201.195 1224.74 245.89 1185.28 261.482C1148.14 276.14 1098.63 272.317 1038.14 250.128C997.287 236.068 957.344 214.201 916.015 183.284C889.12 163.644 863.566 141.386 837.889 115.25C814.633 91.4935 795.001 66.9261 772.252 33.1074C760.056 15.0017 749.582 -3.81522 741.117 -22.8237ZM1265.14 -486.712C1257.34 -504.216 1247.93 -521.485 1237.16 -538.039C1211.72 -578.208 1183.11 -613.083 1152.11 -641.686C1103.86 -687.868 1050.42 -715.532 997.574 -721.669C952.586 -727.068 916.974 -711.259 891.727 -674.672C866.255 -637.623 850.589 -574.907 835.483 -508.454C821.856 -447.964 809.748 -404.376 796.227 -367.13C792.154 -355.906 787.954 -345.266 783.748 -335.502C775.149 -315.85 766.073 -297.884 757.295 -280.513C746.176 -258.508 735.673 -237.716 727.288 -215.812C716.611 -188.098 712.247 -157.336 714.317 -124.376C716.434 -90.6752 725.202 -56.3098 740.375 -22.2358C748.876 -3.14417 759.396 15.7517 771.641 33.9318C794.44 67.8235 814.114 92.447 837.428 116.256C863.147 142.437 888.742 164.731 915.678 184.405C957.077 215.376 997.097 237.28 1038.02 251.364C1098.67 273.612 1148.33 277.435 1185.61 262.717C1225.33 247.022 1255.12 202.072 1269.5 136.142C1271.94 125.131 1274.15 113.337 1276.1 101.08C1285.37 42.9304 1287.46 -19.5993 1289.49 -80.0773L1289.62 -84.0993C1291.06 -121.968 1292.78 -156.901 1294.43 -190.683C1295.73 -217.246 1296.96 -242.334 1297.92 -266.326C1298.95 -286.877 1299.27 -305.317 1298.89 -322.695C1297.25 -386.551 1286.53 -438.669 1265.14 -486.712Z" fill="#EDE9F6"/>
<path d="M749.522 -32.3468C719.996 -98.6531 714.663 -167.061 734.889 -220.034C743.527 -242.916 754.353 -264.138 765.815 -286.609C773.792 -302.248 782.038 -318.411 790.024 -336.082C794.176 -345.488 798.354 -355.755 802.44 -366.6C816.011 -402.63 828.254 -444.551 842.135 -502.527C857.504 -565.971 873.374 -625.852 898.483 -661.29C923.252 -696.141 957.763 -711.245 1001.05 -706.187C1053.18 -700.449 1104.79 -672.748 1150.28 -626.074C1178.94 -598.232 1206.01 -563.584 1230.74 -523.092C1240.79 -507.311 1249.64 -490.863 1257.06 -474.2C1277.92 -427.357 1288.92 -376.482 1291.68 -314.089C1292.33 -297.201 1292.34 -279.357 1291.7 -259.539C1291.09 -224.958 1289.88 -187.674 1288.6 -148.203C1287.91 -127.084 1287.21 -105.249 1286.54 -82.4574C1285.23 -23.1282 1283.12 39.6399 1273.28 97.6155C1271.29 109.43 1269.03 120.807 1266.56 131.447C1252.19 194.517 1223.09 237.756 1184.62 253.19C1148.09 267.87 1099.92 264.713 1041.42 243.816C1001.37 230.852 963.133 209.297 921.06 175.969C895.812 156.627 870.849 133.908 844.729 106.493C820.289 80.7309 802.745 56.649 780.695 23.7563C768.536 5.679 758.049 -13.1955 749.522 -32.3468ZM1257.8 -474.788C1250.35 -491.521 1241.46 -508.036 1231.38 -523.875C1206.59 -564.45 1179.46 -599.183 1150.74 -627.092C1105.1 -673.913 1053.32 -701.707 1001.01 -707.461C957.476 -712.549 922.752 -697.337 897.815 -662.246C872.589 -626.652 856.677 -566.641 841.281 -503.07C827.413 -445.148 815.186 -403.277 801.638 -367.306C797.559 -356.481 793.39 -346.238 789.25 -336.853C781.275 -319.216 773.037 -303.06 765.069 -287.44C753.589 -264.937 742.748 -243.683 734.087 -220.742C713.709 -167.372 719.063 -98.489 748.777 -31.7576C757.342 -12.523 767.875 6.4306 780.081 24.5802C802.169 57.5294 819.753 81.661 844.254 107.491C870.415 134.945 895.42 157.706 920.703 177.068C962.856 210.464 1001.18 232.065 1041.31 245.055C1099.95 266.013 1148.28 269.162 1184.95 254.423C1223.68 238.88 1252.97 195.396 1267.42 131.968C1269.89 121.308 1272.16 109.894 1274.15 98.0529C1284.01 39.9654 1286.12 -22.8734 1287.44 -82.2606C1288.1 -105.041 1288.81 -126.878 1289.5 -147.994C1290.78 -187.472 1291.99 -224.762 1292.59 -259.34C1293.23 -279.195 1293.22 -297.081 1292.58 -314.01C1289.8 -376.647 1278.76 -427.733 1257.8 -474.788Z" fill="#EDE9F6"/>
<path d="M757.286 -41.4068C728.004 -107.167 722.175 -173.772 741.296 -224.149C750.257 -248.132 761.471 -269.799 773.341 -292.739C780.516 -306.604 787.936 -320.943 795.267 -336.571C799.361 -345.577 803.52 -355.441 807.627 -365.898C821.271 -400.63 833.682 -440.807 847.87 -496.177C862.972 -554.285 879.794 -613.86 904.693 -647.826C929.202 -681.199 962.854 -695.756 1004.71 -691.094C1056.31 -685.843 1106.23 -658.141 1149.07 -610.985C1175.4 -584.018 1200.96 -549.606 1225.05 -508.691C1234.39 -493.684 1242.7 -478.058 1249.74 -462.236C1270.14 -416.437 1281.43 -366.62 1285.28 -305.465C1286.19 -289.054 1286.49 -271.788 1286.22 -252.674C1286.5 -200.567 1285.3 -142.467 1284.03 -80.9543C1283.42 -26.9734 1281.37 36.0249 1270.82 94.0308C1268.77 105.417 1266.45 116.398 1263.92 126.686C1249.42 187.226 1220.76 229.014 1183.23 244.346C1147.3 259.106 1100.44 256.709 1043.94 237.227C1004.46 225.348 967.894 204.204 925.366 168.669C901.541 149.586 877.872 127.124 850.879 97.9886C826.172 71.171 810.129 47.1813 789.812 16.8053L788.51 14.8539C776.384 -3.17686 765.881 -22.1053 757.286 -41.4068ZM1250.49 -462.824C1243.41 -478.715 1235.07 -494.406 1225.7 -509.457C1201.56 -550.453 1175.94 -584.951 1149.55 -611.975C1106.57 -659.297 1056.46 -687.098 1004.67 -692.367C962.571 -697.059 928.708 -682.402 904.034 -648.8C879.02 -614.673 862.153 -554.965 847.022 -496.738C832.848 -441.423 820.453 -401.297 806.832 -366.617C802.729 -356.18 798.581 -346.335 794.498 -337.357C787.183 -321.755 779.767 -307.429 772.596 -293.572C760.708 -270.601 749.477 -248.9 740.493 -224.852C721.221 -174.079 727.072 -107.001 756.543 -40.8181C765.174 -21.4333 775.72 -2.42333 787.895 15.6784L789.196 17.6277C809.544 48.0486 825.614 72.0746 850.391 98.9721C877.425 128.154 901.128 150.644 924.989 169.755C967.61 205.373 1004.27 226.561 1043.84 238.472C1100.48 258.003 1147.5 260.391 1183.58 245.576C1221.35 230.141 1250.19 188.108 1264.78 127.227C1267.31 116.912 1269.63 105.89 1271.69 94.4795C1282.26 36.3579 1284.32 -26.7253 1284.93 -80.7752C1286.2 -142.289 1287.4 -200.405 1287.11 -252.525C1287.39 -271.652 1287.09 -288.961 1286.18 -305.422C1282.31 -366.814 1270.97 -416.827 1250.49 -462.824Z" fill="#EDE9F6"/>
<path d="M765.78 -50.7219C736.749 -115.917 730.385 -180.689 748.319 -228.437C757.577 -253.583 769.157 -275.642 781.418 -298.995C787.762 -311.075 794.32 -323.561 800.908 -337.133C804.992 -345.868 808.998 -355.062 813.161 -365.243C826.811 -398.637 839.325 -437.054 853.734 -489.8C869.085 -545.073 886.137 -601.759 910.768 -634.247C934.94 -666.088 967.665 -680.03 1008.03 -675.674C1059.02 -670.805 1107.2 -643.005 1147.37 -595.273C1171.68 -568.877 1195.06 -535.593 1218.88 -493.498C1227.5 -479.295 1235.24 -464.518 1241.9 -449.563C1261.86 -404.735 1273.5 -355.912 1278.53 -295.921C1279.72 -279.973 1280.34 -263.281 1280.45 -244.891C1281.85 -199.412 1282.15 -148.103 1281.43 -78.5093C1281.52 -8.68701 1277.41 45.2948 1268.49 91.3759C1266.4 102.333 1264.04 112.916 1261.47 122.846C1246.92 180.821 1218.8 221.098 1182.31 236.271C1147.53 250.822 1100.78 249.043 1047.13 231.123C997.784 217.272 958.851 186.698 930.448 161.611C901.957 137.649 876.676 110.515 857.837 89.553C836.811 66.0047 822.883 44.8866 806.76 20.4349C803.673 15.7542 800.487 10.9238 797.136 5.89772C785.02 -12.156 774.471 -31.2043 765.78 -50.7219ZM1242.64 -450.153C1235.96 -465.169 1228.18 -480.005 1219.54 -494.245C1195.68 -536.416 1172.23 -569.78 1147.88 -596.234C1107.56 -644.144 1059.18 -672.062 1007.99 -676.95C967.385 -681.326 934.451 -667.289 910.117 -635.227C885.37 -602.587 868.279 -545.775 852.892 -490.387C838.495 -437.692 826 -399.324 812.372 -365.981C808.217 -355.819 804.219 -346.642 800.144 -337.932C793.569 -324.387 787.015 -311.905 780.678 -299.836C768.397 -276.446 756.796 -254.357 747.513 -229.133C729.432 -180.997 735.818 -115.752 765.037 -50.1339C773.765 -30.533 784.357 -11.4032 796.522 6.71603C799.87 11.7412 803.054 16.5707 806.139 21.2438C822.294 45.7426 836.245 66.9008 857.336 90.5185C876.204 111.512 901.518 138.686 930.051 162.685C958.52 187.826 997.551 218.476 1047.04 232.371C1100.83 250.341 1147.73 252.113 1182.65 237.498C1219.39 222.234 1247.69 181.711 1262.32 123.405C1264.89 113.448 1267.26 102.834 1269.36 91.8478C1278.29 45.6573 1282.42 -8.41857 1282.33 -78.3516C1283.05 -147.963 1282.75 -199.285 1281.35 -244.772C1281.24 -263.179 1280.61 -279.914 1279.43 -295.906C1274.38 -356.127 1262.69 -405.137 1242.64 -450.153Z" fill="#EDE9F6"/>
<path d="M774.046 -60.5503C745.765 -124.063 738.769 -188.52 755.326 -232.98C764.911 -259.364 776.91 -281.769 789.611 -305.489C795.128 -315.792 800.831 -326.447 806.648 -337.968C810.661 -346.29 814.64 -355.087 818.822 -364.869C832.325 -396.493 845.361 -434.253 859.844 -483.705C875.489 -536.134 892.814 -589.922 917.233 -620.956C941.108 -651.289 972.936 -664.648 1011.83 -660.663C1062.24 -656.243 1108.7 -628.418 1146.19 -580.193C1168.34 -554.598 1189.62 -522.478 1213.19 -479.081C1221.06 -465.754 1228.21 -451.905 1234.45 -437.899C1253.98 -394.048 1265.96 -346.197 1272.16 -287.308C1273.61 -271.838 1274.55 -255.727 1275.02 -238.057C1277.74 -190.208 1279.05 -137.564 1279.04 -77.0976C1279.93 -13.1317 1275.62 42.2843 1266.24 87.6252C1264.1 98.1417 1261.68 108.332 1259.06 117.91C1244.42 173.316 1216.8 212.105 1181.28 227.144C1147.12 241.75 1101.78 240.717 1050.14 224.155C1002.13 211.723 965.16 181.649 935.332 153.871C909.689 131.269 886.184 105.284 864.606 80.5752C846.105 59.2339 834.234 40.7688 820.489 19.3929C815.828 12.1385 811.005 4.64263 805.602 -3.48262C793.469 -21.5751 782.853 -40.7733 774.046 -60.5503ZM1235.2 -438.488C1228.93 -452.554 1221.75 -466.456 1213.86 -479.806C1190.26 -523.276 1168.92 -555.475 1146.73 -581.116C1109.08 -629.547 1062.41 -657.5 1011.78 -661.939C972.661 -665.948 940.634 -652.495 916.592 -621.952C892.059 -590.771 874.692 -536.86 859.01 -484.314C844.541 -434.913 831.522 -397.198 818.038 -365.622C813.867 -355.857 809.893 -347.076 805.893 -338.782C800.089 -327.282 794.387 -316.634 788.874 -306.337C776.15 -282.579 764.134 -260.137 754.52 -233.672C745.972 -210.724 743.455 -183.36 747.038 -152.349C750.444 -122.847 759.528 -90.8992 773.303 -59.9622C782.147 -40.1021 792.806 -20.8223 804.986 -2.66529C810.386 5.4557 815.203 12.9477 819.861 20.1936C833.635 41.6156 845.529 60.1195 864.094 81.5293C885.702 106.274 909.235 132.286 934.916 154.924C964.82 182.772 1001.9 212.93 1050.07 225.399C1101.83 242.008 1147.33 243.035 1181.63 228.37C1217.38 213.233 1245.18 174.209 1259.9 118.485C1262.53 108.881 1264.95 98.6553 1267.1 88.1137C1276.5 42.6627 1280.83 -12.8839 1279.94 -76.9532C1279.95 -137.453 1278.63 -190.126 1275.92 -237.98C1275.45 -255.662 1274.51 -271.82 1273.05 -287.335C1266.82 -346.441 1254.8 -394.463 1235.2 -438.488Z" fill="#EDE9F6"/>
<path d="M782.387 -70.2109C754.454 -132.942 746.997 -195.406 762.438 -237.307C772.355 -264.999 784.21 -286.643 797.936 -311.709C802.625 -320.269 807.476 -329.122 812.468 -338.638C816.426 -346.577 820.377 -354.983 824.557 -364.341C838.086 -394.644 851.253 -430.609 865.998 -477.519C881.919 -527.133 899.49 -578.051 923.705 -607.647C947.288 -636.481 978.222 -649.254 1015.65 -645.605C1065.48 -641.603 1110.24 -613.702 1145.09 -564.92C1170.55 -533.464 1191.88 -494.654 1207.63 -464.356C1214.74 -451.966 1221.27 -439.118 1227.06 -426.13C1246.19 -383.158 1258.56 -336.153 1266 -278.202C1267.73 -263.199 1268.98 -247.653 1269.83 -230.697C1273.99 -181.344 1276.32 -130.436 1276.95 -75.0342C1278.58 -15.3516 1274.22 39.8546 1264.33 84.6396C1262.14 94.7306 1259.67 104.524 1257.01 113.76C1242.3 166.615 1215.17 203.935 1180.63 218.836C1138.24 237.351 1088.09 228.549 1053.49 217.918C1006.51 206.743 971.418 177.105 940.498 146.747C916.489 124.529 895.1 99.8014 871.62 72.1139C854.922 52.2702 844.57 35.6128 832.582 16.3237C826.989 7.32252 821.202 -1.98704 814.264 -12.4485C802.073 -30.6487 791.349 -50.0844 782.387 -70.2109ZM1227.8 -426.715C1221.99 -439.755 1215.44 -452.655 1208.32 -465.061C1192.55 -495.394 1171.17 -534.287 1145.65 -565.813C1110.65 -614.812 1065.67 -642.859 1015.6 -646.881C977.95 -650.551 946.817 -637.689 923.075 -608.655C898.746 -578.919 881.126 -527.883 865.17 -478.157C850.442 -431.291 837.29 -395.371 823.784 -365.114C819.609 -355.769 815.664 -347.379 811.722 -339.467C806.739 -329.97 801.892 -321.12 797.205 -312.564C783.454 -287.456 771.576 -265.776 761.632 -237.994C746.045 -195.712 753.527 -132.768 781.644 -69.6228C790.644 -49.411 801.411 -29.8994 813.648 -11.629C820.573 -1.18639 826.351 8.11295 831.94 17.1056C843.959 36.4429 854.337 53.1401 871.094 73.0527C894.604 100.779 916.019 125.531 940.062 147.782C971.069 178.224 1006.27 207.954 1053.43 219.17C1088.11 229.834 1138.42 238.648 1180.99 220.067C1215.75 205.064 1243.05 167.521 1257.85 114.356C1260.52 105.092 1262.99 95.2614 1265.19 85.1461C1275.11 40.2395 1279.48 -15.1113 1277.84 -74.9203C1277.22 -130.348 1274.89 -181.297 1270.72 -230.669C1269.88 -247.632 1268.62 -263.215 1266.89 -278.272C1259.43 -336.417 1247 -383.584 1227.8 -426.715Z" fill="#EDE9F6"/>
<path d="M789.783 -80.1015C762.232 -141.974 754.335 -202.416 768.66 -241.778C778.89 -270.827 791.162 -292.656 805.369 -317.927C809.235 -324.805 813.231 -331.916 817.371 -339.496C821.264 -347.045 825.185 -355.062 829.37 -364.015C842.907 -392.995 856.197 -427.177 871.2 -471.592C887.368 -518.41 905.167 -566.475 929.19 -594.647C952.475 -621.989 982.524 -634.163 1018.5 -630.83C1067.76 -627.208 1110.84 -599.185 1143.07 -549.789C1163.7 -522.338 1181.23 -489.907 1201.21 -449.646C1207.52 -438.298 1213.38 -426.542 1218.67 -414.675C1237.46 -372.472 1250.3 -326.161 1259.07 -268.935C1261.08 -254.371 1262.65 -239.381 1263.86 -223.127C1269.55 -173.266 1272.91 -124.054 1274.14 -72.6402C1276.53 -15.9459 1272.26 37.5554 1261.77 82.1019C1259.53 91.7757 1257.03 101.177 1254.31 110.062C1239.55 160.41 1212.93 196.265 1179.36 211.021C1137.73 229.585 1089.4 221.85 1056.19 212.092C1012.56 202.595 980.175 176.362 944.964 139.901C922.46 118.007 902.264 93.4592 880.883 67.4689L877.884 63.8231C862.53 45.017 853.349 29.6371 842.72 11.8241C836.598 1.56797 830.271 -9.03713 822.131 -21.3476C809.834 -39.7449 798.951 -59.5108 789.783 -80.1015ZM1219.41 -415.261C1214.11 -427.171 1208.22 -438.97 1201.91 -450.33C1181.91 -490.636 1164.34 -523.134 1143.67 -550.634C1111.27 -600.278 1067.96 -628.465 1018.44 -632.105C982.255 -635.458 952.014 -623.202 928.572 -595.675C904.433 -567.365 886.589 -519.183 870.382 -472.257C855.395 -427.886 842.119 -393.744 828.604 -364.807C824.427 -355.866 820.51 -347.867 816.632 -340.344C812.502 -332.78 808.507 -325.667 804.642 -318.796C790.407 -293.475 778.113 -271.608 767.848 -242.462C753.384 -202.718 761.305 -141.798 789.04 -79.5135C798.245 -58.8416 809.17 -38.9974 821.512 -20.5287C829.631 -8.25283 835.95 2.3352 842.062 12.5789C852.722 30.4402 861.931 45.8697 877.345 64.7503L880.351 68.3988C901.754 94.4181 921.972 118.992 944.506 140.91C979.829 177.494 1012.34 203.821 1056.14 213.349C1089.43 223.132 1137.92 230.882 1179.72 212.249C1213.51 197.391 1240.3 161.32 1255.14 110.677C1257.87 101.769 1260.39 92.3323 1262.63 82.6304C1273.14 37.949 1277.43 -15.7105 1275.04 -72.5493C1273.8 -123.999 1270.44 -173.265 1264.75 -223.147C1263.54 -239.405 1261.96 -254.431 1259.95 -269.046C1251.14 -326.456 1238.27 -372.911 1219.41 -415.261Z" fill="#EDE9F6"/>
<path d="M797.754 -90.5925C770.722 -151.298 762.486 -209.503 775.729 -246.288C786.264 -276.641 798.957 -298.496 813.651 -323.805C816.712 -329.077 819.881 -334.537 823.164 -340.291C826.996 -347.45 830.891 -355.066 835.08 -363.596C848.625 -391.199 862.057 -423.56 877.345 -465.442C893.78 -509.398 911.822 -554.558 935.677 -581.298C958.674 -607.13 987.82 -618.721 1022.3 -615.749C1070.98 -612.575 1112.32 -584.533 1141.88 -534.652C1161.08 -507.001 1176.87 -474.626 1195.51 -435.176C1200.94 -425.052 1206.06 -414.588 1210.75 -404.041C1229.21 -362.604 1242.53 -316.924 1252.68 -260.278C1254.97 -246.179 1256.85 -231.775 1258.42 -216.261C1265.61 -166.566 1269.96 -119.125 1271.74 -71.2119C1274.78 -18.0934 1270.43 35.0134 1259.51 78.3527C1257.23 87.5933 1254.66 96.5997 1251.9 105.119C1237.07 152.882 1210.95 187.246 1178.35 201.885C1137.49 220.524 1091.02 213.923 1059.23 205.103C1016.31 196.689 984.481 169.853 949.889 132.148C930.328 112.157 912.682 89.9834 894 66.5044C890.929 62.6472 887.837 58.7609 884.703 54.8441C870.408 36.822 861.792 21.716 852.673 5.72548C846.317 -5.41864 839.746 -16.9417 830.652 -30.7229C818.218 -49.3516 807.149 -69.492 797.754 -90.5925ZM1211.5 -404.632C1206.79 -415.213 1201.65 -425.709 1196.22 -435.834C1177.56 -475.316 1161.75 -507.749 1142.51 -535.448C1112.79 -585.608 1071.19 -613.834 1022.25 -617.023C987.554 -620.014 958.222 -608.343 935.069 -582.338C911.102 -555.469 893.014 -510.204 876.538 -466.137C861.266 -424.296 847.85 -391.968 834.323 -364.406C830.14 -355.892 826.252 -348.284 822.431 -341.151C819.16 -335.412 815.99 -329.958 812.93 -324.686C798.205 -299.328 785.49 -277.426 774.915 -246.968C761.537 -209.8 769.797 -151.12 797.011 -90.0046C806.443 -68.8229 817.554 -48.601 830.033 -29.9065C839.097 -16.168 845.658 -4.66627 852.002 6.4535C861.15 22.4957 869.794 37.6492 884.156 55.7539C887.29 59.6762 890.382 63.5569 893.451 67.4154C912.155 90.92 929.822 113.127 949.41 133.142C984.122 170.977 1016.08 197.914 1059.18 206.356C1091.05 215.202 1137.68 221.823 1178.71 203.109C1211.52 188.374 1237.81 153.801 1252.72 105.759C1255.5 97.2158 1258.07 88.1754 1260.36 78.9C1271.32 35.4132 1275.68 -17.871 1272.63 -71.15C1270.86 -119.111 1266.5 -166.611 1259.31 -216.328C1257.74 -231.845 1255.86 -246.286 1253.55 -260.439C1243.37 -317.248 1230.01 -363.062 1211.5 -404.632Z" fill="#EDE9F6"/>
<path d="M805.731 -101.069C778.887 -161.354 770.566 -215.859 782.905 -250.606C793.698 -282.206 806.155 -302.896 821.93 -329.092C824.226 -332.902 826.591 -336.833 829.036 -340.932C832.817 -347.719 836.683 -354.946 840.862 -363.03C854.398 -389.247 867.958 -419.804 883.534 -459.204C899.469 -498.513 918.461 -542.585 942.17 -567.911C964.874 -592.237 993.124 -603.235 1026.13 -600.602C1074.21 -597.841 1113.84 -569.726 1140.76 -519.3C1157.31 -493.274 1171.22 -462.197 1185.94 -429.293L1189.93 -420.373C1194.4 -411.709 1198.67 -402.79 1202.67 -393.821C1220.87 -352.951 1234.8 -307.604 1246.5 -251.109C1249.08 -237.462 1251.28 -223.623 1253.2 -208.84C1262.06 -158.936 1267.28 -114.547 1269.62 -69.1068C1273.34 -18.4872 1269.07 32.8188 1257.6 75.3786C1255.26 84.1952 1252.65 92.8094 1249.83 100.979C1234.96 146.18 1209.34 179.064 1177.71 193.577C1137.62 212.286 1092.99 206.771 1062.61 198.846C1015.61 190.617 983.733 157.856 955.112 125.011C937.924 106.53 922.365 86.2132 905.894 64.712C901.264 58.6641 896.575 52.5418 891.775 46.3621C878.31 28.8866 870.531 14.5379 862.294 -0.651502C855.89 -12.4653 849.266 -24.6785 839.381 -39.6985C826.914 -58.4065 815.278 -79.6286 805.731 -101.069ZM1203.41 -394.409C1199.4 -403.405 1195.11 -412.355 1190.65 -421.007L1186.68 -429.883C1171.93 -462.842 1158.01 -493.973 1141.42 -520.045C1114.34 -570.784 1074.44 -599.1 1026.06 -601.878C992.864 -604.528 964.437 -593.456 941.579 -568.966C917.759 -543.52 898.716 -499.343 882.739 -459.929C867.175 -420.564 853.633 -390.042 840.115 -363.867C835.945 -355.787 832.084 -348.573 828.315 -341.813C825.879 -337.725 823.514 -333.797 821.219 -329.988C805.412 -303.734 792.924 -282.996 782.091 -251.282C769.617 -216.144 777.96 -161.18 804.988 -100.481C814.571 -78.9597 826.252 -57.6572 838.761 -38.8821C848.609 -23.9219 855.218 -11.7339 861.61 0.0542253C869.874 15.2979 877.682 29.6927 891.217 47.2606C896.018 53.4446 900.704 59.5605 905.33 65.6033C921.823 87.1357 937.401 107.475 954.609 125.976C983.339 158.945 1015.35 191.84 1062.58 200.109C1093.03 208.053 1137.81 213.581 1178.07 194.794C1209.91 180.19 1235.69 147.104 1250.66 101.639C1253.48 93.4414 1256.1 84.8 1258.44 75.9533C1269.96 33.2286 1274.24 -18.2762 1270.51 -69.0675C1268.17 -114.567 1262.95 -159.027 1254.08 -208.965C1252.15 -223.745 1249.95 -237.613 1247.36 -251.316C1235.63 -307.958 1221.66 -353.417 1203.41 -394.409Z" fill="#EDE9F6"/>
<path d="M812.779 -111.743C786.675 -170.365 778.183 -222.445 789.481 -254.623C800.505 -287.334 812.685 -306.711 829.546 -333.527C831.132 -336.051 832.758 -338.636 834.428 -341.305C838.175 -347.732 842.021 -354.564 846.195 -362.209C859.73 -387.004 873.456 -415.763 889.399 -452.726C909.49 -498.132 927.232 -532.799 948.488 -554.341C970.958 -577.187 998.339 -587.635 1029.88 -585.392C1077.41 -583.123 1115.34 -555.021 1139.59 -504.123C1146.04 -492.943 1152.43 -480.128 1159.74 -463.731C1165.02 -451.856 1170.14 -439.598 1175.55 -426.616C1178.39 -419.793 1181.28 -412.87 1184.25 -405.865C1187.59 -399.092 1190.85 -392.147 1193.95 -385.193C1212.22 -344.156 1226.46 -300.126 1240.11 -242.419C1242.94 -229.399 1245.51 -215.771 1247.74 -201.921C1258.15 -152.785 1264.31 -110.118 1267.14 -67.6104C1271.48 -19.3397 1267.23 30.1435 1255.17 71.7535C1252.78 80.1695 1250.1 88.3875 1247.24 96.1752C1232.27 138.817 1207.11 170.243 1176.38 184.684C1136.99 203.531 1094.18 199.174 1065.21 192.203C1018.8 185.125 988.737 152.92 959.519 117.688C944.309 100.5 930.508 81.7391 915.892 61.8723C910.14 54.0579 904.191 45.968 898.058 37.8558C885.271 20.7945 878.218 7.05158 870.753 -7.49337C864.435 -19.8027 857.907 -32.5255 847.357 -48.571C834.613 -67.719 822.657 -89.5594 812.779 -111.743ZM1160.48 -464.32C1153.15 -480.77 1146.74 -493.633 1140.29 -504.808C1115.87 -556.054 1077.66 -584.386 1029.81 -586.666C998.085 -588.922 970.527 -578.407 947.914 -555.41C926.555 -533.76 908.763 -499.011 888.62 -453.488C872.69 -416.553 858.979 -387.823 845.462 -363.065C841.293 -355.43 837.452 -348.602 833.718 -342.2C832.058 -339.55 830.431 -336.959 828.845 -334.437C811.944 -307.554 799.733 -288.128 788.665 -255.287C777.233 -222.725 785.749 -170.186 812.035 -111.155C821.949 -88.8897 833.949 -66.9691 846.737 -47.7575C857.239 -31.7807 863.75 -19.0963 870.048 -6.82622C877.545 7.78017 884.625 21.5772 897.489 38.739C903.617 46.8515 909.563 54.9329 915.311 62.7444C929.946 82.6372 943.766 101.423 959.001 118.638C988.33 154.009 1018.53 186.357 1065.19 193.472C1094.23 200.453 1137.2 204.822 1176.75 185.9C1207.67 171.367 1232.99 139.75 1248.05 96.8593C1250.92 89.0474 1253.6 80.7996 1256.01 72.3483C1268.12 30.5573 1272.39 -19.1446 1268.03 -67.6081C1265.2 -110.182 1259.03 -152.929 1248.61 -202.109C1246.38 -215.945 1243.8 -229.602 1240.96 -242.675C1227.28 -300.509 1213.01 -344.639 1194.69 -385.78C1191.58 -392.756 1188.32 -399.718 1184.98 -406.469C1182.04 -413.426 1179.15 -420.348 1176.31 -427.168C1170.89 -440.158 1165.78 -452.425 1160.48 -464.32Z" fill="#EDE9F6"/>
<path d="M1137.77 -489.031C1140.63 -483.498 1143.43 -477.634 1146.36 -471.054C1153.15 -455.816 1159.44 -439.354 1166.1 -421.926C1169.9 -411.965 1173.84 -401.66 1178.01 -391.225C1179.95 -387.091 1181.87 -382.906 1183.72 -378.734C1202.04 -337.603 1217.35 -292.739 1233.35 -233.28C1236.49 -220.661 1239.4 -207.612 1241.97 -194.5C1254.18 -145.536 1261.14 -105.744 1264.55 -65.4273C1269.59 -19.3046 1265.45 28.3878 1252.9 68.8914C1250.47 76.8917 1247.76 84.7117 1244.85 92.1422C1229.68 132.78 1205.71 161.92 1175.53 176.411C1136.93 195.304 1096.01 191.971 1068.47 185.853C1022.66 179.753 994.348 148.018 964.643 110.279C951.091 94.1119 938.769 76.578 925.725 58.0249C919.089 48.5845 912.228 38.8285 905.018 28.9936C892.779 12.1707 886.355 -1.1278 879.556 -15.2006C873.419 -27.9089 867.073 -41.0489 855.94 -58.0348C842.812 -77.8175 830.43 -100.492 820.137 -123.608C794.849 -180.398 786.201 -229.956 796.406 -259.58C807.502 -293.189 819.254 -311.071 837.044 -338.138L839.947 -342.555C843.653 -348.633 847.461 -355.069 851.6 -362.249C865.214 -385.864 878.63 -412.018 895.106 -447.056C915.385 -489.069 933.228 -521.208 954.382 -541.483C976.537 -562.806 1002.99 -572.625 1033.02 -570.674C1078.63 -568.803 1114.26 -541.944 1136.05 -492.994C1136.63 -491.688 1137.21 -490.365 1137.77 -489.031ZM1147.1 -471.643C1144.16 -478.253 1141.34 -484.142 1138.5 -489.646C1137.96 -490.93 1137.38 -492.265 1136.79 -493.582C1114.8 -542.967 1078.9 -570.068 1032.95 -571.951C1002.75 -573.912 976.123 -564.032 953.822 -542.57C932.568 -522.199 914.675 -489.977 894.344 -447.856C877.88 -412.842 864.476 -386.714 850.88 -363.126C846.744 -355.954 842.942 -349.525 839.248 -343.469L836.354 -339.067C818.516 -311.927 806.731 -293.997 795.588 -260.241C785.249 -230.233 793.926 -180.216 819.394 -123.02C829.724 -99.8235 842.147 -77.0713 855.323 -57.2197C866.397 -40.3207 872.72 -27.2285 878.835 -14.5693C885.668 -0.425212 892.119 12.9297 904.437 29.8608C911.639 39.6842 918.494 49.4363 925.129 58.8745C938.191 77.4537 950.533 95.0069 964.105 111.199C992.837 147.699 1022.45 180.989 1068.46 187.118C1096.07 193.25 1137.15 196.594 1175.91 177.629C1206.27 163.045 1230.39 133.723 1245.65 92.8546C1248.57 85.402 1251.29 77.5475 1253.73 69.5206C1266.34 28.8143 1270.5 -19.1194 1265.44 -65.4525C1262.03 -105.845 1255.05 -145.736 1242.82 -194.741C1240.25 -207.847 1237.34 -220.928 1234.19 -233.585C1218.16 -293.163 1202.82 -338.103 1184.47 -379.322C1182.6 -383.502 1180.68 -387.699 1178.76 -391.798C1174.61 -402.176 1170.68 -412.471 1166.88 -422.427C1160.21 -439.881 1153.91 -456.36 1147.1 -471.643Z" fill="#EDE9F6"/>
<path d="M826.894 -134.933C802.615 -189.458 793.956 -236.277 803.136 -263.381C814.254 -297.644 825.504 -313.912 844.137 -340.854L845.413 -342.699C849.103 -348.453 852.887 -354.499 856.988 -361.196C870.471 -383.221 884.026 -407.634 900.938 -440.342C918.68 -473.771 938.185 -507.487 960.575 -527.656C982.481 -547.486 1008.05 -556.726 1036.59 -555.129C1079.01 -553.762 1111.84 -529.656 1131.54 -485.407C1133.26 -481.55 1134.9 -477.492 1136.41 -473.343C1136.81 -472.481 1137.16 -471.68 1137.53 -470.866C1144.99 -454.103 1151.48 -435.207 1158.34 -415.202C1162.68 -402.557 1167.17 -389.484 1172.19 -376.1C1195.81 -322.899 1213.1 -269.262 1226.91 -223.812C1230.36 -211.595 1233.59 -199.13 1236.48 -186.774C1245.8 -154.483 1257.14 -111.273 1262.13 -63.0343C1267.71 -19.6003 1263.52 27.501 1250.63 66.2186C1248.15 73.8007 1245.39 81.2269 1242.42 88.2887C1227.23 126.318 1203.73 154.023 1174.48 168.434C1136.59 187.443 1097.51 185.206 1071.39 179.981C1026.17 174.928 998.439 142.389 969.382 103.573C957.256 88.3166 946.217 71.8629 934.529 54.4442C927.236 43.5759 919.696 32.3406 911.603 20.9827C899.833 4.33671 893.983 -8.59171 887.789 -22.2784C881.909 -35.2751 875.825 -48.7231 864.19 -66.5207C850.747 -86.8147 837.503 -111.108 826.894 -134.933ZM1132.29 -485.995C1112.39 -530.684 1079.27 -555.029 1036.51 -556.402C1007.81 -558.016 982.076 -548.716 960.03 -528.758C937.544 -508.495 917.985 -474.696 900.195 -441.183C883.294 -408.489 869.749 -384.099 856.28 -362.096C852.185 -355.408 848.406 -349.367 844.727 -343.637L843.462 -341.807C824.77 -314.777 813.487 -298.463 802.317 -264.033C793.006 -236.547 801.692 -189.273 826.151 -134.345C836.795 -110.441 850.083 -86.0661 863.568 -65.7084C875.137 -48.0168 881.194 -34.6286 887.052 -21.6831C893.277 -7.92262 899.157 5.0685 911.013 21.8398C919.096 33.1798 926.629 44.4035 933.914 55.2659C945.618 72.7063 956.671 89.1809 968.82 104.47C998.01 143.462 1025.88 176.164 1071.4 181.255C1097.59 186.495 1136.82 188.734 1174.86 169.64C1204.29 155.147 1227.93 127.269 1243.22 89.0293C1246.19 81.9416 1248.96 74.4827 1251.45 66.8632C1264.42 27.94 1268.63 -19.4301 1263.01 -63.0938C1258.01 -111.454 1246.65 -154.767 1237.32 -187.093C1234.43 -199.425 1231.2 -211.915 1227.73 -224.177C1213.91 -269.696 1196.59 -323.398 1172.95 -376.639C1167.96 -389.955 1163.48 -403.015 1159.14 -415.647C1151.93 -436.659 1145.14 -456.448 1137.17 -473.885C1135.67 -478.004 1134.02 -482.101 1132.29 -485.995Z" fill="#EDE9F6"/>
<path d="M833.653 -148.146C820.085 -178.617 798.997 -234.765 810.199 -268.464C821.233 -303.093 831.851 -317.632 851.13 -344.029C854.902 -349.584 858.656 -355.234 862.678 -361.397C879.585 -387.319 895.27 -414.278 907.054 -434.866C924.942 -465.337 944.593 -496.148 967.013 -515.034C988.676 -533.369 1013.36 -542.028 1040.38 -540.768C1079.89 -539.85 1110.2 -518.192 1128.04 -478.136C1130.71 -472.133 1133.14 -465.647 1135.26 -458.85C1141.28 -443.6 1146.41 -426.553 1151.84 -408.504C1156.32 -393.578 1160.97 -378.146 1166.55 -362.179C1185.37 -316.993 1201.79 -270.897 1220.65 -215.573C1224.44 -203.729 1227.98 -191.85 1231.17 -180.289C1242.27 -146.772 1254.34 -106.534 1259.89 -61.9019C1266.1 -20.39 1261.97 24.8532 1248.57 62.2432C1246.04 69.4068 1243.23 76.4407 1240.21 83.1463C1225.01 118.526 1202 144.796 1173.66 159.126C1136.49 178.267 1099.27 177.113 1074.58 172.771C1029.85 168.714 1003.81 136.812 974.425 95.5327C963.535 81.0536 953.618 65.5324 943.116 49.095C935.352 36.9387 927.323 24.3717 918.511 11.6419C909.62 -1.28497 904.557 -11.7174 900.773 -20.2134C899.181 -23.7902 897.725 -27.2388 896.182 -30.8983C894.658 -34.5151 893.078 -38.269 891.369 -42.1061C887.646 -50.4676 882.165 -61.9149 872.762 -76.327C858.669 -97.6509 844.78 -123.158 833.653 -148.146ZM1128.78 -478.726C1110.75 -519.225 1080.15 -541.118 1040.29 -542.042C1013.5 -543.292 987.977 -534.34 966.49 -516.155C943.971 -497.186 924.27 -466.298 906.333 -435.744C894.556 -415.162 878.882 -388.226 861.986 -362.324C857.97 -356.167 854.22 -350.519 850.514 -345.062C831.122 -318.512 820.466 -303.92 809.376 -269.111C797.999 -234.887 819.237 -178.264 832.91 -147.558C844.072 -122.491 858.005 -96.9058 872.141 -75.5149C881.485 -61.1972 886.928 -49.8297 890.628 -41.5194C892.331 -37.6951 893.902 -33.9571 895.427 -30.3381C896.903 -26.8391 898.43 -23.2159 900.029 -19.6242C903.843 -11.0599 908.945 -0.554418 917.908 12.4802C926.707 25.1856 934.731 37.7453 942.489 49.8944C952.999 66.3488 962.932 81.8973 973.845 96.3988C1003.38 137.888 1029.56 169.954 1074.61 174.048C1099.36 178.4 1136.73 179.551 1174.05 160.334C1202.56 145.923 1225.71 119.497 1240.99 83.9092C1244.02 77.1857 1246.84 70.1209 1249.38 62.9228C1262.87 25.2976 1267.02 -20.235 1260.77 -61.9974C1255.21 -106.774 1243.1 -147.117 1231.99 -180.669C1228.81 -192.221 1225.25 -204.113 1221.45 -215.996C1202.58 -271.374 1186.15 -317.5 1167.33 -362.684C1161.78 -378.563 1157.14 -393.976 1152.66 -408.885C1147.22 -426.971 1142.08 -444.057 1136.05 -459.31C1133.93 -466.106 1131.48 -472.66 1128.78 -478.726Z" fill="#EDE9F6"/>
<path d="M839.643 -161.195C817.599 -210.7 809.495 -250.371 816.823 -272.899C827.676 -307.627 837.934 -320.879 856.551 -344.93C860.349 -350.196 864.079 -355.46 867.968 -361.035C883.902 -383.87 898.932 -407.14 912.801 -428.886C929.946 -455.111 950.531 -484.31 973.145 -501.989C994.292 -518.608 1018.76 -526.91 1043.92 -526.003C1081.36 -525.467 1108.66 -506.499 1125.08 -469.624C1128.56 -461.819 1131.54 -453.146 1133.95 -443.846C1138.39 -430.522 1142.13 -415.839 1146.1 -400.293C1150.41 -383.387 1154.88 -365.905 1160.8 -347.64C1171.31 -320.449 1181.51 -293.421 1192.29 -264.803C1199.44 -245.84 1206.83 -226.236 1214.34 -206.546C1218.5 -195.008 1222.37 -183.711 1225.83 -172.972C1238.76 -138.61 1251.55 -101.154 1257.65 -59.8156C1264.5 -20.099 1260.44 23.3318 1246.51 59.349C1243.93 66.1158 1241.07 72.7586 1238 79.0976C1222.81 111.853 1200.26 136.717 1172.79 150.991C1136.28 170.285 1100.89 170.205 1077.63 166.734C1033.32 163.641 1008.89 132.378 979.217 88.5568C969.405 74.766 960.467 60.0321 951.007 44.4375C942.905 31.0845 934.528 17.2735 925.104 3.26267C919.295 -5.42257 914.665 -13.7959 910.535 -23.0707C908.155 -28.4152 906.193 -33.4456 904.117 -38.7681C902.043 -44.0919 899.894 -49.6045 897.287 -55.4595C892.718 -65.7212 887.535 -75.1942 880.976 -85.2618C866.237 -107.627 851.173 -135.301 839.643 -161.195ZM1125.83 -470.214C1109.21 -507.544 1081.62 -526.74 1043.83 -527.275C1018.53 -528.195 993.913 -519.839 972.643 -503.126C949.931 -485.375 929.296 -456.103 912.103 -429.806C898.241 -408.069 883.218 -384.808 867.295 -361.987C863.408 -356.417 859.679 -351.157 855.898 -345.91C837.21 -321.77 826.912 -308.467 815.997 -273.536C808.542 -250.627 816.676 -210.515 838.9 -160.606C850.463 -134.638 865.573 -106.881 880.355 -84.4523C886.864 -74.4544 892.01 -65.057 896.545 -54.8723C899.134 -49.0579 901.275 -43.5645 903.345 -38.2548C905.426 -32.9139 907.394 -27.8617 909.79 -22.481C913.959 -13.1186 918.629 -4.67895 924.49 4.08371C933.894 18.0697 942.264 31.8636 950.354 45.1999C959.832 60.8241 968.782 75.5767 978.613 89.4013C1008.45 133.452 1033.02 164.89 1077.67 168.009C1100.99 171.486 1136.52 171.569 1173.18 152.191C1200.81 137.837 1223.49 112.837 1238.76 79.8939C1241.84 73.5328 1244.72 66.8586 1247.32 60.0668C1261.33 23.789 1265.42 -19.9539 1258.53 -59.955C1252.41 -101.441 1239.58 -139.011 1226.63 -173.428C1223.17 -184.144 1219.3 -195.461 1215.12 -207.032C1207.61 -226.737 1200.22 -246.347 1193.08 -265.295C1182.28 -293.919 1172.1 -320.952 1161.6 -348.106C1155.7 -366.267 1151.25 -383.719 1146.94 -400.597C1142.96 -416.176 1139.21 -430.891 1134.77 -444.217C1132.36 -453.554 1129.34 -462.319 1125.83 -470.214Z" fill="#EDE9F6"/>
</svg>
