<svg width="1440" height="1196" viewBox="0 0 1440 1196" fill="none" xmlns="http://www.w3.org/2000/svg">
<path d="M-513.44 98.7097C-572.895 86.5845 -614.259 73.8909 -647.56 57.5496C-773.758 -6.74761 -828.082 -172.131 -785.943 -363.785C-763.895 -459.46 -717.523 -543.942 -651.841 -608.091C-593.896 -663.851 -511.541 -712.185 -392.662 -760.197C-310.686 -792.826 -219.803 -817.435 -106.647 -837.643C8.00064 -857.759 95.0902 -860.559 175.729 -846.718C179.384 -846.062 183.026 -845.366 186.861 -844.584C277.71 -826.056 413.861 -772.76 551.065 -702.014C690.517 -630.111 804.278 -553.457 855.376 -496.964C1007.27 -384.143 959.276 -313.853 886.638 -207.453C854.413 -160.257 817.898 -106.762 790.087 -38.7944C770.033 10.2578 753.048 54.2468 738.062 93.0615C666.106 279.453 633.273 364.525 480.073 434.645C443.148 450.64 399.82 453.735 351.317 443.843C313.084 436.046 271.301 420.124 227.124 396.516C187.093 374.965 146.681 350.009 103.897 323.586C47.626 288.833 -10.5569 252.896 -76.0199 219.513C-154.033 180.085 -243.876 150.33 -350.69 128.547C-366.544 125.313 -383.249 122.16 -400.337 119.171C-408.018 117.831 -415.64 116.513 -423.191 115.204C-454.889 109.723 -484.829 104.545 -513.44 98.7097ZM187.216 -845.636C183.362 -846.422 179.7 -847.125 176.017 -847.789C95.0762 -861.681 7.73124 -858.88 -107.205 -838.714C-220.503 -818.481 -311.51 -793.836 -393.612 -761.162C-512.673 -713.073 -595.169 -664.652 -653.239 -608.773C-719.053 -544.493 -765.507 -459.866 -787.587 -364.04C-829.818 -171.976 -775.216 -6.15405 -648.481 58.4132C-614.994 74.8487 -573.456 87.5996 -513.796 99.7666C-485.149 105.609 -455.193 110.791 -423.474 116.276C-415.921 117.58 -408.305 118.897 -400.625 120.24C-383.56 123.226 -366.879 126.374 -351.046 129.603C-244.441 151.345 -154.785 181.034 -76.9433 220.372C-11.5659 253.717 46.5826 289.63 102.827 324.366C145.632 350.805 186.062 375.775 226.149 397.351C270.518 421.062 312.508 437.058 350.961 444.9C399.956 454.892 443.729 451.757 481.078 435.581C555.573 401.485 603.316 363.586 640.715 308.842C677.035 255.692 703.31 187.628 739.678 93.4252C754.663 54.6151 771.642 10.6248 791.703 -38.4187C819.469 -106.303 855.969 -159.762 888.166 -206.924C925.657 -261.841 955.278 -305.22 957.26 -350.217C959.414 -398.867 928.39 -444.309 856.669 -497.569C805.573 -554.091 691.637 -630.874 552.011 -702.871C414.635 -773.698 278.263 -827.068 187.216 -845.636Z" fill="#EDE9F6"/>
<path d="M182.069 -833.425C184.233 -833.016 186.372 -832.591 188.572 -832.143C275.372 -814.436 406.419 -762.8 539.097 -694.009C674.131 -624.01 784.704 -549.251 834.885 -494.027C982.307 -384.138 937.56 -315.148 869.818 -210.721C840.529 -165.563 807.332 -114.38 782.083 -49.9403C763.496 -3.00384 747.745 39.2067 733.846 76.4464C666.426 257.1 635.654 339.552 488.644 408.251C450.065 425.901 404.011 429.448 351.739 418.785C316.685 411.634 278.627 398.036 238.628 378.366C188.733 355.785 138.003 328.018 84.2982 298.62C33.8363 270.996 -18.3527 242.43 -75.099 215.209C-193.098 159.362 -315.291 130.08 -396.938 112.914L-411.408 110.098C-428.973 106.679 -445.567 103.449 -462.03 100.091C-532.056 85.8064 -588.06 71.3928 -633.771 47.4715C-754.405 -16.2454 -808.031 -176.737 -770.382 -361.394C-751.872 -456.036 -709.5 -539.274 -647.855 -602.107C-592.764 -657.727 -513.211 -705.751 -397.497 -753.233C-313.103 -788.055 -219.321 -813.058 -102.362 -831.908C11.4452 -849.871 98.8896 -850.396 181.167 -833.609L182.069 -833.425ZM188.929 -833.202C186.72 -833.653 184.568 -834.079 182.408 -834.481L181.523 -834.666C98.9394 -851.513 11.2231 -850.995 -102.884 -832.984C-220.003 -814.107 -313.927 -789.07 -398.457 -754.193C-514.355 -706.631 -594.055 -658.517 -649.27 -602.771C-711.04 -539.812 -753.489 -456.429 -772.031 -361.636C-809.762 -176.581 -755.868 -15.6649 -634.726 48.3209C-588.786 72.3571 -532.608 86.8257 -462.387 101.15C-445.912 104.511 -429.314 107.739 -411.74 111.16L-397.292 113.974C-315.779 131.113 -193.767 160.348 -75.9859 216.087C-19.2945 243.287 32.8699 271.838 83.3166 299.45C137.051 328.866 187.811 356.651 237.74 379.247C277.885 398.987 316.128 412.648 351.384 419.84C404.15 430.603 450.681 427.02 489.661 409.174C637.137 340.268 667.95 257.703 735.464 76.8008C749.362 39.5633 765.111 -2.64035 783.695 -49.5774C808.911 -113.941 842.089 -165.087 871.356 -210.207C906.321 -264.108 933.936 -306.681 935.065 -350.744C936.286 -398.377 905.785 -442.756 836.186 -494.631C785.994 -549.884 675.241 -624.775 540.05 -694.859C407.196 -763.74 275.931 -815.454 188.929 -833.202Z" fill="#EDE9F6"/>
<path d="M351.658 393.582C320.081 387.138 286.073 375.805 250.584 359.906C188.421 336.682 124.701 305.675 57.2394 272.846C15.1344 252.358 -28.4017 231.172 -74.2662 210.535C-187.615 160.443 -299.581 129.69 -394.161 106.211L-399.749 104.993C-486.968 86.0031 -562.296 69.6005 -620.994 36.8787C-736.302 -26.2823 -789.42 -181.817 -756.321 -359.375C-741.201 -454.269 -703.874 -533.981 -645.366 -596.309C-593.849 -650.968 -514.759 -700.012 -403.585 -746.258C-317.882 -782.731 -218.246 -808.809 -98.9747 -825.979C14.0518 -841.866 104.353 -839.915 187.921 -819.824L189.814 -819.44C272.691 -802.528 398.833 -752.512 527.233 -685.655C658.078 -617.523 765.685 -544.634 815.092 -490.672C958.362 -383.682 916.86 -316.02 854.038 -213.6C827.638 -170.555 797.719 -121.768 775 -60.9311C757.916 -16.2001 743.42 24.145 730.626 59.7406C667.769 234.63 639.083 314.451 498.033 381.648C457.615 401.137 408.366 405.153 351.658 393.582ZM168.911 -825.177C90.4973 -841.178 5.21917 -841.776 -99.456 -827.063C-218.913 -809.865 -318.71 -783.744 -404.554 -747.213C-515.921 -700.889 -595.158 -651.738 -646.799 -596.954C-705.429 -534.497 -742.832 -454.636 -757.974 -359.6C-774.3 -272.018 -770.164 -188.428 -746.022 -117.874C-721.873 -47.3127 -678.982 6.48667 -621.988 37.7027C-563.017 70.5773 -487.536 87.011 -400.136 106.042L-394.583 107.251C-300.139 130.697 -188.289 161.417 -75.1027 211.437C-29.2848 232.057 14.2467 253.238 56.3395 273.723C123.847 306.571 187.614 337.603 249.805 360.832C285.389 376.778 319.551 388.159 351.303 394.638C408.539 406.318 458.257 402.256 499.083 382.566C640.57 315.158 669.297 235.224 732.238 60.0865C745.035 24.4939 759.53 -15.8489 776.618 -60.5742C799.307 -121.342 829.201 -170.095 855.592 -213.102C888.012 -265.968 913.619 -307.717 913.84 -350.836C914.089 -397.455 884.031 -440.766 816.39 -491.276C766.976 -545.266 659.197 -618.283 528.176 -686.504C399.611 -753.453 273.248 -803.543 190.169 -820.496L188.313 -820.873C181.944 -822.401 175.401 -823.853 168.911 -825.177Z" fill="#EDE9F6"/>
<path d="M349.478 367.962C321.914 362.336 292.495 353.237 262.055 340.92C184.835 317.657 104.996 282.802 20.4662 245.901C-9.8386 232.668 -41.1766 218.987 -73.2531 205.463C-190.506 157.102 -306.138 123.665 -390.568 99.2463C-471.767 79.5517 -548.415 60.9657 -606.964 26.127C-661.034 -4.68107 -702.131 -56.8476 -725.837 -124.745C-749.585 -192.78 -754.67 -273.222 -740.544 -357.377C-729.089 -451.166 -695.672 -529.607 -641.212 -590.517C-592.61 -644.974 -516.435 -693.656 -408.339 -739.35C-320.317 -777.98 -217.748 -804.425 -94.7642 -820.196C1.83997 -832.253 81.5129 -830.787 155.974 -815.589C168.739 -812.983 181.559 -809.919 194.074 -806.475C273.435 -789.722 394.093 -741.222 516.934 -676.707C644.275 -609.827 745.374 -540.999 794.306 -487.863C933.145 -383.806 894.96 -317.437 837.158 -216.978C813.629 -176.084 786.96 -129.733 766.751 -72.5292C751.189 -30.0899 737.961 8.33161 726.284 42.2297C668.005 211.451 641.409 288.686 506.487 354.437C464.089 376.027 411.262 380.573 349.478 367.962ZM156.33 -816.646C81.5943 -831.901 1.66864 -833.372 -95.2089 -821.288C-218.402 -805.487 -321.147 -778.995 -409.326 -740.293C-517.609 -694.521 -593.937 -645.731 -642.659 -591.143C-697.236 -530.097 -730.725 -451.512 -742.195 -357.58C-756.341 -273.317 -751.245 -192.745 -727.45 -124.586C-703.657 -56.4347 -662.352 -4.04337 -607.995 26.9302C-549.193 61.9201 -472.383 80.5466 -391.063 100.268C-306.733 124.657 -191.174 158.079 -74.0405 206.387C-41.99 219.9 -10.6581 233.58 19.6474 246.81C104.234 283.738 184.139 318.619 261.381 341.886C291.86 354.22 321.412 363.361 349.123 369.017C411.441 381.737 464.748 377.139 507.558 355.346C642.898 289.381 669.541 212.035 727.906 42.5658C739.577 8.6687 752.805 -29.7454 768.364 -72.183C788.558 -129.324 815.205 -175.638 838.715 -216.504C868.541 -268.351 892.11 -309.305 891.438 -351.489C890.715 -397.097 861.153 -439.345 795.604 -488.464C746.658 -541.634 645.392 -610.586 517.883 -677.556C394.891 -742.148 273.996 -790.731 194.517 -807.51C182.022 -810.945 169.15 -814.03 156.33 -816.646Z" fill="#EDE9F6"/>
<path d="M345.776 343.962C322.785 339.268 298.511 332.337 273.605 323.355C177.493 300.809 77.2694 261.034 -28.8168 218.928C-43.2231 213.209 -57.7529 207.44 -72.4392 201.652C-162.19 167.16 -247.596 139.256 -322.947 114.639C-345.616 107.235 -367.026 100.237 -387.463 93.4233C-471.218 70.8337 -539.54 50.8378 -593.645 16.4332C-645.152 -14.1792 -684.712 -65.0246 -708.068 -130.612C-731.478 -196.359 -737.521 -273.904 -725.54 -354.869C-717.751 -447.707 -688.195 -524.982 -637.678 -584.567C-591.965 -638.885 -518.619 -687.281 -413.447 -732.509C-324.284 -772.819 -215.668 -800.444 -90.5988 -814.637C-1.29053 -824.466 73.1581 -822.335 143.681 -807.936C162.756 -804.042 181.855 -799.133 200.455 -793.361C276.66 -776.326 391.774 -729.161 508.476 -667.164C629.856 -602.681 726.761 -536.243 774.329 -484.884C908.902 -383.586 874.019 -318.371 821.202 -219.656C800.462 -180.898 776.962 -136.971 759.182 -83.3545C745.147 -43.225 733.169 -6.74268 722.614 25.4475C668.82 189.375 644.268 264.188 515.289 328.651C470.617 352.66 413.595 357.808 345.776 343.962ZM144.038 -808.995C73.2489 -823.447 -1.43556 -825.585 -91.0148 -815.726C-216.303 -801.514 -325.122 -773.826 -414.446 -733.448C-519.808 -688.139 -593.311 -639.636 -639.142 -585.17C-689.769 -525.451 -719.398 -448.028 -727.194 -355.052C-739.192 -273.99 -733.134 -196.313 -709.679 -130.45C-686.236 -64.6157 -646.482 -13.5531 -594.71 17.213C-540.387 51.7568 -471.904 71.8075 -388.032 94.4237C-367.657 101.22 -346.244 108.219 -323.57 115.626C-248.245 140.233 -162.868 168.128 -73.1778 202.596C-58.5098 208.38 -43.9761 214.147 -29.5751 219.863C76.5972 262.003 176.892 301.808 273.052 324.357C297.92 333.338 322.319 340.302 345.42 345.018C413.788 358.977 471.303 353.77 516.377 329.547C645.777 264.88 670.359 189.949 724.226 25.7719C734.793 -6.41349 746.758 -42.8938 760.801 -83.0191C778.569 -136.579 802.046 -180.477 822.774 -219.201C850.029 -270.151 871.554 -310.393 869.973 -351.728C868.262 -396.417 839.172 -437.672 775.625 -485.488C728.036 -536.882 630.987 -603.432 509.44 -668.003C392.574 -730.085 277.255 -777.328 200.949 -794.383C182.37 -800.159 163.189 -805.085 144.038 -808.995Z" fill="#EDE9F6"/>
<path d="M256.797 298.843C154.666 277.984 47.948 240.135 -70.9396 196.461C-119.764 179.039 -166.265 163.035 -211.235 147.559C-274.247 125.875 -333.765 105.388 -383.994 86.2459C-459.483 63.6433 -526.293 41.9777 -580.17 5.41119C-629.184 -24.9788 -667.279 -74.4265 -690.362 -137.605C-713.511 -200.952 -720.582 -275.463 -710.818 -353.085C-706.821 -444.799 -681.169 -520.755 -634.576 -578.865C-591.809 -632.915 -521.288 -680.887 -418.982 -725.517C-327.433 -767.924 -215.651 -795.868 -86.7173 -808.588C-5.28841 -816.34 66.1726 -813.599 131.735 -800.209C156.978 -795.053 182.224 -788.131 206.777 -779.633C354.821 -744.539 652.866 -590.758 754.958 -481.537C885.507 -383.063 853.99 -319.087 806.289 -222.245C788.31 -185.765 767.942 -144.417 752.588 -94.5498C740.106 -56.911 729.438 -22.5161 720.016 7.82664C670.847 166.273 648.411 238.591 525.26 301.595C478.059 328.317 416.092 334.085 341.073 318.764C323.393 315.153 304.925 310.317 286.178 304.397C276.492 302.712 266.657 300.857 256.797 298.843ZM132.091 -801.265C66.281 -814.706 -5.41818 -817.457 -87.1006 -809.68C-216.273 -796.94 -328.274 -768.936 -419.993 -726.45C-522.496 -681.736 -593.177 -633.652 -636.057 -579.449C-682.766 -521.198 -708.475 -445.091 -712.475 -353.243C-722.252 -275.535 -715.166 -200.901 -691.976 -137.434C-668.807 -74.0269 -630.525 -24.3685 -581.273 6.16951C-527.195 42.872 -460.223 64.5924 -384.639 87.2218C-334.454 106.35 -274.917 126.838 -211.892 148.532C-166.923 164.008 -120.434 180.01 -71.632 197.422C47.338 241.123 154.147 279.003 256.443 299.895C266.324 301.913 276.183 303.774 285.741 305.425C304.406 311.336 322.96 316.189 340.719 319.816C416.312 335.255 478.773 329.425 526.375 302.481C586.022 271.963 623.655 238.366 652.181 190.149C679.486 144.005 697.175 87.0184 721.649 8.1431C731.064 -22.1986 741.738 -56.5899 754.21 -94.2306C769.559 -144.043 789.911 -185.363 807.87 -221.822C832.485 -271.802 851.939 -311.277 849.379 -351.708C846.609 -395.43 817.89 -435.652 756.258 -482.139C709.949 -531.687 616.978 -595.78 501.247 -657.897C390.395 -717.404 280.512 -763.289 207.319 -780.642C182.785 -789.136 157.441 -796.088 132.091 -801.265Z" fill="#EDE9F6"/>
<path d="M205.016 271.621C109.188 252.045 11.996 220.604 -70.4368 192.431C-181.282 155.745 -296.564 116.87 -381.026 80.2715C-460.037 53.9829 -518.641 30.67 -566.883 -4.39653C-661.937 -66.1835 -711.308 -198.808 -695.762 -350.531C-695.514 -441.277 -673.729 -516.036 -631.008 -572.767C-591.223 -626.655 -523.564 -674.31 -424.159 -718.48C-331.628 -762.483 -213.594 -791.638 -82.8073 -802.805C-7.57858 -808.976 58.8772 -805.87 120.349 -793.313C151.881 -786.871 182.104 -778.042 212.739 -766.322C282.677 -748.695 386.746 -704.248 491.264 -647.379C600.812 -587.775 689.387 -526.223 734.281 -478.506C860.615 -382.739 832.496 -319.83 789.937 -224.6C774.643 -190.399 757.314 -151.635 744.287 -105.502C733.361 -70.3963 723.973 -38.1272 715.704 -9.65553C672.423 139.087 650.703 213.748 533.406 275.517C484.075 305.013 414.517 311.706 332.233 294.897C320.818 292.565 309.042 289.761 297.214 286.553C267.923 283.159 236.966 278.147 205.016 271.621ZM120.704 -794.367C58.9943 -806.973 -7.68571 -810.091 -83.1578 -803.905C-214.2 -792.714 -332.472 -763.493 -425.181 -719.406C-524.783 -675.152 -592.612 -627.364 -632.506 -573.333C-675.332 -516.453 -697.175 -441.543 -697.422 -350.666C-712.996 -198.647 -663.413 -65.6712 -568.023 -3.66253C-514.383 35.3277 -446.59 59.6477 -381.751 81.2143C-297.293 117.814 -181.962 156.709 -71.0732 193.411C11.4183 221.604 108.692 253.071 204.661 272.676C236.672 279.215 267.71 284.238 296.89 287.604C308.584 290.792 320.407 293.611 331.878 295.954C414.747 312.882 484.825 306.116 534.541 276.388C652.225 214.411 673.982 139.629 717.325 -9.35603C725.605 -37.823 734.995 -70.087 745.923 -105.197C758.93 -151.28 776.248 -190.022 791.524 -224.201C813.493 -273.351 830.846 -312.169 827.328 -351.795C823.522 -394.636 795.222 -433.899 735.571 -479.115C690.668 -526.86 601.941 -588.525 492.242 -648.212C387.58 -705.156 283.32 -749.684 213.336 -767.311C182.712 -779.035 152.367 -787.899 120.704 -794.367Z" fill="#EDE9F6"/>
<path d="M147.578 246.399C83.1625 233.238 12.0176 214.22 -69.9146 188.256C-205.092 146.891 -305.963 109.548 -378.306 74.087C-449.234 47.8662 -506.203 22.7987 -554.008 -14.4534C-643.653 -75.6965 -692.414 -203.598 -681.299 -348.276C-684.866 -438.071 -666.943 -511.639 -628.025 -566.98C-591.236 -620.676 -526.392 -668.024 -429.798 -711.731C-309.964 -770.104 -172.961 -790.472 -79.1297 -797.28C-9.48971 -802.105 52.3491 -798.734 109.91 -786.973C147.035 -779.388 182.618 -768.345 218.693 -753.215C354.728 -716.695 619.293 -575.531 714.063 -475.581C836.39 -382.411 811.716 -320.486 774.363 -226.754C761.677 -194.921 747.298 -158.84 736.543 -116.516C727.174 -84.0757 719.076 -54.0463 711.936 -27.5517C673.117 116.489 653.629 188.79 542.03 249.37C489.485 282.53 412.958 290.082 320.679 271.227C316.674 270.409 312.586 269.527 308.526 268.61C257.948 265.462 205.361 258.205 147.578 246.399ZM110.265 -788.028C52.4754 -799.836 -9.57997 -803.222 -79.4511 -798.378C-173.473 -791.556 -310.75 -771.141 -430.829 -712.649C-527.632 -668.853 -592.638 -621.38 -629.54 -567.516C-668.56 -512.035 -686.535 -438.302 -682.96 -348.387C-694.094 -203.438 -645.133 -75.1944 -555.187 -13.749C-507.24 23.6148 -450.116 48.7552 -379.109 75.0019C-306.761 110.469 -205.784 147.852 -70.5123 189.247C11.4939 215.233 82.7189 234.275 147.222 247.454C205.125 259.285 257.821 266.555 308.325 269.685C312.195 270.575 316.301 271.46 320.324 272.282C413.195 291.258 490.262 283.632 543.179 250.227C655.163 189.442 674.685 117.021 713.573 -27.2633C720.714 -53.7528 728.801 -83.7773 738.167 -116.228C748.923 -158.515 763.291 -194.571 775.969 -226.384C813.459 -320.462 838.22 -382.618 715.355 -476.184C620.506 -576.238 355.477 -717.65 219.334 -754.192C183.272 -769.32 147.545 -780.411 110.265 -788.028Z" fill="#EDE9F6"/>
<path d="M90.5044 223.198C40.0063 212.877 -12.1018 199.797 -68.7746 183.219C-198.899 146.544 -302.018 107.466 -375.277 67.0632C-431.644 43.914 -490.653 16.7393 -541.021 -25.3056C-625.397 -85.9663 -673.683 -208.997 -667.076 -346.422C-674.689 -436.407 -661.065 -506.665 -625.415 -561.266C-591.671 -614.684 -529.638 -661.616 -435.775 -704.761C-339.961 -752.377 -212.057 -783.084 -75.6054 -791.236C-10.9709 -794.897 46.6629 -791.317 100.586 -780.297C142.958 -771.637 183.571 -758.3 224.754 -739.521C354.619 -702.316 601.727 -569.034 694.523 -472.205C813.103 -381.623 791.975 -320.683 759.99 -228.432C749.831 -199.131 738.315 -165.916 729.765 -127.57C721.973 -97.9826 715.181 -70.3798 709.2 -46.0192C674.979 93.3271 657.797 163.271 551.76 222.596C484.311 267.453 388.949 262.198 320.82 249.903L320.608 249.881C249.262 248.989 173.991 240.261 90.5044 223.198ZM100.94 -781.348C46.7999 -792.413 -11.0407 -796.009 -75.8958 -792.341C-212.632 -784.165 -340.81 -753.393 -436.82 -705.679C-530.902 -662.435 -593.096 -615.366 -626.952 -561.779C-662.69 -507.031 -676.362 -436.611 -668.733 -346.508C-675.354 -208.839 -626.883 -85.486 -542.24 -24.6299C-491.734 17.5281 -432.568 44.7786 -376.158 67.9388C-302.863 108.368 -199.593 147.512 -69.3191 184.227C-12.5898 200.821 39.5732 213.912 90.1506 224.249C173.76 241.337 249.149 250.082 320.626 250.984C389.16 263.346 485.056 268.583 552.943 223.442C659.344 163.91 676.554 93.8432 710.844 -45.7464C716.826 -70.0995 723.602 -97.7054 731.408 -127.295C739.945 -165.622 751.454 -198.809 761.615 -228.095C793.704 -320.682 814.913 -381.846 695.814 -472.815C602.932 -569.737 355.387 -703.254 225.449 -740.473C184.269 -759.261 143.486 -772.652 100.94 -781.348Z" fill="#EDE9F6"/>
<path d="M37.5201 204.74C3.02792 197.689 -32.7022 189.2 -68.6908 179.512C-196.345 146.473 -301.533 105.614 -372.903 61.3527C-442.074 29.6895 -488.558 0.917261 -528.439 -34.9078C-567.318 -64.5135 -599.339 -108.57 -621.082 -162.356C-642.955 -216.464 -653.922 -279.219 -652.794 -343.835C-664.363 -432.92 -654.477 -502.057 -622.566 -555.255C-591.878 -608.494 -532.665 -655.147 -441.547 -697.88C-343.453 -747.727 -212.263 -778.9 -72.113 -785.669C-12.0371 -788.389 41.7076 -784.698 92.1917 -774.379C139.393 -764.73 184.615 -749.037 230.453 -726.399C355.287 -688.09 584.317 -561.938 673.888 -469.219C788.651 -381.008 771.115 -320.791 744.567 -229.639C736.798 -202.949 727.984 -172.698 721.502 -138.378C715.238 -111.774 709.977 -87.7801 704.893 -64.5836C675.236 70.6271 660.354 138.495 559.808 196.841C494.412 242.808 399.616 241.548 331.609 232.405L331.394 232.393C241.264 235.48 142.391 226.176 37.5201 204.74ZM92.5465 -775.433C41.8579 -785.795 -12.0897 -789.503 -72.3747 -786.772C-212.825 -779.991 -344.304 -748.744 -442.603 -698.793C-533.942 -655.955 -593.325 -609.157 -624.119 -555.738C-656.12 -502.39 -666.043 -433.094 -654.454 -343.892C-655.582 -279.228 -644.595 -216.367 -622.678 -162.159C-600.867 -108.197 -568.71 -63.9721 -529.69 -34.2623C-489.725 1.64308 -443.11 30.5004 -373.866 62.1883C-302.431 106.499 -197.036 147.442 -69.1791 180.537C-33.16 190.231 2.62506 198.731 37.1661 205.792C142.187 227.259 241.223 236.581 331.526 233.503C399.921 242.686 495.217 243.915 561.004 197.669C661.912 139.117 676.827 71.1246 706.535 -64.328C711.62 -87.5268 716.878 -111.511 723.143 -138.13C729.622 -172.431 738.43 -202.664 746.202 -229.341C772.841 -320.812 790.44 -381.245 675.181 -469.826C634.275 -512.182 557.982 -566.587 465.956 -619.02C379.534 -668.26 291.773 -708.749 231.191 -727.332C185.354 -749.991 139.949 -765.744 92.5465 -775.433Z" fill="#EDE9F6"/>
<path d="M-5.64846 189.268C-26.084 185.09 -46.8869 180.395 -67.4867 175.32C-195.716 144.979 -300.166 103.438 -369.569 55.1843C-431.076 23.7608 -475.894 -7.09204 -514.992 -44.9176C-589.825 -105.445 -635.738 -216.255 -637.852 -341.381C-653.485 -429.485 -647.364 -497.423 -619.143 -549.138C-591.554 -602.133 -535.164 -648.434 -446.75 -690.694C-346.38 -742.705 -211.87 -774.274 -67.9757 -779.604C-11.9812 -781.518 38.2533 -777.739 85.6026 -768.059C137.315 -757.487 186.812 -739.395 236.929 -712.746C354.044 -674.148 569.538 -552.681 654.318 -465.834C765.525 -379.891 751.72 -320.287 730.802 -230.078C725.276 -206.225 719.003 -179.19 714.48 -149.109C709.715 -125.734 705.675 -104.408 701.771 -83.7858C677.668 43.3367 664.394 113.363 569.194 170.755C505.889 217.743 411.618 220.467 343.671 214.48C234.931 222.92 117.471 214.438 -5.64846 189.268ZM85.958 -769.115C38.4165 -778.835 -12.0156 -782.627 -68.2085 -780.706C-212.419 -775.367 -347.228 -743.724 -447.814 -691.602C-536.461 -649.231 -593.025 -602.774 -620.71 -549.589C-649.016 -497.729 -655.165 -429.627 -639.505 -341.403C-637.391 -216.082 -591.327 -104.994 -516.284 -44.3052C-477.119 -6.40757 -432.173 24.5321 -370.611 55.9765C-301.119 104.304 -196.415 145.953 -67.9321 176.353C-47.3026 181.437 -26.46 186.14 -6.00312 190.322C117.345 215.54 235.032 224.036 343.807 215.579C411.921 221.593 506.732 218.843 570.42 171.569C665.969 113.966 679.27 43.8099 703.417 -83.5512C707.324 -104.173 711.366 -125.494 716.122 -148.89C720.645 -178.954 726.913 -205.972 732.445 -229.815C753.427 -320.339 767.286 -380.143 655.609 -466.444C615.449 -507.588 545.16 -558.228 457.756 -608.967C377.432 -655.595 295.172 -694.731 237.718 -713.658C187.588 -740.334 137.894 -758.498 85.958 -769.115Z" fill="#EDE9F6"/>
<path d="M-40.9871 176.36C-49.7354 174.571 -58.5898 172.671 -67.3015 170.715C-196.628 142.88 -300.274 100.686 -367.032 48.689C-420.982 17.8307 -463.91 -15.1562 -502.242 -55.1906C-571.706 -115.178 -617.013 -221.269 -623.481 -339.03C-643.505 -427.34 -641.215 -492.144 -616.282 -543.026C-591.843 -595.741 -538.31 -641.667 -452.625 -683.444C-351.537 -736.821 -210.185 -769.618 -64.7857 -773.442C-12.5109 -774.674 34.5113 -770.852 78.9636 -761.763C135.634 -750.176 187.509 -730.25 242.225 -699.053C352.241 -659.977 551.082 -545.825 633.248 -462.559C741.081 -378.701 731.129 -319.518 716.067 -229.928C712.585 -209.189 708.636 -185.688 705.881 -160.115C702.56 -140.243 699.689 -121.866 696.924 -104.094C677.654 19.5648 667.047 87.6809 577.081 144.259C515.953 192.206 422.249 198.924 354.4 196.125C230.649 210.795 93.98 203.956 -40.9871 176.36ZM79.3187 -762.819C34.6773 -771.946 -12.5286 -775.784 -64.9947 -774.545C-210.718 -770.715 -352.396 -737.831 -453.706 -684.337C-539.627 -642.451 -593.332 -596.361 -617.865 -543.444C-642.876 -492.409 -645.186 -427.446 -625.128 -339.024C-618.655 -221.096 -573.21 -114.747 -503.567 -54.6124C-465.187 -14.5172 -422.142 18.5567 -368.151 49.4283C-301.266 101.531 -197.332 143.859 -67.6954 171.76C-58.9776 173.717 -50.1073 175.618 -41.3406 177.411C93.8917 205.061 230.815 211.911 354.633 197.216C422.652 200.042 516.861 193.275 578.335 145.056C668.634 88.2649 679.271 20.0168 698.574 -103.883C701.341 -121.652 704.202 -140.029 707.533 -159.913C710.289 -185.488 714.236 -208.983 717.717 -229.707C725.502 -276.018 731.655 -312.593 722.481 -349.034C712.576 -388.377 685.46 -423.581 634.542 -463.17C595.775 -502.456 529.585 -550.696 448.215 -598.938C374.045 -642.91 297.358 -680.666 243.074 -699.94C188.322 -731.176 136.237 -751.181 79.3187 -762.819Z" fill="#EDE9F6"/>
<path d="M-77.4753 165.161C-203.197 139.453 -302.369 97.2975 -364.264 43.2442C-412.074 12.4723 -450.603 -20.752 -489.28 -64.5541C-553.459 -124.148 -598.136 -225.693 -608.843 -336.241C-633.079 -423.69 -634.408 -487.409 -613.047 -536.832C-592.04 -588.622 -539.87 -635.571 -457.968 -676.401C-354.637 -732.024 -209.895 -765.316 -60.8325 -767.748C-11.8837 -768.425 32.2505 -764.591 74.0898 -756.036C134.765 -743.629 190.161 -721.31 248.412 -685.79C354.96 -644.816 533.498 -539.342 613.197 -459.401C718.035 -377.213 712.419 -321.168 703.117 -228.315C701.306 -210.202 699.43 -191.482 698.187 -170.728C696.163 -154.675 694.397 -139.573 692.671 -124.97C678.481 -4.01241 670.661 62.6131 585.654 118.711C526.678 167.681 433.472 178.451 365.656 178.875C227.291 200.667 77.8119 196.656 -66.7898 167.294C-70.3847 166.591 -73.9361 165.884 -77.4753 165.161ZM74.4459 -757.095C32.4268 -765.687 -11.8857 -769.533 -61.0144 -768.854C-210.418 -766.417 -355.497 -733.042 -459.056 -677.294C-541.199 -636.345 -593.555 -589.214 -614.645 -537.214C-636.075 -487.635 -634.756 -423.761 -610.486 -336.2C-599.773 -225.513 -554.966 -123.735 -490.645 -64.0123C-451.925 -20.1552 -413.299 13.1519 -365.458 43.9352C-303.416 98.1252 -203.925 140.434 -77.8307 166.217C-74.2854 166.942 -70.7278 167.65 -67.1314 168.349C77.7499 197.77 227.527 201.787 365.997 179.965C433.974 179.555 527.642 168.718 586.923 119.491C672.268 63.1747 680.099 -3.58946 694.333 -124.785C696.043 -139.392 697.817 -154.488 699.841 -170.56C701.082 -191.326 702.965 -210.04 704.772 -228.141C709.42 -274.536 713.089 -311.178 702.529 -347.404C691.15 -386.473 663.998 -421.2 614.483 -460.018C577.117 -497.504 514.999 -543.411 439.641 -589.218C371.618 -630.566 300.461 -666.994 249.305 -686.654C191.009 -722.222 135.389 -744.633 74.4459 -757.095Z" fill="#EDE9F6"/>
<path d="M-94.3274 157.963C-213.21 133.651 -305.599 91.9085 -361.505 37.2496C-402.369 7.54945 -437.815 -26.8772 -476.517 -74.4473C-535.597 -133.717 -579.761 -230.658 -594.694 -333.813C-623.702 -421.541 -628.558 -482.282 -610.448 -530.845C-592.579 -582.385 -543.267 -628.993 -463.881 -669.398C-358.242 -727.201 -209.985 -760.908 -57.0959 -761.88C-11.1199 -762.067 30.4365 -758.228 69.938 -750.15C134.498 -736.947 193.221 -712.201 254.744 -672.276C353.535 -630.992 516.968 -532.083 593.791 -456.022C696.343 -375.04 694.801 -318.485 692.261 -224.787C691.894 -210.976 691.496 -196.685 691.416 -181.313C690.508 -169.556 689.693 -158.233 688.906 -147.342C680.339 -28.4347 675.617 37.0614 595.231 92.914C538.429 142.793 445.617 157.602 377.759 161.253C233.297 189.214 79.9454 189.931 -65.8969 163.347C-75.4758 161.675 -85.0401 159.862 -94.3274 157.963ZM70.2927 -751.204C30.6203 -759.317 -11.1009 -763.171 -57.2592 -762.984C-210.5 -762.006 -359.105 -728.222 -464.981 -670.286C-544.62 -629.76 -594.115 -582.954 -612.062 -531.195C-630.229 -482.471 -625.377 -421.572 -596.331 -333.735C-581.383 -230.468 -537.113 -133.322 -477.916 -73.9439C-439.184 -26.3264 -403.656 8.17532 -362.765 37.8834C-306.7 92.7107 -213.97 134.621 -94.6813 159.015C-85.3696 160.919 -75.784 162.736 -66.1807 164.413C79.937 191.052 233.609 190.332 378.189 162.332C446.21 158.688 539.448 143.795 596.532 93.6707C677.253 37.5976 681.98 -28.0384 690.567 -147.19C691.354 -158.083 692.168 -169.401 693.075 -181.185C693.155 -196.576 693.544 -210.859 693.924 -224.671C695.189 -271.568 696.202 -308.602 684.051 -344.86C670.952 -383.915 643.517 -418.389 595.077 -456.636C518.189 -532.766 354.484 -631.845 255.689 -673.118C194.102 -713.104 135.139 -737.943 70.2927 -751.204Z" fill="#EDE9F6"/>
<path d="M-107.303 151.551C-221.034 128.291 -307.931 86.6284 -358.602 31.0602C-398.949 -2.27922 -429.69 -39.2218 -463.452 -84.4575C-518.297 -144.412 -560.783 -234.389 -580.059 -331.362C-602.61 -389.799 -626.063 -464.521 -607.296 -524.736C-592.604 -575.993 -546.203 -622.249 -469.38 -662.22C-363.128 -721.316 -207.617 -756.312 -53.3723 -755.839C-10.1379 -755.62 29.0234 -751.799 66.3451 -744.166C135.486 -730.026 195.436 -703.667 260.714 -658.682C353.312 -616.39 501.047 -523.588 573.581 -452.728C674.624 -372.228 677.514 -314.352 682.305 -218.46C682.737 -209.983 683.17 -201.221 683.686 -192.131C683.549 -185.297 683.435 -178.597 683.306 -172.05C681.226 -58.0631 679.962 10.7378 603.896 66.7705C549.347 117.489 457.021 136.364 389.162 143.276C241.152 177.007 79.8312 182.617 -65.2082 159.104C-79.5146 156.88 -93.6783 154.338 -107.303 151.551ZM66.6996 -745.22C29.2132 -752.887 -10.1082 -756.726 -53.5081 -756.948C-125.829 -757.165 -200.719 -749.489 -270.103 -734.738C-346.992 -718.394 -414.41 -694.298 -470.487 -663.107C-547.583 -622.992 -594.165 -576.538 -608.926 -525.047C-627.758 -464.618 -604.262 -389.733 -581.686 -331.245C-562.397 -234.185 -519.817 -144.041 -464.889 -83.9939C-431.108 -38.7298 -400.311 -1.72 -359.927 31.6367C-309.085 87.4026 -221.828 129.255 -107.658 152.605C-93.9962 155.399 -79.7922 157.947 -65.4522 160.178C6.86731 171.905 82.5507 176.546 159.488 173.971C237.445 171.365 314.893 161.396 389.689 144.347C457.696 137.43 550.429 118.458 605.22 67.5074C681.615 11.2411 682.88 -57.7078 684.973 -171.937C685.083 -178.486 685.209 -185.181 685.348 -192.041C684.823 -201.162 684.392 -209.923 683.965 -218.395C679.164 -314.537 676.265 -372.57 574.87 -453.343C502.261 -524.269 354.307 -617.216 261.712 -659.498C196.339 -704.551 136.155 -731.016 66.6996 -745.22Z" fill="#EDE9F6"/>
<path d="M-118.153 145.554C-227.939 123.098 -310.292 81.2668 -356.301 24.5874C-393.918 -11.0127 -421.658 -51.6702 -451.022 -94.7152C-500.993 -154.791 -542.924 -240.204 -566.091 -329.095C-593.321 -390.459 -619.196 -460.927 -604.834 -518.746C-593.351 -569.69 -549.864 -615.571 -475.577 -655.106C-367.165 -716.319 -208.209 -751.71 -50.354 -749.791C-9.63148 -749.216 27.3369 -745.425 62.6707 -738.198C135.372 -723.328 198.083 -694.613 265.994 -645.093C351.839 -601.977 482.49 -517.066 552.731 -449.472C653.9 -368.082 661.792 -307.337 674.87 -206.692L675.348 -203.042L675.489 -200.099C680.973 -85.575 684.289 -16.4459 611.958 40.4372C559.721 91.9092 467.859 114.863 399.988 125.065C246.546 164.977 81.4144 175.441 -65.1005 154.559C-83.2795 152.066 -101.125 149.037 -118.153 145.554ZM63.0258 -739.254C27.5364 -746.513 -9.58676 -750.319 -50.4724 -750.893C-208.697 -752.82 -368.034 -717.339 -476.699 -655.986C-551.265 -616.292 -594.93 -570.21 -606.475 -519.014C-620.89 -460.978 -594.961 -390.36 -567.704 -328.932C-544.526 -239.986 -502.52 -154.439 -452.488 -94.2896C-423.12 -51.2365 -395.349 -10.5289 -357.691 25.104C-311.497 82.02 -228.769 124.054 -118.507 146.607C-101.427 150.101 -83.5262 153.139 -65.2969 155.637C81.5244 176.567 246.986 166.081 400.599 126.119C468.618 115.902 560.849 92.8462 613.314 41.1537C685.965 -15.9819 682.644 -85.2623 677.143 -200.035L676.998 -203.007L676.52 -206.691C663.414 -307.565 655.502 -368.446 554.022 -450.083C483.708 -517.742 352.88 -602.778 267.039 -645.877C199.026 -695.488 136.063 -724.315 63.0258 -739.254Z" fill="#EDE9F6"/>
<path d="M-126.161 141.146C-232.79 119.334 -311.202 77.1556 -352.931 19.1703C-380.749 -11.3285 -401.909 -45.9489 -424.314 -82.598C-428.592 -89.5974 -432.948 -96.7199 -437.438 -103.969C-482.992 -165.003 -524.321 -245.907 -550.841 -325.965C-581.386 -386.681 -611.209 -456.209 -600.992 -512.02C-592.718 -562.681 -552.144 -608.224 -480.382 -647.381C-369.83 -710.78 -207.473 -746.635 -46.0756 -743.293C-7.66642 -742.431 27.2817 -738.687 60.7566 -731.839C136.891 -716.265 202.16 -685.183 272.375 -631.062C350.57 -587.521 465.074 -509.918 532.825 -445.702C629.036 -367.346 647.993 -305.631 667.796 -213.295C681.48 -108.169 686.531 -40.8811 620.738 14.9579C570.824 67.1708 479.441 94.2626 411.563 107.804C252.885 153.999 84.0055 169.363 -64.0748 151.087C-85.5132 148.534 -106.402 145.188 -126.161 141.146ZM61.1108 -732.892C27.4866 -739.771 -7.60172 -743.534 -46.1686 -744.401C-207.957 -747.743 -370.695 -711.801 -481.509 -648.252C-553.566 -608.933 -594.326 -563.17 -602.64 -512.243C-612.896 -456.219 -583.014 -386.538 -552.437 -325.76C-525.908 -245.671 -484.531 -164.67 -438.935 -103.586C-434.472 -96.3813 -430.119 -89.2595 -425.844 -82.263C-403.409 -45.5643 -382.22 -10.9063 -354.375 19.6273C-334.242 47.6051 -305.091 72.2424 -267.768 92.8006C-228.48 114.44 -180.954 131.061 -126.514 142.197C-106.688 146.253 -85.7341 149.607 -64.2279 152.172C84.164 170.489 253.378 155.099 412.252 108.845C480.279 95.2761 572 68.0714 622.118 15.6502C688.223 -40.4478 683.164 -107.907 669.44 -213.323C649.599 -305.892 630.586 -367.75 534.108 -446.32C466.308 -510.587 351.66 -588.293 273.477 -631.812C203.125 -686.049 137.596 -717.247 61.1108 -732.892Z" fill="#EDE9F6"/>
<path d="M-133.415 135.846C-237.632 114.524 -312.723 71.8503 -350.556 12.4414C-371.529 -14.5073 -387.437 -44.4733 -404.282 -76.2004C-410.865 -88.5996 -417.674 -101.423 -425.029 -114.543C-455.735 -160.988 -500.073 -235.024 -537.035 -324.166C-572.758 -387.253 -604.939 -452.98 -598.753 -506.607C-593.742 -556.964 -556.041 -602.15 -486.704 -640.902C-373.907 -706.451 -207.97 -742.707 -42.8022 -737.88C-6.98057 -736.781 27.095 -732.971 58.4655 -726.552C138.049 -710.271 205.824 -676.801 278.228 -618.033C342.822 -577.845 442.944 -507.912 512.825 -442.88C602.312 -369.07 633.746 -309.185 660.455 -224.477C683.928 -123.782 685.627 -63.1876 629.776 -11.5001C582.175 41.3489 491.167 72.5812 423.191 89.4778C259.23 141.918 86.3838 162.12 -63.5826 146.377C-87.885 143.899 -111.379 140.354 -133.415 135.846ZM58.8196 -727.606C27.3088 -734.052 -6.9078 -737.88 -42.8751 -738.982C-119.495 -741.221 -199.646 -734.253 -274.67 -718.835C-356.218 -702.073 -429.935 -675.42 -487.843 -641.77C-557.493 -602.842 -595.369 -557.426 -600.409 -506.781C-606.616 -452.947 -574.375 -387.077 -538.606 -323.915C-501.641 -234.753 -457.267 -160.659 -426.557 -114.208C-419.227 -101.13 -412.422 -88.3117 -405.837 -75.917C-388.976 -44.1525 -373.048 -14.1485 -352.047 12.8349C-333.792 41.5005 -306.413 66.6157 -270.691 87.4363C-233.066 109.366 -187.001 126.008 -133.769 136.899C-111.651 141.424 -88.0752 144.978 -63.695 147.468C86.5954 163.246 259.772 143.012 423.952 90.4996C492.082 73.5617 583.402 42.2161 631.177 -10.8398C658.896 -36.4771 673.379 -65.7469 676.726 -102.913C680.081 -140.25 671.673 -183.45 662.086 -224.577C635.308 -309.498 603.797 -369.521 514.104 -443.496C444.185 -508.57 343.959 -578.58 279.383 -618.743C206.822 -677.657 138.769 -711.249 58.8196 -727.606Z" fill="#EDE9F6"/>
<path d="M-139.357 131.835C-241.465 110.942 -313.457 67.71 -347.553 6.80708C-363.4 -17.5002 -375.277 -44.1716 -387.853 -72.407C-395.267 -89.0528 -402.933 -106.271 -411.833 -123.961C-418.667 -135.883 -425.879 -148.319 -433.364 -161.228C-461.217 -209.258 -492.78 -263.694 -522.196 -321.142C-567.698 -393.229 -597.534 -451.199 -595.318 -499.902C-593.567 -549.935 -558.783 -594.76 -491.927 -633.125C-378.738 -699.83 -205.193 -737.429 -39.0111 -731.261C-5.13951 -729.956 27.151 -726.205 56.9555 -720.107C140.924 -702.926 208.852 -668.173 284.098 -603.908C312.608 -583.846 411.7 -512.81 492.437 -439.064C571.811 -372.527 618.156 -313.339 652.437 -234.745C677.574 -165.542 693.24 -93.6819 638.072 -37.0862C602.278 5.1973 531.835 42.9252 434.331 72.0437C265.403 130.772 88.8126 155.845 -62.9263 142.656C-89.7199 140.369 -115.433 136.73 -139.357 131.835ZM57.3101 -721.162C27.3747 -727.287 -5.05377 -731.054 -39.0655 -732.358C-117.068 -735.256 -198.917 -728.517 -275.775 -712.868C-359.185 -695.887 -434.325 -668.609 -493.078 -633.984C-560.257 -595.433 -595.214 -550.362 -596.972 -500.03C-599.203 -451.126 -569.307 -393.027 -523.739 -320.832C-494.335 -263.401 -462.762 -208.953 -434.903 -160.912C-427.42 -148.006 -420.212 -135.571 -413.388 -123.675C-404.513 -106.027 -396.85 -88.8213 -389.439 -72.1836C-376.844 -43.9102 -364.951 -17.2065 -349.081 7.13933C-332.631 36.5289 -306.92 62.1487 -272.676 83.2706C-236.601 105.524 -191.866 122.216 -139.711 132.888C-115.693 137.802 -89.8802 141.457 -62.9914 143.751C89.0705 156.967 265.989 131.857 435.154 73.0438C532.904 43.8521 603.592 5.98523 639.511 -36.4547C663.742 -61.3128 676.052 -90.1013 677.092 -124.438C677.996 -154.04 670.673 -189.151 654.035 -234.937C619.672 -313.722 573.234 -373.031 493.722 -439.689C412.946 -513.465 313.779 -584.549 285.31 -604.579C209.873 -669.019 141.665 -703.902 57.3101 -721.162Z" fill="#EDE9F6"/>
<path d="M-144.61 127.926C-243.617 107.665 -314.744 62.5689 -344.887 0.944896C-356.759 -21.3218 -365.457 -45.5225 -374.665 -71.1475C-381.931 -91.3604 -389.442 -112.267 -399.046 -133.732C-424.241 -185.733 -460.826 -243.855 -499.551 -305.389L-507.894 -318.646C-549.948 -378.797 -591.107 -441.863 -592.496 -493.888C-594.034 -543.632 -562.128 -588.135 -497.661 -626.157C-382.285 -695.058 -205.112 -733.13 -35.2797 -725.516C-3.17856 -724.044 27.4821 -720.35 55.8558 -714.544C165.62 -692.081 235.942 -639.253 290.248 -590.539C326.063 -561.641 397.332 -503.158 472.564 -435.854C536.107 -381.553 600.979 -320.912 645.106 -245.423C686.705 -167.641 687.322 -109.643 647.035 -62.9128C612.62 -19.5901 544.964 19.8945 445.935 54.4605C271.968 119.539 91.4754 149.501 -62.3002 138.834C-91.3583 136.827 -119.049 133.157 -144.61 127.926ZM56.2098 -715.597C27.7112 -721.429 -3.08438 -725.138 -35.3159 -726.62C-205.558 -734.247 -383.163 -696.082 -498.824 -627.009C-563.627 -588.791 -595.704 -544.024 -594.157 -493.968C-592.758 -441.718 -551.522 -378.525 -509.406 -318.279L-501.076 -305.041C-462.358 -243.533 -425.794 -185.435 -400.628 -133.493C-391.04 -112.069 -383.535 -91.1817 -376.278 -70.9827C-367.053 -45.3276 -358.347 -21.096 -346.451 1.21451C-331.694 31.3835 -307.511 57.5742 -274.577 79.054C-239.871 101.685 -196.265 118.484 -144.964 128.982C-119.3 134.234 -91.4936 137.918 -62.3273 139.933C91.7744 150.617 272.601 120.613 446.826 55.4435C546.099 20.7892 613.964 -18.8321 648.511 -62.3123C689.019 -109.313 688.437 -167.597 646.65 -245.725C602.432 -321.377 537.474 -382.11 473.85 -436.471C398.601 -503.784 327.312 -562.285 291.521 -591.167C237.061 -640.024 166.489 -693.029 56.2098 -715.597Z" fill="#EDE9F6"/>
<path d="M-149.09 124.181C-246.686 104.206 -315.194 58.364 -341.996 -4.90049C-350.669 -25.488 -356.77 -47.7112 -363.231 -71.2362C-369.64 -94.5952 -376.271 -118.749 -386.006 -143.464C-404.899 -191.415 -436.988 -243.041 -493.302 -316.081C-541.023 -378.063 -584.273 -437.833 -589.337 -487.767C-594.172 -537.207 -565.152 -581.38 -503.075 -619.066C-385.548 -690.165 -204.804 -728.704 -31.3762 -719.65C-0.943277 -718.039 28.1871 -714.414 55.2141 -708.882C169.091 -685.574 241.067 -629.173 296.45 -577.077C305.455 -568.592 314.644 -559.88 324.058 -550.947C361.597 -515.353 404.138 -475.008 452.657 -432.583C464.15 -422.536 476.151 -412.226 487.76 -402.255C541.976 -355.679 598.035 -307.522 637.693 -256.08C684.417 -195.423 690.884 -136 655.902 -88.7618C623.38 -45.0725 556.634 -2.81124 457.511 36.8493C278.615 108.278 94.2775 143.139 -61.5598 135.003C-92.6701 133.343 -122.12 129.701 -149.09 124.181ZM55.5689 -709.938C28.4231 -715.494 -0.836012 -719.134 -31.3923 -720.755C-205.241 -729.827 -386.428 -691.189 -504.25 -619.911C-566.678 -582.015 -595.86 -537.564 -590.989 -487.794C-585.901 -437.642 -542.57 -377.743 -494.763 -315.649C-438.513 -242.688 -406.465 -191.139 -387.611 -143.275C-377.89 -118.603 -371.265 -94.4715 -364.858 -71.1325C-358.393 -47.5801 -352.284 -25.3333 -343.585 -4.6894C-330.461 26.2855 -307.731 53.07 -276.013 74.9306C-242.586 97.9587 -200.005 114.886 -149.444 125.235C-122.353 130.78 -92.7766 134.436 -61.5428 136.106C16.0546 140.155 101.018 133.542 190.999 116.448C280.257 99.4896 370.235 73.0302 458.456 37.8094C557.816 -1.94802 624.751 -44.3453 657.404 -88.2019C692.614 -135.748 686.136 -195.528 639.152 -256.516C599.419 -308.054 543.303 -356.264 489.037 -402.884C477.429 -412.851 465.434 -423.156 453.953 -433.201C405.44 -475.606 362.914 -515.938 325.384 -551.527C315.977 -560.454 306.777 -569.173 297.776 -577.66C242.205 -629.935 169.977 -686.522 55.5689 -709.938Z" fill="#EDE9F6"/>
<path d="M-146.901 110.45C-244.047 90.5609 -311.781 46.3377 -337.622 -14.0762C-346.791 -35.4724 -352.957 -58.2727 -359.483 -82.4083C-365.293 -103.893 -371.3 -126.11 -379.886 -149.001C-383.961 -159.723 -388.88 -171.004 -394.506 -182.532C-413.161 -220.757 -439.722 -262.294 -480.625 -317.216C-525.346 -377.485 -565.824 -435.61 -569.873 -484.302C-573.734 -532.437 -545.251 -575.417 -485.217 -612.052C-416.054 -654.316 -325.963 -683.778 -224.688 -697.258C-159.88 -706.311 -90.8441 -708.85 -25.0247 -704.607C3.99228 -702.869 31.8824 -699.29 57.8621 -693.971C127.67 -679.679 187.672 -652.583 246.682 -608.699C262.818 -596.634 279.134 -583.116 296.55 -567.379C310.345 -555.067 324.367 -542.381 339.217 -528.953C372.51 -498.857 410.228 -464.743 451.669 -429.23C458.469 -423.439 465.335 -417.621 472.243 -411.771C519.211 -371.982 567.786 -330.836 606.287 -287.364C615.438 -277.041 623.809 -266.83 631.155 -257.013C675.505 -198.012 681.24 -140.04 647.316 -93.779C615.578 -50.6326 551.057 -9.08766 455.566 29.7055C391.801 56.0987 322.275 77.5342 248.92 93.4201C197.905 104.691 145.735 112.971 93.8663 118.029C41.784 123.073 -6.95981 124.115 -59.5449 121.3C-90.4724 119.635 -119.867 115.985 -146.901 110.45ZM58.2153 -695.022C32.1197 -700.364 4.11236 -703.963 -25.0205 -705.706C-90.9945 -709.963 -160.204 -707.411 -225.156 -698.339C-326.697 -684.824 -417.037 -655.279 -486.396 -612.898C-546.773 -576.056 -575.413 -532.802 -571.527 -484.342C-567.461 -435.428 -526.907 -377.183 -482.097 -316.799C-441.236 -261.929 -414.706 -220.442 -396.076 -182.278C-390.466 -170.775 -385.557 -159.521 -381.489 -148.824C-372.92 -125.971 -366.919 -103.775 -361.115 -82.3106C-354.581 -58.1417 -348.407 -35.3178 -339.212 -13.8629C-313.193 46.9634 -245.02 91.4877 -147.255 111.504C-120.099 117.063 -90.5856 120.728 -59.537 122.401C-6.82311 125.22 42.048 124.178 94.2484 119.121C146.208 114.055 198.461 105.76 249.563 94.4715C323.025 78.5612 392.663 57.0928 456.528 30.662C552.253 -8.22646 616.951 -49.9099 648.82 -93.2259C682.961 -139.792 677.219 -198.11 632.629 -257.434C625.258 -267.276 616.87 -277.513 607.697 -287.854C569.135 -331.402 520.526 -372.579 473.511 -412.405C466.603 -418.252 459.733 -424.07 452.943 -429.862C411.517 -465.36 375.426 -497.995 340.517 -529.555C325.671 -542.985 311.649 -555.671 297.851 -567.984C280.396 -583.753 264.05 -597.296 247.874 -609.387C188.626 -653.453 128.361 -680.661 58.2153 -695.022Z" fill="#EDE9F6"/>
<path d="M-145.358 96.6002C-241.88 76.8328 -308.729 34.2794 -333.588 -23.2206C-343.286 -45.4618 -349.486 -68.8259 -356.052 -93.5638C-361.246 -113.133 -366.613 -133.367 -374.074 -154.355C-377.861 -164.733 -382.447 -175.697 -387.707 -186.953C-405.146 -224.283 -429.962 -264.696 -468.175 -317.983C-509.866 -376.463 -547.538 -432.877 -550.569 -480.282C-553.445 -527.064 -525.535 -568.803 -467.598 -604.345C-399.559 -646.338 -311.525 -674.211 -213.019 -684.957C-150.659 -692.579 -85.511 -693.855 -19.3689 -688.74C8.18328 -686.888 34.7637 -683.364 59.6354 -678.27C127.884 -664.293 187.183 -638.229 246.266 -596.245C262.285 -584.749 278.441 -571.914 295.663 -557.004C316.068 -539.785 337.155 -521.585 359.471 -502.317C387.862 -477.805 417.215 -452.462 449.547 -425.344L453.01 -422.468C504.901 -379.459 558.549 -334.985 599.714 -287.242C608.389 -277.201 616.34 -267.224 623.324 -257.605C665.251 -200.322 670.264 -143.87 637.427 -98.6437C606.501 -56.0848 544.288 -15.3024 452.525 22.5765C391.394 48.7832 324.324 68.8662 247.477 83.9881C197.899 94.1549 147.562 101.36 93.5932 106.026C44.6376 110.194 -0.744489 110.632 -58.1397 107.488C-88.8879 105.819 -118.23 102.156 -145.358 96.6002ZM59.9897 -679.324C35.0083 -684.441 8.31825 -687.978 -19.3375 -689.842C-85.6303 -694.963 -150.942 -693.684 -213.443 -686.04C-312.228 -675.268 -400.53 -647.312 -468.783 -605.186C-527.046 -569.44 -555.123 -527.436 -552.224 -480.335C-549.179 -432.721 -511.428 -376.182 -469.656 -317.584C-431.484 -264.351 -406.697 -223.987 -389.284 -186.714C-384.036 -175.482 -379.462 -164.539 -375.683 -154.188C-368.235 -133.237 -362.869 -113.019 -357.682 -93.4687C-351.113 -68.7034 -344.901 -45.3054 -335.176 -23.0056C-322.952 5.2687 -300.494 30.0915 -268.42 50.7741C-235.628 71.9214 -194.341 87.6931 -145.712 97.6523C-118.465 103.232 -88.997 106.909 -58.1248 108.586C-0.604698 111.736 44.878 111.299 93.9493 107.116C148.008 102.445 198.427 95.2276 248.085 85.0479C325.063 69.9021 392.258 49.7768 453.495 23.5241C545.491 -14.4476 607.887 -55.3648 638.931 -98.0911C671.986 -143.616 666.97 -200.411 624.802 -258.013C617.799 -267.662 609.829 -277.653 601.129 -287.725C559.896 -335.548 506.197 -380.061 454.259 -423.114L450.808 -425.979C418.492 -453.088 389.138 -478.434 360.748 -502.94C338.426 -522.211 317.343 -540.413 296.933 -557.636C279.687 -572.563 263.496 -585.427 247.432 -596.956C188.116 -639.108 128.555 -665.282 59.9897 -679.324Z" fill="#EDE9F6"/>
<path d="M-144.042 82.6654C-238.647 63.2835 -306.428 21.2719 -330.009 -32.5993C-340.312 -55.7823 -346.527 -79.751 -353.109 -105.128C-357.689 -122.789 -362.422 -141.044 -368.818 -160.1C-372.34 -170.157 -376.605 -180.824 -381.497 -191.804C-397.756 -228.283 -420.884 -267.618 -456.489 -319.344C-495.242 -376.106 -530.197 -430.875 -532.23 -477.058C-534.141 -522.543 -506.75 -563.085 -450.83 -597.56C-383.801 -639.32 -297.675 -665.625 -201.75 -673.635C-142.725 -679.744 -79.4806 -679.81 -13.7498 -673.847C12.3519 -671.882 37.6319 -668.411 61.4058 -663.541C128.241 -649.848 186.996 -624.766 246.323 -584.607C262.264 -573.651 278.302 -561.48 295.346 -547.396C325.691 -523.266 357.747 -496.76 391.687 -468.704C409.841 -453.688 428.614 -438.166 448.302 -422.033C500.036 -380.391 553.922 -335.712 594.319 -287.523C602.571 -277.718 610.11 -267.974 616.737 -258.55C656.338 -202.919 660.641 -147.914 628.845 -103.675C598.685 -61.6571 538.669 -21.6005 450.472 15.3889C391.299 41.6258 326.55 60.4208 246.677 74.5374C199.337 83.459 149.301 89.8246 93.6745 94.0004C41.5254 97.8323 -0.9298 96.7691 -56.6472 93.6406C-87.316 91.9561 -116.717 88.2635 -144.042 82.6654ZM61.7591 -664.593C37.8846 -669.484 12.4972 -672.965 -13.699 -674.939C-79.5624 -680.915 -142.967 -680.845 -202.126 -674.727C-298.348 -666.696 -384.766 -640.3 -452.018 -598.397C-508.262 -563.725 -535.809 -522.921 -533.882 -477.125C-531.847 -430.733 -496.823 -375.838 -457.991 -318.966C-422.418 -267.288 -399.316 -228.002 -383.083 -191.584C-378.2 -180.623 -373.947 -169.98 -370.43 -159.948C-364.052 -140.925 -359.315 -122.681 -354.741 -105.04C-348.152 -79.626 -341.926 -55.6234 -331.597 -32.3795C-307.839 21.8961 -239.608 64.2134 -144.396 83.7195C-116.953 89.3419 -87.4254 93.0482 -56.6355 94.7405C-0.822099 97.8742 41.7245 98.9367 94.0062 95.0981C149.717 90.9129 199.841 84.5387 247.242 75.6005C327.269 61.4598 392.159 42.6235 451.456 16.3295C539.881 -20.7465 600.071 -60.942 630.353 -103.129C662.352 -147.665 658.053 -203.001 618.226 -258.948C611.585 -268.389 604.02 -278.162 595.75 -287.99C555.273 -336.271 501.329 -381.004 449.544 -422.685C429.866 -438.811 411.091 -454.334 392.935 -469.344C358.995 -497.411 326.933 -523.918 296.586 -548.043C279.513 -562.155 263.435 -574.354 247.458 -585.339C187.901 -625.656 128.896 -650.838 61.7591 -664.593Z" fill="#EDE9F6"/>
<path d="M-143.096 69.6637C-236.902 50.44 -303.64 10.0991 -326.199 -41.0221C-337.108 -65.2357 -343.263 -89.8408 -349.782 -115.891C-353.722 -131.635 -357.797 -147.919 -363.135 -165.002C-366.367 -174.733 -370.291 -185.107 -374.81 -195.839C-389.817 -231.488 -411.176 -269.772 -444.073 -319.98C-478.345 -372.856 -511.892 -428.24 -512.857 -473.223C-513.75 -517.462 -486.897 -556.869 -433.044 -590.349C-367.105 -631.96 -282.996 -656.778 -189.815 -662.123C-134.35 -666.786 -73.1172 -665.692 -7.7855 -658.874C16.7754 -656.815 40.666 -653.427 63.236 -648.802C128.568 -635.414 186.709 -611.313 246.205 -572.958C262.021 -562.554 277.891 -551.04 294.736 -537.76C341.868 -502.451 392.628 -461.758 446.371 -418.673C494.126 -381.303 548.274 -336.52 587.852 -287.699C595.648 -278.136 602.761 -268.613 609.004 -259.38C646.165 -205.366 649.698 -151.755 618.942 -108.425C589.565 -66.8825 531.807 -27.4713 447.279 8.71684C389.765 35.1914 327.387 52.7911 245.011 65.7929C199.604 73.6388 151.346 79.0426 93.1498 82.805C39.7491 86.1458 -0.832193 83.8279 -52.2209 80.8961L-55.5189 80.7054C-86.1005 79.0226 -115.563 75.3062 -143.096 69.6637ZM63.5896 -649.855C40.9222 -654.5 16.9364 -657.905 -7.70215 -659.966C-73.1625 -666.797 -134.551 -667.893 -190.134 -663.219C-283.635 -657.862 -368.051 -632.949 -434.235 -591.183C-488.403 -557.51 -515.417 -517.85 -514.514 -473.311C-513.541 -428.117 -479.927 -372.603 -445.583 -319.62C-412.719 -269.462 -391.385 -231.227 -376.399 -195.634C-371.894 -184.918 -367.972 -174.568 -364.753 -164.865C-359.421 -147.812 -355.352 -131.542 -351.415 -115.806C-344.888 -89.7204 -338.723 -65.0768 -327.784 -40.7988C-305.048 10.725 -237.859 51.3695 -143.45 70.7167C-115.798 76.3835 -86.2112 80.1181 -55.5079 81.8064L-52.2129 81.9966C-0.747308 84.932 39.8986 87.251 93.4546 83.9032C151.74 80.1372 200.064 74.7226 245.54 66.8642C328.1 53.8371 390.625 36.1875 448.28 9.65207C533.021 -26.626 590.948 -66.1746 620.453 -107.885C651.409 -151.501 647.872 -205.438 610.506 -259.761C604.243 -269.015 597.099 -278.571 589.292 -288.158C549.636 -337.078 495.414 -381.92 447.596 -419.337C393.854 -462.423 343.078 -503.127 295.927 -538.44C279.077 -551.733 263.172 -563.279 247.309 -573.714C187.583 -612.218 129.205 -636.409 63.5896 -649.855Z" fill="#EDE9F6"/>
<path d="M-141.509 55.823C-234.482 36.7623 -300.191 -1.8533 -321.796 -50.1262C-333.395 -75.3865 -339.468 -100.572 -345.897 -127.238C-349.22 -141.031 -352.654 -155.29 -357.028 -170.317C-360.027 -179.851 -363.533 -189.63 -367.736 -200.221C-381.533 -234.951 -401.188 -272.114 -431.461 -320.711C-462.886 -371.857 -493.563 -425.456 -493.522 -469.182C-493.445 -512.066 -467.152 -550.226 -415.368 -582.591C-350.52 -623.91 -268.41 -647.127 -177.909 -649.731C-125.381 -653.001 -67.7596 -650.767 -1.71595 -642.899C21.2647 -640.759 43.7143 -637.455 65.0406 -633.083C128.968 -619.977 186.616 -596.862 246.451 -560.34C262.175 -550.497 277.903 -539.656 294.545 -527.205C337.042 -497.405 383.475 -462.669 445.114 -414.563C507.913 -367.007 551.509 -326.582 582.308 -287.337C589.667 -278.032 596.368 -268.744 602.24 -259.722C637.04 -207.434 639.865 -155.345 610.202 -113.042C582.019 -72.6683 524.981 -32.9594 445.257 1.78585C374.295 35.5376 300.665 48.7641 244.453 56.5155C189.145 65.1112 134.797 68.733 93.6309 70.9254C47.5492 73.2678 12.0668 71.0551 -29.0119 68.4895C-36.8758 67.9986 -44.9916 67.4924 -53.479 66.9973C-84.06 65.2881 -113.676 61.5293 -141.509 55.823ZM65.3944 -634.137C43.9797 -638.527 21.4396 -641.843 -1.60048 -643.989C-67.7675 -651.868 -125.531 -654.105 -178.167 -650.832C-269.007 -648.218 -351.457 -624.908 -416.562 -583.427C-468.649 -550.865 -495.104 -512.457 -495.175 -469.281C-495.216 -425.349 -464.472 -371.63 -432.986 -320.375C-402.744 -271.823 -383.111 -234.71 -369.335 -200.033C-365.138 -189.463 -361.639 -179.702 -358.651 -170.194C-354.287 -155.196 -350.851 -140.944 -347.53 -127.163C-341.093 -100.455 -335.017 -75.2297 -323.376 -49.8957C-301.598 -1.22876 -235.438 37.6901 -141.862 56.8744C-113.91 62.605 -84.1701 66.382 -53.4727 68.0933C-44.9891 68.5901 -36.8771 69.0979 -29.0216 69.5847C12.1371 72.1545 47.6819 74.3752 93.9036 72.0228C135.133 69.8263 189.556 66.203 244.946 57.5951C301.286 49.8237 375.1 36.5623 446.273 2.7158C526.205 -32.1175 583.416 -71.9629 611.71 -112.505C641.58 -155.083 638.751 -207.499 603.748 -260.084C597.856 -269.126 591.14 -278.445 583.764 -287.777C552.884 -327.109 509.222 -367.613 446.317 -415.24C384.668 -463.362 338.224 -498.108 295.716 -527.91C279.062 -540.375 263.291 -551.242 247.524 -561.113C187.458 -597.772 129.59 -620.976 65.3944 -634.137Z" fill="#EDE9F6"/>
<path d="M-140.632 41.8224C-231.18 23.2517 -297.341 -14.5905 -317.626 -59.4035C-329.948 -85.7872 -335.837 -111.568 -342.073 -138.861C-344.782 -150.717 -347.586 -162.974 -351.033 -175.923C-353.745 -185.111 -356.925 -194.594 -360.75 -204.925C-373.13 -238.311 -391.575 -275.473 -418.8 -321.876C-447.32 -371.328 -475.068 -423.175 -473.978 -465.711C-472.903 -507.293 -447.162 -544.257 -397.47 -575.576C-333.744 -616.669 -253.679 -638.349 -165.93 -638.27C-116.692 -640.196 -62.6259 -636.911 4.26832 -627.93C25.573 -625.734 46.4824 -622.545 66.4504 -618.45C128.967 -605.628 186.128 -583.474 246.356 -548.74C261.963 -539.457 277.539 -529.289 293.956 -517.646C340.133 -487.387 388.953 -452.632 443.23 -411.385C501.7 -368.527 546.345 -326.962 575.929 -287.828C582.831 -278.78 589.116 -269.717 594.61 -260.893C626.988 -210.287 629.067 -159.661 600.46 -118.323C573.072 -78.4669 518.382 -39.4885 442.299 -5.60221C374.213 27.9364 303.384 39.7749 243.083 46.9302C192.391 53.9545 141.195 56.8006 93.4307 58.8299C52.3363 60.4645 21.6856 58.2581 -13.8004 55.7064C-25.8397 54.8377 -38.2873 53.9458 -51.9865 53.1313C-82.6144 51.409 -112.436 47.6051 -140.632 41.8224ZM66.804 -619.504C46.7508 -623.616 25.7608 -626.817 4.41427 -629.014C-62.5879 -638.012 -116.793 -641.301 -166.124 -639.368C-254.237 -639.457 -334.667 -617.679 -398.671 -576.405C-448.655 -544.902 -474.548 -507.7 -475.632 -465.829C-476.724 -423.093 -448.916 -371.125 -420.336 -321.562C-393.14 -275.206 -374.717 -238.089 -362.355 -204.753C-358.533 -194.442 -355.361 -184.975 -352.658 -175.818C-349.215 -162.894 -346.416 -150.643 -343.708 -138.795C-337.464 -111.456 -331.563 -85.6342 -319.203 -59.1701C-308.735 -36.0382 -287.153 -15.1716 -255.066 2.84481C-224.541 19.9862 -185.091 33.8276 -140.985 42.8735C-112.67 48.6805 -82.7245 52.5026 -51.9842 54.2286C-38.291 55.0418 -25.8541 55.9365 -13.8269 56.8027C21.7351 59.3602 52.4489 61.5723 93.6794 59.9293C141.513 57.8973 192.766 55.0459 243.536 48.0133C303.989 40.8385 375.023 28.962 443.324 -4.68499C519.604 -38.6544 574.471 -77.7709 601.972 -117.791C630.772 -159.403 628.695 -210.346 596.123 -261.236C590.614 -270.085 584.307 -279.18 577.39 -288.249C547.735 -327.478 502.99 -369.146 444.427 -412.074C390.118 -453.342 341.269 -488.115 295.09 -518.38C278.658 -530.028 263.036 -540.225 247.383 -549.534C186.94 -584.4 129.57 -606.631 66.804 -619.504Z" fill="#EDE9F6"/>
<path d="M-139.525 27.8696C-228.932 9.52497 -293.833 -26.5482 -313.141 -68.6267C-326.243 -96.1848 -331.621 -121.313 -337.851 -150.412C-339.977 -160.351 -342.175 -170.631 -344.8 -181.485C-347.234 -190.362 -350.097 -199.549 -353.543 -209.587C-364.708 -242.084 -381.383 -278.126 -406.014 -323.012C-431.676 -370.771 -456.553 -420.861 -454.42 -462.224C-452.351 -502.513 -427.156 -538.28 -379.524 -568.531C-316.878 -609.389 -238.792 -629.513 -153.712 -626.727C-95.3113 -627.543 -35.1922 -619.741 10.6654 -612.856C30.2104 -610.625 49.481 -607.576 67.9931 -603.778C129.238 -591.212 186.09 -569.981 246.922 -536.972C262.433 -528.251 277.87 -518.745 294.086 -507.919C343.317 -477.908 391.768 -445.229 442.238 -408C497.742 -368.73 542.121 -327.268 570.601 -288.081C577.059 -279.282 582.926 -270.446 588.057 -261.818C618.063 -212.907 619.413 -163.733 591.855 -123.36C558.236 -73.6568 490.907 -35.7956 440.362 -12.7817C374.65 20.6963 306.466 31.1766 242.576 37.5205C194.182 43.3696 146.64 45.2159 93.9642 46.8728C56.365 47.9467 29.1473 45.6418 -2.37282 42.9745C-17.0799 41.7286 -32.2933 40.4418 -49.9053 39.3768C-80.687 37.6283 -110.84 33.7552 -139.525 27.8696ZM68.3441 -604.824C49.7591 -608.638 30.4162 -611.704 10.8462 -613.938C-35.0639 -620.831 -95.3146 -628.647 -153.847 -627.829C-239.306 -630.626 -317.785 -610.407 -380.73 -569.357C-428.643 -538.927 -453.994 -502.925 -456.071 -462.359C-458.214 -420.802 -433.288 -370.588 -407.567 -322.724C-382.957 -277.882 -366.303 -241.884 -355.153 -209.438C-351.713 -199.413 -348.857 -190.242 -346.429 -181.398C-343.809 -170.564 -341.61 -160.289 -339.486 -150.355C-333.246 -121.206 -327.864 -96.0333 -314.713 -68.39C-295.235 -25.9235 -229.875 10.4547 -139.878 28.9203C-111.071 34.8309 -80.7993 38.7186 -49.8998 40.4744C-32.3197 41.5376 -17.126 42.8252 -2.43111 44.0686C29.1681 46.7425 56.4527 49.0514 94.1834 47.9731C146.931 46.3163 194.524 44.4635 242.989 38.6071C307.057 32.2443 375.458 21.7285 441.409 -11.8699C492.085 -34.9367 559.61 -72.9271 593.381 -122.832C621.117 -163.472 619.77 -212.949 589.587 -262.145C584.444 -270.803 578.547 -279.666 572.077 -288.49C543.519 -327.783 499.024 -369.353 443.401 -408.705C392.912 -445.955 344.421 -478.659 295.171 -508.682C278.946 -519.512 263.475 -529.042 247.91 -537.796C186.874 -570.914 129.817 -592.211 68.3441 -604.824Z" fill="#EDE9F6"/>
<path d="M-139.724 14.6224C-227.875 -3.47392 -291.463 -37.7764 -309.814 -77.134C-323.762 -105.882 -328.813 -131.491 -334.659 -161.14C-336.251 -169.209 -337.898 -177.55 -339.796 -186.337C-341.959 -194.885 -344.507 -203.779 -347.585 -213.542C-357.553 -245.133 -372.482 -280.055 -394.565 -323.449C-417.422 -369.502 -439.467 -417.829 -436.29 -458.037C-433.243 -497.032 -408.572 -531.601 -362.974 -560.775C-301.365 -601.376 -225.199 -619.927 -142.701 -614.426C-93.6278 -613.75 -43.7627 -606.966 16.0272 -596.983C33.6774 -594.758 51.1783 -591.874 68.0853 -588.404C128.213 -576.06 184.971 -555.709 246.706 -524.361C262.161 -516.195 277.47 -507.347 293.491 -497.325C344.963 -468.302 393.1 -437.689 440.691 -403.714C494.395 -367.154 537.338 -326.943 564.894 -287.411C570.921 -278.857 576.385 -270.255 581.142 -261.825C608.833 -214.596 609.481 -166.885 582.952 -127.474C550.299 -78.4272 486.116 -41.4533 438.019 -19.0703C377.819 12.5956 315.918 23.0239 241.493 28.9485C195.192 33.6956 149.244 34.6153 100.597 35.5882L93.7742 35.7238C58.7122 36.3259 34.0378 33.8662 5.46357 31.0147C-10.99 29.3741 -27.9999 27.6749 -48.6884 26.3988C-79.7621 24.6068 -110.388 20.6447 -139.724 14.6224ZM68.4367 -589.451C51.4688 -592.935 33.9072 -595.831 16.238 -598.058C-43.6159 -608.054 -93.5876 -614.85 -142.749 -615.526C-225.664 -621.053 -302.256 -602.408 -364.183 -561.596C-410.054 -532.248 -434.877 -497.457 -437.944 -458.197C-441.135 -417.794 -419.039 -369.348 -396.13 -323.187C-374.068 -279.836 -359.158 -244.954 -349.203 -213.412C-346.127 -203.664 -343.59 -194.787 -341.433 -186.269C-339.538 -177.502 -337.888 -169.16 -336.3 -161.097C-330.441 -131.39 -325.383 -105.735 -311.389 -76.8912C-292.86 -37.1511 -228.815 -2.54427 -140.076 15.6726C-110.624 21.7187 -79.8769 25.6961 -48.6859 27.4976C-28.0545 28.7693 -11.069 30.4635 5.36178 32.1043C34.0152 34.9623 58.7678 37.4308 93.9669 36.8278L100.801 36.6873C149.5 35.7154 195.498 34.7937 241.857 30.0368C316.523 24.099 378.65 13.6299 439.082 -18.165C487.294 -40.5994 551.684 -77.705 584.478 -126.951C611.172 -166.62 610.536 -214.629 582.68 -262.133C577.911 -270.586 572.429 -279.223 566.38 -287.797C538.745 -327.452 495.677 -367.783 441.839 -404.439C394.212 -438.436 346.021 -469.081 294.529 -498.119C278.501 -508.14 263.153 -517.007 247.65 -525.207C185.71 -556.651 128.774 -577.065 68.4367 -589.451Z" fill="#EDE9F6"/>
<path d="M-139.771 0.43114C-226.232 -17.3266 -288.196 -49.8015 -305.514 -86.445C-320.27 -116.338 -324.848 -142.325 -330.153 -172.415C-331.259 -178.682 -332.404 -185.173 -333.679 -191.964C-335.565 -200.19 -337.785 -208.786 -340.478 -218.259C-349.202 -248.908 -362.329 -282.701 -381.799 -324.605C-401.772 -368.925 -420.921 -415.47 -416.664 -454.54C-412.61 -492.239 -388.5 -525.607 -345.005 -553.711C-284.533 -594.076 -210.425 -611.088 -130.685 -602.915C-83.1448 -600.848 -35.4144 -592.573 22.0495 -581.975C37.5578 -579.818 53.0048 -577.158 68.0265 -574.073C127.043 -561.951 183.796 -542.458 246.629 -512.719C261.99 -505.112 277.138 -496.937 292.913 -487.734C346.003 -460.143 393.714 -431.611 438.793 -400.503C490.04 -366.953 532.538 -326.961 558.489 -287.882C564.068 -279.583 569.114 -271.206 573.483 -262.984C598.773 -217.473 598.671 -171.226 573.207 -132.764C541.553 -84.3601 480.61 -48.254 435.059 -26.4887C376.699 5.2755 314.941 14.7942 240.162 19.3197C199.069 22.7865 158.286 23.0911 115.106 23.4113C108.01 23.4652 100.863 23.5182 93.6385 23.5869C60.5472 23.7933 36.7946 21.0259 11.6542 18.0943C-5.86859 16.0526 -23.985 13.9398 -47.1143 12.4925C-78.5472 10.6601 -109.719 6.60347 -139.771 0.43114ZM68.3799 -575.127C53.3096 -578.222 37.8041 -580.882 22.2966 -583.042C-35.2091 -593.651 -83.0255 -601.941 -130.653 -604.009C-210.84 -612.227 -285.407 -595.121 -346.216 -554.531C-389.975 -526.255 -414.233 -492.672 -418.317 -454.717C-422.591 -415.462 -403.401 -368.805 -383.378 -324.374C-363.926 -282.511 -350.81 -248.755 -342.1 -218.15C-339.415 -208.692 -337.194 -200.109 -335.319 -191.909C-334.043 -185.14 -332.904 -178.652 -331.798 -172.385C-326.484 -142.235 -321.89 -116.197 -307.089 -86.1978C-289.586 -49.1753 -227.168 -16.3967 -140.123 1.48086C-109.955 7.67692 -78.6598 11.7517 -47.1152 13.5902C-24.0595 15.0344 -5.97353 17.141 11.512 19.1774C36.7338 22.1184 60.5616 24.8941 93.8064 24.6854C101.036 24.6202 108.178 24.5637 115.273 24.512C158.502 24.1899 199.34 23.8891 240.487 20.4164C315.525 15.874 377.525 6.31081 436.131 -25.5963C481.796 -47.4107 542.943 -83.6416 574.732 -132.245C600.362 -170.959 600.472 -217.491 575.035 -263.27C570.658 -271.517 565.589 -279.924 559.984 -288.249C533.948 -327.464 491.311 -367.591 439.909 -401.243C394.785 -432.383 347.014 -460.949 293.899 -488.552C278.121 -497.756 262.939 -505.954 247.515 -513.588C184.504 -543.415 127.585 -562.967 68.3799 -575.127Z" fill="#EDE9F6"/>
<path d="M-139.805 -13.7572C-225.633 -31.3949 -284.359 -61.2697 -300.919 -95.7214C-316.486 -126.678 -320.298 -151.655 -325.125 -183.28C-325.824 -187.882 -326.551 -192.625 -327.333 -197.553C-328.945 -205.479 -330.852 -213.78 -333.156 -222.938C-340.65 -252.622 -352.007 -285.285 -368.909 -325.734C-385.304 -366.435 -402.354 -413.051 -397.011 -451.012C-391.958 -487.414 -368.393 -519.576 -326.973 -546.605C-267.602 -586.708 -195.489 -602.16 -118.418 -591.302C-75.4895 -588.023 -31.1621 -578.991 15.7633 -569.423L28.488 -566.832C41.5381 -564.825 54.5998 -562.484 67.3685 -559.86C125.556 -547.902 182.706 -529.167 247.221 -500.891C262.514 -493.846 277.524 -486.335 293.057 -477.94C348.293 -451.67 394.272 -425.978 437.792 -397.058C487.589 -365.814 528.546 -327.124 553.14 -288.107C558.283 -280.06 562.925 -271.914 566.913 -263.884C589.845 -220.093 589.024 -175.319 564.603 -137.803C533.94 -90.0464 476.185 -54.8333 433.131 -33.7074C370.132 1.7283 303.034 7.23959 239.71 9.8513C202.797 12.2672 166.165 12.0105 127.393 11.7416C116.49 11.6638 105.451 11.5869 94.2298 11.5669C62.6237 11.4174 40.551 8.4328 17.1814 5.27594C-0.990375 2.81753 -19.7821 0.280061 -44.9494 -1.32273C-76.4787 -3.1842 -109.28 -7.48425 -139.805 -13.7572ZM67.7201 -560.909C54.9118 -563.541 41.8083 -565.893 28.7719 -567.893L16.1118 -570.473C-30.8972 -580.053 -75.296 -589.105 -118.305 -592.385C-195.849 -603.316 -268.455 -587.77 -328.195 -547.417C-369.859 -520.23 -393.569 -487.863 -398.655 -451.214C-404.023 -413.074 -386.939 -366.343 -370.499 -325.535C-353.615 -285.12 -342.269 -252.496 -334.792 -222.856C-332.48 -213.709 -330.58 -205.421 -328.977 -197.524C-328.193 -192.612 -327.469 -187.869 -326.769 -183.27C-321.929 -151.577 -318.111 -126.541 -302.487 -95.471C-285.738 -60.6348 -226.575 -30.467 -140.157 -12.7082C-109.516 -6.41152 -76.5902 -2.09555 -44.9498 -0.225779C-19.8806 1.36895 -1.1299 3.90283 17.0054 6.35375C40.4548 9.52459 62.6034 12.5151 94.3744 12.6671C105.602 12.6883 116.632 12.7634 127.525 12.8416C166.351 13.112 203.026 13.3678 239.979 10.9481C303.544 8.32545 370.92 2.78915 434.227 -32.82C477.387 -53.9991 535.336 -89.3366 566.128 -137.294C590.707 -175.048 591.537 -220.101 568.478 -264.152C564.467 -272.204 559.82 -280.382 554.653 -288.451C529.967 -327.622 488.853 -366.463 438.891 -397.816C395.307 -426.768 349.259 -452.506 293.986 -478.793C278.447 -487.179 263.411 -494.71 248.053 -501.783C183.371 -530.132 126.081 -548.916 67.7201 -560.909Z" fill="#EDE9F6"/>
<path d="M-141.115 -27.2413C-224.549 -44.3949 -281.287 -72.4628 -296.774 -104.246C-313.062 -136.153 -316.027 -159.984 -320.127 -192.97C-320.514 -196.073 -320.909 -199.253 -321.326 -202.529C-322.657 -210.178 -324.232 -218.19 -326.15 -227.04C-332.371 -255.745 -341.92 -287.319 -356.202 -326.416C-373.148 -374.885 -383.243 -413.987 -377.416 -447.215C-371.321 -482.392 -348.301 -513.408 -308.981 -539.41C-250.733 -579.344 -180.666 -593.311 -106.35 -579.8C-88.6963 -577.813 -69.6446 -574.663 -46.308 -569.865C-29.4057 -566.39 -12.3698 -562.5 5.66854 -558.378C15.1532 -556.215 24.7759 -554.019 34.5694 -551.839C44.5964 -550.142 54.6759 -548.254 64.5732 -546.219C122.98 -534.211 179.293 -516.639 247.178 -489.24C262.202 -482.842 277.458 -475.799 292.517 -468.313C348.881 -443.921 394.424 -420.233 435.882 -393.744C484.299 -364.651 523.636 -327.229 546.678 -288.355C551.388 -280.529 555.595 -272.599 559.185 -264.79C579.714 -222.677 578.128 -179.307 554.734 -142.651C525.039 -95.431 470.495 -61.0335 429.972 -40.4924C368.737 -4.81212 304.302 -0.512627 238.155 0.986856C204.755 2.55232 171.609 1.81663 136.509 1.03935C122.7 0.735349 108.409 0.416942 93.8817 0.243399C63.4612 -0.219989 42.7963 -3.426 20.9259 -6.81943C2.41672 -9.69111 -16.7116 -12.6611 -43.5763 -14.3842C-75.8182 -16.3057 -109.541 -20.7498 -141.115 -27.2413ZM-45.9562 -570.915C-69.3687 -575.728 -88.491 -578.891 -106.14 -580.874C-180.966 -594.476 -251.56 -580.429 -310.202 -540.219C-349.755 -514.063 -372.924 -482.847 -379.052 -447.443C-384.906 -414.051 -374.795 -374.849 -357.806 -326.255C-343.533 -287.189 -333.993 -255.648 -327.784 -226.985C-325.87 -218.144 -324.292 -210.139 -322.968 -202.519C-322.556 -199.265 -322.157 -196.08 -321.772 -192.977C-317.661 -159.911 -314.687 -136.02 -298.334 -103.986C-282.662 -71.824 -225.483 -43.4647 -141.467 -26.1912C-109.777 -19.6761 -75.9302 -15.216 -43.5798 -13.2891C-16.8335 -11.571 2.24019 -8.61226 20.6909 -5.75017C42.6539 -2.34255 63.3984 0.877409 94.0004 1.3418C108.523 1.51924 122.802 1.83514 136.604 2.14016C171.749 2.91939 204.94 3.65479 238.393 2.08573C304.798 0.583495 369.526 -3.74032 431.088 -39.6122C471.704 -60.2091 526.44 -94.7318 556.261 -142.146C579.801 -179.031 581.406 -222.672 560.759 -265.033C557.157 -272.865 552.933 -280.824 548.201 -288.681C525.061 -327.724 485.549 -365.311 436.937 -394.519C395.415 -421.05 349.79 -444.786 293.375 -469.198C278.334 -476.679 263.043 -483.736 247.96 -490.161C179.922 -517.618 123.48 -535.228 64.9243 -547.267C54.9966 -549.308 44.8928 -551.201 34.8962 -552.891C25.1725 -555.057 15.549 -557.251 6.07198 -559.417C-11.9792 -563.54 -29.0266 -567.434 -45.9562 -570.915Z" fill="#EDE9F6"/>
<path d="M-95.1075 -567.855C-86.7645 -566.583 -78.1965 -565.033 -68.8355 -563.108C-47.155 -558.648 -24.9635 -552.922 -1.46824 -546.862C11.9622 -543.4 25.8513 -539.814 40.1373 -536.346C46.1374 -535.223 52.1505 -534.042 58.0854 -532.821C116.606 -520.783 174.915 -503.579 247.136 -477.046C262.157 -471.189 277.284 -464.833 292.084 -458.151C350.404 -435.45 394.303 -414.422 434.466 -389.933C481.762 -362.912 519.616 -326.818 541.087 -288.286C545.382 -280.715 549.186 -273.024 552.407 -265.425C570.896 -224.513 568.683 -183.76 545.99 -147.563C517.292 -101.026 465.92 -67.5943 427.88 -47.7397C368.26 -11.9374 306.341 -8.85265 237.396 -8.64483C206.882 -7.83388 176.599 -9.02762 144.548 -10.2856C128.241 -10.9266 111.385 -11.5864 94.0454 -11.9956C64.4972 -12.7773 44.983 -16.2314 24.3314 -19.8857C5.68507 -23.1878 -13.596 -26.6012 -41.9817 -28.4595C-75.2346 -30.4813 -110.197 -35.124 -143.085 -41.8893C-223.885 -58.51 -278.529 -84.7202 -293.017 -113.799C-310.023 -146.37 -312.157 -168.801 -315.386 -202.755L-315.913 -208.295C-316.98 -215.667 -318.247 -223.373 -319.789 -231.874C-324.86 -259.834 -332.442 -289.351 -344.369 -327.588C-358.052 -373.892 -365.764 -411.347 -358.927 -443.609C-351.848 -477.459 -329.37 -507.226 -292.124 -532.088C-236.52 -570.605 -170.331 -583.385 -100.688 -569.059C-98.8291 -568.676 -96.9626 -568.278 -95.1075 -567.855ZM-68.4838 -564.158C-77.8874 -566.092 -86.4964 -567.646 -94.7961 -568.911C-96.5866 -569.314 -98.463 -569.721 -100.337 -570.107C-170.6 -584.56 -237.342 -571.696 -293.353 -532.896C-330.818 -507.885 -353.436 -477.932 -360.564 -443.861C-367.432 -411.446 -359.705 -373.892 -345.987 -327.467C-334.067 -289.258 -326.495 -259.769 -321.426 -231.844C-319.887 -223.351 -318.62 -215.655 -317.558 -208.308L-317.035 -202.785C-313.797 -168.74 -311.658 -146.247 -294.576 -113.535C-279.903 -84.0782 -224.813 -57.5808 -143.436 -40.8413C-110.433 -34.0523 -75.3524 -29.3926 -41.9811 -27.3658C-13.7419 -25.5159 5.46852 -22.1146 24.0449 -18.8269C44.8006 -15.1536 64.3975 -11.6849 94.1355 -10.8979C111.456 -10.4902 128.301 -9.82783 144.605 -9.18741C176.701 -7.9275 207.025 -6.73757 237.584 -7.54881C304.268 -7.75108 369.113 -10.9073 429.009 -46.8749C467.141 -66.7784 518.704 -100.335 547.531 -147.065C570.357 -183.486 572.584 -224.492 553.991 -265.638C550.762 -273.26 546.94 -280.984 542.634 -288.583C521.052 -327.305 483.005 -363.581 435.495 -390.725C395.257 -415.261 351.251 -436.343 292.875 -459.058C278.088 -465.742 262.924 -472.113 247.853 -477.985C175.492 -504.573 117.081 -521.805 58.4364 -533.869C52.4893 -535.092 46.4572 -536.275 40.5095 -537.39C26.3017 -540.839 12.424 -544.42 -0.996573 -547.883C-24.5238 -553.954 -46.7441 -559.681 -68.4838 -564.158Z" fill="#EDE9F6"/>
<path d="M-145.334 -55.621C-222.892 -71.5807 -275.083 -95.9134 -288.524 -122.376C-306.088 -155.405 -307.371 -176.292 -309.495 -210.887L-309.64 -213.257C-310.434 -220.393 -311.382 -227.809 -312.536 -235.946C-316.339 -262.703 -322.197 -291.147 -331.522 -328.168C-340.511 -366.404 -347.674 -406.373 -339.288 -439.631C-331.169 -472.237 -309.228 -500.828 -274.069 -524.625C-222.713 -560.683 -162.307 -572.896 -99.3665 -559.944C-93.8798 -558.815 -88.3055 -557.482 -82.7994 -555.975C-81.5636 -555.73 -80.4212 -555.497 -79.2643 -555.259C-55.4198 -550.352 -30.8181 -543.141 -4.77852 -535.504C11.6833 -530.677 28.7001 -525.686 46.6265 -520.949C122.225 -505.32 190.726 -483.87 247.773 -464.958C262.802 -459.649 277.784 -453.973 292.277 -448.081C332.234 -434.222 384.355 -414.681 433.479 -386.18C479.006 -361.473 516.262 -325.742 535.729 -288.138C539.587 -280.809 542.978 -273.343 545.803 -265.949C561.926 -226.802 558.986 -187.447 537.326 -152.123C509.585 -106.142 461.386 -73.5825 425.837 -54.3665C367.861 -18.3716 305.933 -16.3539 236.806 -17.4495C208.803 -17.2653 181.011 -18.8437 151.587 -20.5139C133.229 -21.5562 114.249 -22.6323 94.506 -23.31C65.6777 -24.3822 47.178 -28.0852 27.592 -32.0045C8.99516 -35.7275 -10.2462 -39.5807 -39.9476 -41.5544C-74.0212 -43.6528 -111.445 -48.6474 -145.334 -55.621ZM-99.0156 -560.992C-162.582 -574.072 -223.543 -561.771 -275.305 -525.422C-310.669 -501.496 -332.749 -472.722 -340.919 -439.906C-349.335 -406.5 -342.161 -366.428 -333.153 -328.093C-323.829 -291.091 -317.979 -262.671 -314.18 -235.942C-313.025 -227.816 -312.078 -220.407 -311.291 -213.297L-311.146 -210.947C-309.014 -176.241 -307.729 -155.293 -290.075 -122.106C-276.448 -95.2695 -223.816 -70.6507 -145.685 -54.5729C-111.683 -47.5762 -74.1359 -42.5634 -39.9538 -40.4596C-10.4262 -38.5 8.73003 -34.6642 27.254 -30.9562C46.9424 -27.0134 65.5339 -23.2939 94.5763 -22.2115C114.291 -21.5371 133.252 -20.4625 151.597 -19.4182C181.059 -17.7473 208.886 -16.1665 236.946 -16.3485C306.387 -15.2488 368.637 -17.285 426.99 -53.5063C462.634 -72.7728 511.008 -105.458 538.856 -151.634C560.652 -187.167 563.604 -226.763 547.404 -266.136C544.561 -273.551 541.159 -281.053 537.275 -288.414C517.715 -326.225 480.241 -362.156 434.472 -386.992C385.226 -415.567 332.981 -435.154 292.98 -449.028C278.517 -454.909 263.505 -460.598 248.418 -465.924C191.287 -484.868 122.699 -506.34 47.0473 -521.983C29.2142 -526.698 12.2111 -531.682 -4.23253 -536.504C-31.5847 -544.525 -57.3479 -552.077 -82.3855 -557.007C-87.8537 -558.502 -93.4773 -559.852 -99.0156 -560.992Z" fill="#EDE9F6"/>
<path d="M-149.208 -70.7186C-192.541 -79.6386 -267.765 -99.4873 -284.726 -132.197C-302.717 -165.394 -303.199 -184.55 -304.073 -219.329C-304.594 -226.399 -305.221 -233.519 -305.991 -241.22C-309.243 -273.609 -314.865 -305.638 -319.391 -329.927C-325.559 -366.269 -329.948 -404.378 -320.38 -436.78C-311.214 -468.148 -289.813 -495.558 -256.759 -518.255C-209.252 -552.073 -154.036 -563.746 -97.0722 -552.02C-88.5348 -550.263 -79.8504 -547.966 -71.2609 -545.182C-50.4771 -540.051 -29.1455 -532.914 -6.55949 -525.356C12.1169 -519.105 31.4307 -512.645 52.3339 -506.641C115.06 -492.281 175.756 -475.203 247.612 -453.974C262.698 -449.21 277.527 -444.21 291.659 -439.122C334.804 -425.975 385.119 -409.099 431.667 -383.547C476.203 -360.699 511.863 -326.293 529.529 -289.151C532.959 -282.068 535.94 -274.828 538.381 -267.63C552.125 -230.292 548.478 -192.347 527.83 -157.884C501.067 -112.45 456.053 -80.7889 422.998 -62.227C366.511 -25.9971 307.165 -25.0221 235.453 -27.5098C209.613 -27.8758 183.99 -29.8 156.854 -31.8376C136.788 -33.3467 116.041 -34.9043 94.2241 -35.8906C72.1367 -36.9421 56.8068 -39.6318 44.7245 -42.1189C39.6379 -43.166 34.8281 -44.2453 29.7262 -45.3921C24.685 -46.5264 19.4541 -47.7045 13.9972 -48.8278C2.10613 -51.2755 -14.626 -54.2925 -38.6492 -55.909C-74.4073 -58.1429 -113.671 -63.4036 -149.208 -70.7186ZM-96.7207 -553.07C-154.316 -564.926 -210.08 -553.163 -258.002 -519.047C-290.777 -496.543 -312.91 -468.2 -322.003 -437.088C-331.612 -404.542 -327.213 -366.337 -321.029 -329.898C-316.501 -305.617 -310.886 -273.614 -307.64 -241.248C-306.867 -233.556 -306.238 -226.441 -305.727 -219.495C-304.849 -184.513 -304.364 -165.289 -286.278 -131.92C-269.054 -98.7002 -193.226 -78.6596 -149.559 -69.6708C-113.91 -62.3326 -74.5243 -57.0567 -38.6555 -54.8145C-14.7871 -53.2105 1.82901 -50.215 13.6472 -47.7823C19.0859 -46.6627 24.2918 -45.4873 29.336 -44.3525C34.2149 -43.2564 39.2652 -42.1203 44.3731 -41.0689C56.5525 -38.5618 71.9939 -35.8563 94.2626 -34.7941C116.043 -33.8131 136.777 -32.2557 156.829 -30.7468C183.99 -28.7042 209.657 -26.7758 235.544 -26.4145C307.613 -23.9088 367.283 -24.9016 424.171 -61.3797C457.313 -79.9911 502.498 -111.784 529.375 -157.402C550.141 -192.063 553.815 -230.236 539.985 -267.79C537.542 -275.01 534.545 -282.28 531.097 -289.395C513.321 -326.772 477.429 -361.395 432.616 -384.375C385.925 -410.016 335.475 -426.933 292.286 -440.095C278.171 -445.183 263.316 -450.182 248.183 -454.964C176.26 -476.214 115.521 -493.301 52.803 -507.664C32.0113 -513.634 12.7248 -520.088 -5.9318 -526.33C-28.5649 -533.902 -49.942 -541.059 -70.7364 -546.187C-79.3266 -548.969 -88.0953 -551.295 -96.7207 -553.07Z" fill="#EDE9F6"/>
<path d="M-153.87 -84.9989C-224.257 -99.4927 -269.369 -119.438 -280.896 -141.16C-299.189 -174.261 -298.944 -192.221 -298.502 -224.818C-298.734 -231.713 -299.044 -238.547 -299.445 -245.731C-301.082 -275.162 -304.175 -304.101 -307.276 -330.991C-310.521 -363.785 -312.364 -401.601 -301.492 -433.343C-291.403 -463.085 -269.936 -490.062 -239.406 -511.368C-194.71 -543.625 -145.468 -554.503 -93.0393 -543.707C-81.9418 -541.422 -70.6502 -538.116 -59.4743 -533.883C-42.296 -528.679 -24.7164 -521.948 -6.10393 -514.821C14.1375 -507.071 35.0701 -499.058 58.433 -491.789C95.2074 -482.436 131.458 -472.916 169.839 -462.835C195.268 -456.152 221.561 -449.247 248.065 -442.382C263.318 -438.154 278.006 -433.832 291.721 -429.542C337.777 -417.416 386.441 -403.063 430.679 -380.235C474.349 -359.164 508.455 -326.053 524.272 -289.398C527.29 -282.545 529.86 -275.528 531.909 -268.534C543.318 -233.002 538.956 -196.424 519.295 -162.766C493.455 -117.815 451.587 -87.0337 421.004 -69.1277C365.897 -32.6213 309.036 -32.6182 234.729 -36.5938C210.786 -37.4327 187.029 -39.675 161.885 -42.0484C140.353 -44.079 118.085 -46.1813 94.4023 -47.5076C79.7604 -48.3585 66.7903 -50.0245 53.6033 -52.7399C46.0046 -54.3046 39.1799 -56.019 31.9604 -57.8341C24.7415 -59.6515 17.2645 -61.5317 8.93991 -63.2459C-5.65021 -66.2502 -20.2579 -68.1833 -37.0242 -69.3219C-74.469 -71.7043 -117.055 -77.418 -153.87 -84.9989ZM-92.6877 -544.758C-145.764 -555.687 -195.546 -544.715 -240.657 -512.152C-271.36 -490.735 -292.954 -463.592 -303.104 -433.68C-314.027 -401.804 -312.176 -363.894 -308.925 -331.01C-305.824 -304.132 -302.73 -275.204 -301.093 -245.792C-300.694 -238.614 -300.386 -231.783 -300.151 -224.916C-300.598 -192.197 -300.844 -174.167 -282.443 -140.875C-270.724 -118.782 -225.182 -98.5624 -154.221 -83.9504C-117.299 -76.3477 -74.5859 -70.6173 -37.0326 -68.2295C-20.3886 -67.0944 -5.89098 -65.1815 8.5898 -62.1996C16.8567 -60.4974 24.3064 -58.6228 31.5078 -56.8115C38.7509 -54.9891 45.6013 -53.2645 53.2517 -51.6892C66.5632 -48.9481 79.6403 -47.2722 94.4129 -46.4137C118.05 -45.0872 140.294 -42.9898 161.797 -40.9603C186.988 -38.5821 210.776 -36.3381 234.773 -35.4931C309.473 -31.4993 366.661 -31.5099 422.192 -68.2937C452.858 -86.2527 494.897 -117.156 520.834 -162.292C540.612 -196.142 544.998 -232.921 533.525 -268.658C531.468 -275.675 528.886 -282.726 525.866 -289.611C509.924 -326.524 475.568 -359.869 431.594 -381.097C387.19 -404 338.382 -418.4 292.255 -430.548C278.57 -434.83 263.854 -439.157 248.558 -443.398C222.032 -450.266 195.734 -457.176 170.322 -463.851C131.932 -473.935 95.6798 -483.46 58.9516 -492.796C35.7216 -500.026 14.8271 -508.026 -5.384 -515.76C-24.0367 -522.902 -41.6535 -529.648 -58.8349 -534.853C-70.0496 -539.106 -81.4626 -542.447 -92.6877 -544.758Z" fill="#EDE9F6"/>
</svg>
